AlegreyaSans-Thin.ufo
<glyph name="numbersign" format="2">
  <advance width="480"/>
  <unicode hex="0023"/>
  <outline>
    <contour>
      <point x="378" y="575" type="line"/>
      <point x="362" y="575" type="line"/>
      <point x="225" y="36" type="line"/>
      <point x="228" y="32" type="line"/>
      <point x="244" y="32" type="line"/>
      <point x="380" y="570" type="line"/>
    </contour>
    <contour>
      <point x="419" y="245" type="line"/>
      <point x="22" y="245" type="line"/>
      <point x="20" y="228" type="line"/>
      <point x="23" y="225" type="line"/>
      <point x="420" y="225" type="line"/>
      <point x="422" y="242" type="line"/>
    </contour>
    <contour>
      <point x="240" y="575" type="line"/>
      <point x="224" y="575" type="line"/>
      <point x="87" y="36" type="line"/>
      <point x="90" y="32" type="line"/>
      <point x="106" y="32" type="line"/>
      <point x="242" y="570" type="line"/>
    </contour>
    <contour>
      <point x="457" y="394" type="line"/>
      <point x="60" y="394" type="line"/>
      <point x="58" y="377" type="line"/>
      <point x="61" y="374" type="line"/>
      <point x="458" y="374" type="line"/>
      <point x="460" y="391" type="line"/>
    </contour>
  </outline>
</glyph>
<glyph name="ampersand" format="2">
  <advance width="676"/>
  <unicode hex="0026"/>
  <outline>
    <contour>
      <point x="291" y="643" type="curve" smooth="yes"/>
      <point x="180" y="643"/>
      <point x="120" y="585"/>
      <point x="120" y="490" type="curve" smooth="yes"/>
      <point x="120" y="432"/>
      <point x="143" y="386"/>
      <point x="201" y="338" type="curve" smooth="yes"/>
      <point x="607" y="-21" type="line"/>
      <point x="610" y="-22" type="line"/>
      <point x="615" y="-20"/>
      <point x="621" y="-16"/>
      <point x="625" y="-12" type="curve"/>
      <point x="625" y="-9" type="line"/>
      <point x="214" y="352" type="line" smooth="yes"/>
      <point x="161" y="396"/>
      <point x="140" y="437"/>
      <point x="140" y="489" type="curve" smooth="yes"/>
      <point x="140" y="571"/>
      <point x="192" y="623"/>
      <point x="293" y="623" type="curve" smooth="yes"/>
      <point x="343" y="623"/>
      <point x="388" y="610"/>
      <point x="430" y="583" type="curve"/>
      <point x="437" y="583" type="line"/>
      <point x="443" y="602" type="line"/>
      <point x="393" y="630"/>
      <point x="344" y="643"/>
    </contour>
    <contour>
      <point x="484" y="371" type="line"/>
      <point x="658" y="371" type="line"/>
      <point x="662" y="387" type="line"/>
      <point x="659" y="391" type="line"/>
      <point x="377" y="391" type="line"/>
      <point x="373" y="375" type="line"/>
      <point x="377" y="371" type="line"/>
      <point x="456" y="371" type="line"/>
      <point x="482" y="324"/>
      <point x="496" y="276"/>
      <point x="496" y="219" type="curve" smooth="yes"/>
      <point x="496" y="98"/>
      <point x="422" y="16"/>
      <point x="291" y="16" type="curve" smooth="yes"/>
      <point x="181" y="16"/>
      <point x="99" y="73"/>
      <point x="99" y="167" type="curve" smooth="yes"/>
      <point x="99" y="240"/>
      <point x="145" y="296"/>
      <point x="216" y="329" type="curve"/>
      <point x="195" y="353" type="line"/>
      <point x="195" y="339" type="line"/>
      <point x="119" y="298"/>
      <point x="79" y="238"/>
      <point x="79" y="165" type="curve" smooth="yes"/>
      <point x="79" y="59"/>
      <point x="169" y="-4"/>
      <point x="290" y="-4" type="curve" smooth="yes"/>
      <point x="434" y="-4"/>
      <point x="516" y="86"/>
      <point x="516" y="219" type="curve" smooth="yes"/>
      <point x="516" y="273"/>
      <point x="505" y="317"/>
      <point x="484" y="367" type="curve"/>
    </contour>
  </outline>
</glyph>
<glyph name="plus" format="2">
  <advance width="480"/>
  <unicode hex="002B"/>
  <outline>
    <contour>
      <point x="247" y="471" type="line"/>
      <point x="230" y="469" type="line"/>
      <point x="230" y="280" type="line"/>
      <point x="41" y="280" type="line"/>
      <point x="39" y="263" type="line"/>
      <point x="42" y="260" type="line"/>
      <point x="230" y="260" type="line"/>
      <point x="230" y="72" type="line"/>
      <point x="233" y="69" type="line"/>
      <point x="250" y="71" type="line"/>
      <point x="250" y="260" type="line"/>
      <point x="439" y="260" type="line"/>
      <point x="441" y="277" type="line"/>
      <point x="438" y="280" type="line"/>
      <point x="250" y="280" type="line"/>
      <point x="250" y="468" type="line"/>
    </contour>
  </outline>
</glyph>
<glyph name="slash" format="2">
  <advance width="291"/>
  <unicode hex="002F"/>
  <outline>
    <contour>
      <point x="267" y="675" type="line"/>
      <point x="251" y="675" type="line"/>
      <point x="47" y="-106" type="line"/>
      <point x="50" y="-110" type="line"/>
      <point x="66" y="-110" type="line"/>
      <point x="270" y="670" type="line"/>
    </contour>
  </outline>
</glyph>
<glyph name="question" format="2">
  <advance width="322"/>
  <unicode hex="003F"/>
  <outline>
    <contour>
      <point x="87" y="654" type="curve"/>
      <point x="81" y="651" type="line"/>
      <point x="75" y="637" type="line"/>
      <point x="77" y="634" type="line"/>
      <point x="215" y="626"/>
      <point x="292" y="577"/>
      <point x="292" y="498" type="curve" smooth="yes"/>
      <point x="292" y="454"/>
      <point x="267" y="414"/>
      <point x="223" y="386" type="curve" smooth="yes"/>
      <point x="122" y="317" type="line"/>
      <point x="117" y="308" type="line"/>
      <point x="123" y="198" type="line"/>
      <point x="126" y="194" type="line"/>
      <point x="143" y="195" type="line"/>
      <point x="138" y="303" type="line"/>
      <point x="139" y="306" type="line"/>
      <point x="235" y="372" type="line" smooth="yes"/>
      <point x="285" y="406"/>
      <point x="312" y="451"/>
      <point x="312" y="500" type="curve" smooth="yes"/>
      <point x="312" y="587"/>
      <point x="232" y="642"/>
    </contour>
    <contour>
      <point x="135" y="38" type="curve" smooth="yes"/>
      <point x="123" y="38"/>
      <point x="115" y="30"/>
      <point x="115" y="18" type="curve" smooth="yes"/>
      <point x="115" y="6"/>
      <point x="123" y="-2"/>
      <point x="135" y="-2" type="curve" smooth="yes"/>
      <point x="147" y="-2"/>
      <point x="155" y="6"/>
      <point x="155" y="18" type="curve" smooth="yes"/>
      <point x="155" y="30"/>
      <point x="147" y="38"/>
    </contour>
  </outline>
</glyph>
<glyph name="at" format="2">
  <advance width="805"/>
  <unicode hex="0040"/>
  <outline>
    <contour>
      <point x="441" y="592" type="curve"/>
      <point x="203" y="592"/>
      <point x="44" y="431"/>
      <point x="44" y="190" type="curve"/>
      <point x="44" y="-35"/>
      <point x="203" y="-180"/>
      <point x="438" y="-185" type="curve"/>
      <point x="451" y="-169" type="line"/>
      <point x="450" y="-165" type="line"/>
      <point x="217" y="-165"/>
      <point x="64" y="-30"/>
      <point x="64" y="194" type="curve" smooth="yes"/>
      <point x="64" y="417"/>
      <point x="215" y="572"/>
      <point x="441" y="572" type="curve"/>
      <point x="628" y="572"/>
      <point x="743" y="456"/>
      <point x="743" y="284" type="curve"/>
      <point x="743" y="117"/>
      <point x="645" y="24"/>
      <point x="468" y="14" type="curve"/>
      <point x="463" y="-4" type="line"/>
      <point x="656" y="8"/>
      <point x="763" y="107"/>
      <point x="763" y="284" type="curve"/>
      <point x="763" y="466"/>
      <point x="638" y="592"/>
    </contour>
    <contour>
      <point x="538" y="459" type="line"/>
      <point x="519" y="448" type="line"/>
      <point x="511" y="362" type="line"/>
      <point x="463" y="-4" type="line"/>
      <point x="488" y="0" type="line"/>
      <point x="497" y="106" type="line"/>
      <point x="543" y="456" type="line"/>
    </contour>
    <contour>
      <point x="364" y="167" type="move"/>
    </contour>
    <contour>
      <point x="456" y="457" type="line"/>
      <point x="310" y="447"/>
      <point x="229" y="305"/>
      <point x="229" y="137" type="curve" smooth="yes"/>
      <point x="229" y="58"/>
      <point x="246" y="22"/>
      <point x="281" y="-4" type="curve"/>
      <point x="292" y="-4" type="line"/>
      <point x="363" y="60"/>
      <point x="435" y="159"/>
      <point x="494" y="271" type="curve"/>
      <point x="499" y="271" type="line"/>
      <point x="517" y="355" type="line"/>
      <point x="417" y="146"/>
      <point x="303" y="24"/>
      <point x="289" y="24" type="curve" smooth="yes"/>
      <point x="277" y="24"/>
      <point x="249" y="52"/>
      <point x="249" y="141" type="curve" smooth="yes"/>
      <point x="249" y="293"/>
      <point x="327" y="434"/>
      <point x="458" y="437" type="curve"/>
      <point x="530" y="431" type="line"/>
      <point x="534" y="451" type="line"/>
      <point x="460" y="457" type="line"/>
    </contour>
  </outline>
</glyph>
<glyph name="D" format="2">
  <advance width="637"/>
  <unicode hex="0044"/>
  <anchor x="319" y="0" name="bottom"/>
  <anchor x="319" y="319" name="center"/>
  <anchor x="319" y="637" name="top"/>
  <outline>
    <contour>
      <point x="311" y="642" type="curve"/>
      <point x="110" y="637" type="line"/>
      <point x="121" y="617" type="line"/>
      <point x="148" y="618"/>
      <point x="288" y="622"/>
      <point x="311" y="622" type="curve" smooth="yes"/>
      <point x="477" y="622"/>
      <point x="569" y="521"/>
      <point x="569" y="339" type="curve" smooth="yes"/>
      <point x="569" y="131"/>
      <point x="473" y="15"/>
      <point x="301" y="15" type="curve" smooth="yes"/>
      <point x="276" y="15"/>
      <point x="155" y="18"/>
      <point x="121" y="20" type="curve"/>
      <point x="110" y="0" type="line"/>
      <point x="154" y="-2"/>
      <point x="276" y="-5"/>
      <point x="301" y="-5" type="curve"/>
      <point x="486" y="-5"/>
      <point x="589" y="118"/>
      <point x="589" y="339" type="curve" smooth="yes"/>
      <point x="589" y="534"/>
      <point x="490" y="642"/>
    </contour>
    <contour>
      <point x="130" y="637" type="line"/>
      <point x="110" y="637" type="line"/>
      <point x="110" y="195" type="line"/>
      <point x="110" y="0" type="line"/>
      <point x="130" y="0" type="line"/>
      <point x="130" y="195" type="line"/>
    </contour>
  </outline>
</glyph>
<glyph name="G" format="2">
  <advance width="603"/>
  <unicode hex="0047"/>
  <anchor x="312" y="0" name="bottom"/>
  <anchor x="325" y="637" name="top"/>
  <outline>
    <contour>
      <point x="343" y="641" type="curve" smooth="yes"/>
      <point x="154" y="641"/>
      <point x="48" y="524"/>
      <point x="48" y="313" type="curve" smooth="yes"/>
      <point x="48" y="109"/>
      <point x="141" y="-5"/>
      <point x="308" y="-5" type="curve" smooth="yes"/>
      <point x="381" y="-3"/>
      <point x="428" y="5"/>
      <point x="516" y="30" type="curve"/>
      <point x="516" y="158" type="line"/>
      <point x="516" y="248" type="line"/>
      <point x="496" y="246" type="line"/>
      <point x="496" y="158" type="line"/>
      <point x="496" y="45" type="line"/>
      <point x="413" y="22"/>
      <point x="370" y="15"/>
      <point x="307" y="15" type="curve" smooth="yes"/>
      <point x="154" y="15"/>
      <point x="68" y="121"/>
      <point x="68" y="312" type="curve" smooth="yes"/>
      <point x="68" y="511"/>
      <point x="167" y="621"/>
      <point x="343" y="621" type="curve" smooth="yes"/>
      <point x="396" y="621"/>
      <point x="455" y="602"/>
      <point x="510" y="569" type="curve"/>
      <point x="517" y="569" type="line"/>
      <point x="523" y="587" type="line"/>
      <point x="464" y="622"/>
      <point x="400" y="641"/>
    </contour>
  </outline>
</glyph>
<glyph name="I" format="2">
  <advance width="240"/>
  <unicode hex="0049"/>
  <anchor x="130" y="0" name="ogonek"/>
  <anchor x="120" y="637" name="top"/>
  <outline>
    <contour>
      <point x="130" y="637" type="line"/>
      <point x="110" y="637" type="line"/>
      <point x="110" y="195" type="line"/>
      <point x="110" y="0" type="line"/>
      <point x="130" y="0" type="line"/>
      <point x="130" y="195" type="line"/>
    </contour>
  </outline>
</glyph>
<glyph name="K" format="2">
  <advance width="507"/>
  <unicode hex="004B"/>
  <anchor x="274" y="0" name="bottom"/>
  <anchor x="480" y="-6" name="bottomright"/>
  <anchor x="254" y="637" name="top"/>
  <outline>
    <contour>
      <point x="482" y="637" type="line"/>
      <point x="451" y="637" type="line"/>
      <point x="408" y="590" type="line"/>
      <point x="159" y="341" type="line"/>
      <point x="159" y="338" type="line"/>
      <point x="258" y="219"/>
      <point x="369" y="102"/>
      <point x="480" y="-6" type="curve"/>
      <point x="484" y="-7" type="line"/>
      <point x="489" y="-5"/>
      <point x="495" y="-3"/>
      <point x="498" y="1" type="curve"/>
      <point x="498" y="5" type="line"/>
      <point x="390" y="108"/>
      <point x="281" y="225"/>
      <point x="186" y="340" type="curve"/>
    </contour>
    <contour>
      <point x="130" y="637" type="line"/>
      <point x="110" y="637" type="line"/>
      <point x="110" y="195" type="line"/>
      <point x="110" y="0" type="line"/>
      <point x="130" y="0" type="line"/>
      <point x="130" y="195" type="line"/>
    </contour>
  </outline>
</glyph>
<glyph name="R" format="2">
  <advance width="518"/>
  <unicode hex="0052"/>
  <anchor x="259" y="0" name="bottom"/>
  <anchor x="259" y="637" name="top"/>
  <outline>
    <contour>
      <point x="251" y="639" type="curve"/>
      <point x="110" y="637" type="line"/>
      <point x="116" y="618" type="line"/>
      <point x="258" y="618" type="line"/>
      <point x="356" y="618"/>
      <point x="412" y="562"/>
      <point x="412" y="464" type="curve" smooth="yes"/>
      <point x="412" y="371"/>
      <point x="362" y="306"/>
      <point x="272" y="283" type="curve"/>
      <point x="120" y="283" type="line"/>
      <point x="120" y="263" type="line"/>
      <point x="272" y="263" type="line"/>
      <point x="375" y="290"/>
      <point x="432" y="362"/>
      <point x="432" y="464" type="curve" smooth="yes"/>
      <point x="432" y="577"/>
      <point x="367" y="639"/>
    </contour>
    <contour>
      <point x="130" y="637" type="line"/>
      <point x="110" y="637" type="line"/>
      <point x="110" y="195" type="line"/>
      <point x="110" y="0" type="line"/>
      <point x="130" y="0" type="line"/>
      <point x="130" y="195" type="line"/>
    </contour>
    <contour>
      <point x="279" y="277" type="curve"/>
      <point x="255" y="277" type="line"/>
      <point x="313" y="181"/>
      <point x="378" y="87"/>
      <point x="448" y="-5" type="curve"/>
      <point x="454" y="-7" type="line"/>
      <point x="459" y="-5"/>
      <point x="462" y="-3"/>
      <point x="466" y="1" type="curve"/>
      <point x="466" y="5" type="line"/>
      <point x="398" y="94"/>
      <point x="335" y="184"/>
    </contour>
  </outline>
</glyph>
<glyph name="S" format="2">
  <advance width="445"/>
  <unicode hex="0053"/>
  <guideline x="263" y="195" angle="319"/>
  <anchor x="214" y="0" name="bottom"/>
  <anchor x="233" y="637" name="top"/>
  <outline>
    <contour>
      <point x="246" y="640" type="curve" smooth="yes"/>
      <point x="139" y="640"/>
      <point x="66" y="569"/>
      <point x="66" y="483" type="curve" smooth="yes"/>
      <point x="66" y="302"/>
      <point x="370" y="327"/>
      <point x="370" y="162" type="curve" smooth="yes"/>
      <point x="370" y="90"/>
      <point x="306" y="16"/>
      <point x="203" y="16" type="curve" smooth="yes"/>
      <point x="157" y="16"/>
      <point x="100" y="31"/>
      <point x="58" y="64" type="curve"/>
      <point x="53" y="62" type="line"/>
      <point x="52" y="43" type="line"/>
      <point x="95" y="12"/>
      <point x="154" y="-4"/>
      <point x="204" y="-4" type="curve" smooth="yes"/>
      <point x="313" y="-4"/>
      <point x="390" y="73"/>
      <point x="390" y="162" type="curve" smooth="yes"/>
      <point x="390" y="347"/>
      <point x="86" y="324"/>
      <point x="86" y="480" type="curve" smooth="yes"/>
      <point x="86" y="545"/>
      <point x="142" y="620"/>
      <point x="244" y="620" type="curve" smooth="yes"/>
      <point x="275" y="620"/>
      <point x="318" y="612"/>
      <point x="357" y="592" type="curve"/>
      <point x="364" y="593" type="line"/>
      <point x="368" y="611" type="line"/>
      <point x="321" y="633"/>
      <point x="277" y="640"/>
    </contour>
  </outline>
</glyph>
<glyph name="U" format="2">
  <advance width="612"/>
  <unicode hex="0055"/>
  <anchor x="427" y="26" name="ogonek"/>
  <anchor x="310" y="637" name="top"/>
  <outline>
    <contour>
      <point x="526" y="637" type="line"/>
      <point x="506" y="637" type="line"/>
      <point x="506" y="229" type="line" smooth="yes"/>
      <point x="506" y="92"/>
      <point x="435" y="16"/>
      <point x="306" y="16" type="curve" smooth="yes"/>
      <point x="176" y="16"/>
      <point x="105" y="92"/>
      <point x="106" y="229" type="curve" smooth="yes"/>
      <point x="106" y="637" type="line"/>
      <point x="86" y="637" type="line"/>
      <point x="86" y="322" type="line"/>
      <point x="86" y="229" type="line" smooth="yes"/>
      <point x="86" y="79"/>
      <point x="163" y="-4"/>
      <point x="306" y="-4" type="curve" smooth="yes"/>
      <point x="448" y="-4"/>
      <point x="530" y="82"/>
      <point x="526" y="229" type="curve"/>
      <point x="526" y="312" type="line"/>
    </contour>
  </outline>
</glyph>
<glyph name="Y" format="2">
  <advance width="495"/>
  <unicode hex="0059"/>
  <anchor x="238" y="184" name="center"/>
  <anchor x="239" y="637" name="top"/>
  <outline>
    <contour>
      <point x="466" y="637" type="line"/>
      <point x="440" y="637" type="line"/>
      <point x="429" y="611" type="line"/>
      <point x="241" y="277" type="line"/>
      <point x="236" y="277" type="line"/>
      <point x="63" y="611" type="line"/>
      <point x="52" y="637" type="line"/>
      <point x="26" y="637" type="line"/>
      <point x="234" y="234" type="line"/>
      <point x="242" y="234" type="line"/>
    </contour>
    <contour>
      <point x="248" y="267" type="line"/>
      <point x="228" y="267" type="line"/>
      <point x="228" y="195" type="line"/>
      <point x="228" y="0" type="line"/>
      <point x="248" y="0" type="line"/>
      <point x="248" y="195" type="line"/>
    </contour>
  </outline>
</glyph>
<glyph name="underscore" format="2">
  <advance width="455"/>
  <unicode hex="005F"/>
  <outline>
    <contour>
      <point x="467" y="-86" type="line"/>
      <point x="-13" y="-86" type="line"/>
      <point x="-15" y="-103" type="line"/>
      <point x="-12" y="-106" type="line"/>
      <point x="468" y="-106" type="line"/>
      <point x="470" y="-89" type="line"/>
    </contour>
  </outline>
</glyph>
<glyph name="d" format="2">
  <advance width="507"/>
  <unicode hex="0064"/>
  <anchor x="254" y="0" name="bottom"/>
  <anchor x="254" y="226" name="center"/>
  <anchor x="254" y="452" name="top"/>
  <anchor x="487" y="452" name="topright"/>
  <outline>
    <contour>
      <point x="396" y="702" type="line"/>
      <point x="376" y="698" type="line"/>
      <point x="376" y="440" type="line"/>
      <point x="339" y="451"/>
      <point x="302" y="457"/>
      <point x="268" y="457" type="curve" smooth="yes"/>
      <point x="133" y="457"/>
      <point x="56" y="370"/>
      <point x="56" y="217" type="curve" smooth="yes"/>
      <point x="56" y="77"/>
      <point x="126" y="-5"/>
      <point x="229" y="-5" type="curve" smooth="yes"/>
      <point x="287" y="-5"/>
      <point x="332" y="21"/>
      <point x="373" y="69" type="curve"/>
      <point x="376" y="69" type="line"/>
      <point x="377" y="18"/>
      <point x="395" y="-3"/>
      <point x="430" y="-3" type="curve" smooth="yes"/>
      <point x="446" y="-3"/>
      <point x="461" y="2"/>
      <point x="474" y="11" type="curve"/>
      <point x="478" y="29" type="line"/>
      <point x="472" y="32" type="line"/>
      <point x="460" y="22"/>
      <point x="444" y="17"/>
      <point x="431" y="17" type="curve" smooth="yes"/>
      <point x="406" y="17"/>
      <point x="396" y="35"/>
      <point x="396" y="75" type="curve" smooth="yes"/>
      <point x="396" y="195" type="line"/>
    </contour>
    <contour>
      <point x="268" y="437" type="curve" smooth="yes"/>
      <point x="304" y="437"/>
      <point x="341" y="430"/>
      <point x="376" y="418" type="curve"/>
      <point x="376" y="194" type="line"/>
      <point x="376" y="101" type="line"/>
      <point x="335" y="44"/>
      <point x="287" y="15"/>
      <point x="230" y="15" type="curve" smooth="yes"/>
      <point x="139" y="15"/>
      <point x="76" y="89"/>
      <point x="76" y="217" type="curve" smooth="yes"/>
      <point x="76" y="357"/>
      <point x="146" y="437"/>
    </contour>
  </outline>
</glyph>
<glyph name="h" format="2">
  <advance width="506"/>
  <unicode hex="0068"/>
  <anchor x="253" y="0" name="bottom"/>
  <anchor x="255" y="226" name="center"/>
  <anchor x="115" y="640" name="top"/>
  <anchor x="210" y="452" name="topright"/>
  <outline>
    <contour>
      <point x="285" y="457" type="curve" smooth="yes"/>
      <point x="235" y="457"/>
      <point x="178" y="427"/>
      <point x="129" y="374" type="curve"/>
      <point x="123" y="374" type="line"/>
      <point x="124" y="340" type="line"/>
      <point x="174" y="401"/>
      <point x="233" y="437"/>
      <point x="285" y="437" type="curve" smooth="yes"/>
      <point x="355" y="437"/>
      <point x="396" y="394"/>
      <point x="396" y="320" type="curve" smooth="yes"/>
      <point x="394" y="0" type="line"/>
      <point x="414" y="0" type="line"/>
      <point x="415" y="194" type="line"/>
      <point x="416" y="321" type="line" smooth="yes"/>
      <point x="417" y="407"/>
      <point x="369" y="457"/>
    </contour>
    <contour>
      <point x="125" y="702" type="line"/>
      <point x="105" y="698" type="line"/>
      <point x="105" y="195" type="line"/>
      <point x="105" y="0" type="line"/>
      <point x="125" y="0" type="line"/>
      <point x="125" y="195" type="line"/>
    </contour>
  </outline>
</glyph>
<glyph name="k" format="2">
  <advance width="418"/>
  <unicode hex="006B"/>
  <anchor x="238" y="0" name="bottom"/>
  <anchor x="115" y="640" name="top"/>
  <anchor x="210" y="452" name="topright"/>
  <outline>
    <contour>
      <point x="392" y="452" type="line"/>
      <point x="361" y="452" type="line"/>
      <point x="332" y="418" type="line"/>
      <point x="155" y="243" type="line"/>
      <point x="155" y="238" type="line"/>
      <point x="230" y="154"/>
      <point x="309" y="72"/>
      <point x="389" y="-6" type="curve"/>
      <point x="393" y="-7" type="line"/>
      <point x="398" y="-5"/>
      <point x="405" y="-3"/>
      <point x="408" y="1" type="curve"/>
      <point x="408" y="5" type="line"/>
      <point x="331" y="79"/>
      <point x="254" y="159"/>
      <point x="181" y="241" type="curve"/>
    </contour>
    <contour>
      <point x="125" y="702" type="line"/>
      <point x="105" y="698" type="line"/>
      <point x="105" y="195" type="line"/>
      <point x="105" y="0" type="line"/>
      <point x="125" y="0" type="line"/>
      <point x="125" y="195" type="line"/>
    </contour>
  </outline>
</glyph>
<glyph name="m" format="2">
  <advance width="788"/>
  <unicode hex="006D"/>
  <anchor x="394" y="0" name="bottom"/>
  <anchor x="394" y="452" name="top"/>
  <outline>
    <contour>
      <point x="568" y="457" type="curve" smooth="yes"/>
      <point x="518" y="457"/>
      <point x="459" y="425"/>
      <point x="409" y="370" type="curve"/>
      <point x="394" y="370" type="line"/>
      <point x="408" y="344" type="line"/>
      <point x="458" y="403"/>
      <point x="516" y="437"/>
      <point x="568" y="437" type="curve" smooth="yes"/>
      <point x="637" y="437"/>
      <point x="678" y="394"/>
      <point x="678" y="320" type="curve" smooth="yes"/>
      <point x="676" y="0" type="line"/>
      <point x="696" y="0" type="line"/>
      <point x="698" y="194" type="line"/>
      <point x="698" y="321" type="line" smooth="yes"/>
      <point x="698" y="407"/>
      <point x="651" y="457"/>
    </contour>
    <contour>
      <point x="120" y="453" type="line"/>
      <point x="100" y="449" type="line"/>
      <point x="100" y="196" type="line"/>
      <point x="100" y="0" type="line"/>
      <point x="120" y="0" type="line"/>
      <point x="121" y="196" type="line"/>
    </contour>
    <contour>
      <point x="280" y="457" type="curve" smooth="yes"/>
      <point x="230" y="457"/>
      <point x="174" y="427"/>
      <point x="125" y="374" type="curve"/>
      <point x="119" y="374" type="line"/>
      <point x="120" y="340" type="line"/>
      <point x="170" y="401"/>
      <point x="228" y="437"/>
      <point x="280" y="437" type="curve" smooth="yes"/>
      <point x="349" y="437"/>
      <point x="390" y="394"/>
      <point x="390" y="320" type="curve" smooth="yes"/>
      <point x="388" y="0" type="line"/>
      <point x="408" y="0" type="line"/>
      <point x="410" y="194" type="line"/>
      <point x="410" y="321" type="line" smooth="yes"/>
      <point x="410" y="407"/>
      <point x="363" y="457"/>
    </contour>
  </outline>
</glyph>
<glyph name="p" format="2">
  <advance width="498"/>
  <unicode hex="0070"/>
  <anchor x="248" y="0" name="bottom"/>
  <anchor x="248" y="452" name="top"/>
  <outline>
    <contour>
      <point x="271" y="457" type="curve" smooth="yes"/>
      <point x="216" y="457"/>
      <point x="162" y="431"/>
      <point x="123" y="386" type="curve"/>
      <point x="100" y="386" type="line"/>
      <point x="110" y="340" type="line"/>
      <point x="152" y="402"/>
      <point x="210" y="437"/>
      <point x="271" y="437" type="curve" smooth="yes"/>
      <point x="366" y="437"/>
      <point x="420" y="365"/>
      <point x="420" y="238" type="curve" smooth="yes"/>
      <point x="420" y="96"/>
      <point x="350" y="15"/>
      <point x="228" y="15" type="curve" smooth="yes"/>
      <point x="195" y="15"/>
      <point x="150" y="20"/>
      <point x="107" y="29" type="curve"/>
      <point x="100" y="10" type="line"/>
      <point x="134" y="0"/>
      <point x="181" y="-5"/>
      <point x="228" y="-5" type="curve" smooth="yes"/>
      <point x="363" y="-5"/>
      <point x="440" y="84"/>
      <point x="440" y="238" type="curve" smooth="yes"/>
      <point x="440" y="377"/>
      <point x="378" y="457"/>
    </contour>
    <contour>
      <point x="120" y="453" type="line"/>
      <point x="100" y="449" type="line"/>
      <point x="100" y="196" type="line"/>
      <point x="100" y="-185" type="line"/>
      <point x="120" y="-185" type="line"/>
      <point x="120" y="196" type="line"/>
    </contour>
  </outline>
</glyph>
<glyph name="s" format="2">
  <advance width="357"/>
  <unicode hex="0073"/>
  <anchor x="160" y="0" name="bottom"/>
  <anchor x="175" y="452" name="top"/>
  <outline>
    <contour>
      <point x="193" y="455" type="curve" smooth="yes"/>
      <point x="113" y="455"/>
      <point x="60" y="408"/>
      <point x="60" y="343" type="curve" smooth="yes"/>
      <point x="60" y="210"/>
      <point x="282" y="229"/>
      <point x="282" y="116" type="curve" smooth="yes"/>
      <point x="282" y="65"/>
      <point x="237" y="15"/>
      <point x="159" y="15" type="curve" smooth="yes"/>
      <point x="121" y="15"/>
      <point x="84" y="27"/>
      <point x="53" y="50" type="curve"/>
      <point x="48" y="47" type="line"/>
      <point x="45" y="30" type="line"/>
      <point x="76" y="8"/>
      <point x="119" y="-5"/>
      <point x="160" y="-5" type="curve" smooth="yes"/>
      <point x="244" y="-5"/>
      <point x="302" y="51"/>
      <point x="302" y="117" type="curve" smooth="yes"/>
      <point x="302" y="246"/>
      <point x="80" y="228"/>
      <point x="80" y="342" type="curve" smooth="yes"/>
      <point x="80" y="393"/>
      <point x="124" y="435"/>
      <point x="192" y="435" type="curve" smooth="yes"/>
      <point x="216" y="435"/>
      <point x="245" y="430"/>
      <point x="276" y="415" type="curve"/>
      <point x="282" y="416" type="line"/>
      <point x="287" y="435" type="line"/>
      <point x="251" y="450"/>
      <point x="219" y="455"/>
    </contour>
  </outline>
</glyph>
<glyph name="w" format="2">
  <advance width="632"/>
  <unicode hex="0077"/>
  <anchor x="318" y="452" name="top"/>
  <outline>
    <contour>
      <point x="40" y="454" type="line"/>
      <point x="19" y="450" type="line"/>
      <point x="154" y="0" type="line"/>
      <point x="176" y="0" type="line"/>
      <point x="318" y="416" type="line"/>
      <point x="322" y="416" type="line"/>
      <point x="445" y="0" type="line"/>
      <point x="467" y="0" type="line"/>
      <point x="625" y="452" type="line"/>
      <point x="602" y="452" type="line"/>
      <point x="588" y="409" type="line"/>
      <point x="459" y="32" type="line"/>
      <point x="455" y="32" type="line"/>
      <point x="344" y="409" type="line"/>
      <point x="333" y="452" type="line"/>
      <point x="310" y="452" type="line"/>
      <point x="296" y="409" type="line"/>
      <point x="168" y="32" type="line"/>
      <point x="164" y="32" type="line"/>
      <point x="52" y="409" type="line"/>
    </contour>
  </outline>
</glyph>
<glyph name="braceleft" format="2">
  <advance width="281"/>
  <unicode hex="007B"/>
  <outline>
    <contour>
      <point x="223" y="653" type="curve" smooth="yes"/>
      <point x="161" y="653"/>
      <point x="129" y="617"/>
      <point x="129" y="546" type="curve" smooth="yes"/>
      <point x="129" y="488"/>
      <point x="148" y="404"/>
      <point x="148" y="357" type="curve" smooth="yes"/>
      <point x="148" y="300"/>
      <point x="119" y="270"/>
      <point x="54" y="262" type="curve"/>
      <point x="54" y="244" type="line"/>
      <point x="119" y="236"/>
      <point x="148" y="206"/>
      <point x="148" y="149" type="curve" smooth="yes"/>
      <point x="148" y="102"/>
      <point x="129" y="18"/>
      <point x="129" y="-40" type="curve" smooth="yes"/>
      <point x="129" y="-111"/>
      <point x="161" y="-147"/>
      <point x="223" y="-147" type="curve" smooth="yes"/>
      <point x="238" y="-147"/>
      <point x="249" y="-145"/>
      <point x="260" y="-142" type="curve"/>
      <point x="263" y="-139" type="line"/>
      <point x="259" y="-122" type="line"/>
      <point x="243" y="-125"/>
      <point x="233" y="-127"/>
      <point x="220" y="-127" type="curve" smooth="yes"/>
      <point x="172" y="-127"/>
      <point x="149" y="-101"/>
      <point x="149" y="-40" type="curve" smooth="yes"/>
      <point x="149" y="16"/>
      <point x="168" y="100"/>
      <point x="168" y="149" type="curve" smooth="yes"/>
      <point x="168" y="201"/>
      <point x="146" y="235"/>
      <point x="102" y="252" type="curve"/>
      <point x="102" y="254" type="line"/>
      <point x="146" y="271"/>
      <point x="168" y="305"/>
      <point x="168" y="357" type="curve" smooth="yes"/>
      <point x="168" y="406"/>
      <point x="149" y="490"/>
      <point x="149" y="546" type="curve" smooth="yes"/>
      <point x="149" y="607"/>
      <point x="172" y="633"/>
      <point x="220" y="633" type="curve" smooth="yes"/>
      <point x="233" y="633"/>
      <point x="243" y="631"/>
      <point x="259" y="628" type="curve"/>
      <point x="263" y="645" type="line"/>
      <point x="260" y="648" type="line"/>
      <point x="249" y="651"/>
      <point x="238" y="653"/>
    </contour>
  </outline>
</glyph>
<glyph name="section" format="2">
  <advance width="407"/>
  <unicode hex="00A7"/>
  <outline>
    <contour>
      <point x="163" y="441" type="line"/>
      <point x="102" y="410"/>
      <point x="60" y="363"/>
      <point x="60" y="309" type="curve" smooth="yes"/>
      <point x="60" y="183"/>
      <point x="282" y="127"/>
      <point x="282" y="15" type="curve" smooth="yes"/>
      <point x="282" y="-35"/>
      <point x="237" y="-85"/>
      <point x="159" y="-85" type="curve" smooth="yes"/>
      <point x="121" y="-85"/>
      <point x="84" y="-73"/>
      <point x="53" y="-50" type="curve"/>
      <point x="48" y="-53" type="line"/>
      <point x="45" y="-70" type="line"/>
      <point x="76" y="-92"/>
      <point x="119" y="-105"/>
      <point x="159" y="-105" type="curve" smooth="yes"/>
      <point x="243" y="-105"/>
      <point x="302" y="-49"/>
      <point x="302" y="16" type="curve" smooth="yes"/>
      <point x="302" y="141"/>
      <point x="80" y="198"/>
      <point x="80" y="308" type="curve" smooth="yes"/>
      <point x="80" y="350"/>
      <point x="114" y="396"/>
      <point x="176" y="426" type="curve"/>
    </contour>
    <contour>
      <point x="246" y="640" type="curve" smooth="yes"/>
      <point x="167" y="640"/>
      <point x="110" y="587"/>
      <point x="110" y="524" type="curve" smooth="yes"/>
      <point x="110" y="401"/>
      <point x="332" y="347"/>
      <point x="332" y="230" type="curve" smooth="yes"/>
      <point x="332" y="188"/>
      <point x="302" y="147"/>
      <point x="236" y="117" type="curve"/>
      <point x="250" y="102" type="line"/>
      <point x="316" y="134"/>
      <point x="352" y="179"/>
      <point x="352" y="231" type="curve" smooth="yes"/>
      <point x="352" y="360"/>
      <point x="130" y="417"/>
      <point x="130" y="523" type="curve" smooth="yes"/>
      <point x="130" y="569"/>
      <point x="171" y="620"/>
      <point x="244" y="620" type="curve" smooth="yes"/>
      <point x="267" y="620"/>
      <point x="296" y="615"/>
      <point x="327" y="600" type="curve"/>
      <point x="333" y="601" type="line"/>
      <point x="338" y="620" type="line"/>
      <point x="302" y="635"/>
      <point x="270" y="640"/>
    </contour>
  </outline>
</glyph>
<glyph name="copyright" format="2">
  <advance width="682"/>
  <unicode hex="00A9"/>
  <outline>
    <contour>
      <point x="340" y="598" type="curve" smooth="yes"/>
      <point x="165" y="598"/>
      <point x="49" y="476"/>
      <point x="49" y="293" type="curve" smooth="yes"/>
      <point x="49" y="110"/>
      <point x="165" y="-12"/>
      <point x="340" y="-12" type="curve" smooth="yes"/>
      <point x="515" y="-12"/>
      <point x="632" y="110"/>
      <point x="632" y="293" type="curve" smooth="yes"/>
      <point x="632" y="476"/>
      <point x="515" y="598"/>
    </contour>
    <contour>
      <point x="349" y="465" type="curve" smooth="yes"/>
      <point x="252" y="465"/>
      <point x="199" y="404"/>
      <point x="199" y="295" type="curve" smooth="yes"/>
      <point x="199" y="186"/>
      <point x="249" y="125"/>
      <point x="343" y="125" type="curve" smooth="yes"/>
      <point x="377" y="125"/>
      <point x="414" y="138"/>
      <point x="445" y="157" type="curve"/>
      <point x="447" y="176" type="line"/>
      <point x="443" y="177" type="line"/>
      <point x="414" y="156"/>
      <point x="377" y="145"/>
      <point x="344" y="145" type="curve" smooth="yes"/>
      <point x="264" y="145"/>
      <point x="219" y="198"/>
      <point x="219" y="295" type="curve" smooth="yes"/>
      <point x="219" y="392"/>
      <point x="265" y="445"/>
      <point x="349" y="445" type="curve" smooth="yes"/>
      <point x="381" y="445"/>
      <point x="413" y="436"/>
      <point x="437" y="418" type="curve"/>
      <point x="442" y="418" type="line"/>
      <point x="447" y="436" type="line"/>
      <point x="419" y="454"/>
      <point x="384" y="465"/>
    </contour>
    <contour>
      <point x="340" y="578" type="curve" smooth="yes"/>
      <point x="503" y="578"/>
      <point x="612" y="464"/>
      <point x="612" y="293" type="curve" smooth="yes"/>
      <point x="612" y="122"/>
      <point x="503" y="8"/>
      <point x="340" y="8" type="curve" smooth="yes"/>
      <point x="177" y="8"/>
      <point x="69" y="122"/>
      <point x="69" y="293" type="curve" smooth="yes"/>
      <point x="69" y="464"/>
      <point x="177" y="578"/>
    </contour>
  </outline>
</glyph>
<glyph name="Eth" format="2">
  <advance width="654"/>
  <unicode hex="00D0"/>
  <outline>
    <contour>
      <point x="328" y="642" type="curve"/>
      <point x="127" y="637" type="line"/>
      <point x="138" y="617" type="line"/>
      <point x="165" y="618"/>
      <point x="305" y="622"/>
      <point x="328" y="622" type="curve" smooth="yes"/>
      <point x="494" y="622"/>
      <point x="586" y="521"/>
      <point x="586" y="339" type="curve" smooth="yes"/>
      <point x="586" y="131"/>
      <point x="490" y="15"/>
      <point x="318" y="15" type="curve" smooth="yes"/>
      <point x="293" y="15"/>
      <point x="172" y="18"/>
      <point x="138" y="20" type="curve"/>
      <point x="127" y="0" type="line"/>
      <point x="171" y="-2"/>
      <point x="293" y="-5"/>
      <point x="318" y="-5" type="curve"/>
      <point x="503" y="-5"/>
      <point x="606" y="118"/>
      <point x="606" y="339" type="curve" smooth="yes"/>
      <point x="606" y="534"/>
      <point x="507" y="642"/>
    </contour>
    <contour>
      <point x="147" y="637" type="line"/>
      <point x="127" y="637" type="line"/>
      <point x="127" y="195" type="line"/>
      <point x="127" y="0" type="line"/>
      <point x="147" y="0" type="line"/>
      <point x="147" y="195" type="line"/>
    </contour>
    <contour>
      <point x="319.4" y="339" type="line"/>
      <point x="9.2" y="339" type="line"/>
      <point x="8.0" y="322" type="line"/>
      <point x="9.8" y="319" type="line"/>
      <point x="320.0" y="319" type="line"/>
      <point x="321.2" y="336" type="line"/>
    </contour>
  </outline>
</glyph>
<glyph name="multiply" format="2">
  <advance width="480"/>
  <unicode hex="00D7"/>
  <outline>
    <contour>
      <point x="374" y="418" type="line"/>
      <point x="240" y="284" type="line"/>
      <point x="106" y="418" type="line"/>
      <point x="93" y="407" type="line"/>
      <point x="93" y="403" type="line"/>
      <point x="226" y="270" type="line"/>
      <point x="93" y="137" type="line"/>
      <point x="93" y="133" type="line"/>
      <point x="106" y="122" type="line"/>
      <point x="240" y="256" type="line"/>
      <point x="374" y="122" type="line"/>
      <point x="387" y="133" type="line"/>
      <point x="387" y="137" type="line"/>
      <point x="254" y="270" type="line"/>
      <point x="387" y="403" type="line"/>
      <point x="387" y="407" type="line"/>
    </contour>
  </outline>
</glyph>
<glyph name="germandbls" format="2">
  <advance width="517"/>
  <unicode hex="00DF"/>
  <outline>
    <contour>
      <point x="280" y="704" type="curve" smooth="yes"/>
      <point x="177" y="704"/>
      <point x="117" y="638"/>
      <point x="117" y="520" type="curve" smooth="yes"/>
      <point x="117" y="190" type="line"/>
      <point x="117" y="0" type="line"/>
      <point x="137" y="0" type="line"/>
      <point x="137" y="192" type="line"/>
      <point x="137" y="520" type="line" smooth="yes"/>
      <point x="137" y="625"/>
      <point x="190" y="684"/>
      <point x="282" y="684" type="curve" smooth="yes"/>
      <point x="352" y="684"/>
      <point x="396" y="650"/>
      <point x="396" y="588" type="curve" smooth="yes"/>
      <point x="396" y="482"/>
      <point x="265" y="471"/>
      <point x="265" y="364" type="curve" smooth="yes"/>
      <point x="265" y="229"/>
      <point x="477" y="229"/>
      <point x="477" y="116" type="curve" smooth="yes"/>
      <point x="477" y="65"/>
      <point x="432" y="15"/>
      <point x="354" y="15" type="curve" smooth="yes"/>
      <point x="316" y="15"/>
      <point x="279" y="27"/>
      <point x="248" y="50" type="curve"/>
      <point x="243" y="47" type="line"/>
      <point x="240" y="30" type="line"/>
      <point x="271" y="8"/>
      <point x="314" y="-5"/>
      <point x="355" y="-5" type="curve" smooth="yes"/>
      <point x="440" y="-5"/>
      <point x="497" y="51"/>
      <point x="497" y="118" type="curve" smooth="yes"/>
      <point x="497" y="246"/>
      <point x="285" y="244"/>
      <point x="285" y="365" type="curve" smooth="yes"/>
      <point x="285" y="460"/>
      <point x="416" y="471"/>
      <point x="416" y="590" type="curve" smooth="yes"/>
      <point x="416" y="662"/>
      <point x="363" y="704"/>
    </contour>
    <contour>
      <point x="132" y="452" type="line"/>
      <point x="49" y="452" type="line"/>
      <point x="46" y="436" type="line"/>
      <point x="50" y="432" type="line"/>
      <point x="132" y="432" type="line"/>
      <point x="135" y="448" type="line"/>
    </contour>
  </outline>
</glyph>
<glyph name="oslash" format="2">
  <advance width="487"/>
  <unicode hex="00F8"/>
  <anchor x="244" y="0" name="bottom"/>
  <anchor x="244" y="226" name="center"/>
  <anchor x="334" y="23" name="ogonek"/>
  <anchor x="243" y="452" name="top"/>
  <anchor x="467" y="452" name="topright"/>
  <outline>
    <contour>
      <point x="383" y="528" type="line"/>
      <point x="368" y="530" type="line"/>
      <point x="88" y="-100" type="line"/>
      <point x="90" y="-104" type="line"/>
      <point x="106" y="-107" type="line"/>
      <point x="385" y="523" type="line"/>
    </contour>
    <contour>
      <point x="246" y="457" type="curve" smooth="yes"/>
      <point x="128" y="457"/>
      <point x="56" y="368"/>
      <point x="56" y="222" type="curve" smooth="yes"/>
      <point x="56" y="81"/>
      <point x="125" y="-5"/>
      <point x="239" y="-5" type="curve" smooth="yes"/>
      <point x="357" y="-5"/>
      <point x="429" y="84"/>
      <point x="429" y="230" type="curve" smooth="yes"/>
      <point x="429" y="371"/>
      <point x="360" y="457"/>
    </contour>
    <contour>
      <point x="246" y="437" type="curve" smooth="yes"/>
      <point x="347" y="437"/>
      <point x="409" y="359"/>
      <point x="409" y="230" type="curve" smooth="yes"/>
      <point x="409" y="96"/>
      <point x="345" y="15"/>
      <point x="239" y="15" type="curve" smooth="yes"/>
      <point x="138" y="15"/>
      <point x="76" y="93"/>
      <point x="76" y="222" type="curve" smooth="yes"/>
      <point x="76" y="356"/>
      <point x="140" y="437"/>
    </contour>
  </outline>
</glyph>
<glyph name="Lcaron" format="2">
  <advance width="409"/>
  <unicode hex="013D"/>
  <anchor x="236" y="0" name="bottom"/>
  <anchor x="119" y="637" name="top"/>
  <outline>
    <contour>
      <point x="216" y="197" type="move"/>
    </contour>
    <contour>
      <point x="129" y="637" type="line"/>
      <point x="109" y="637" type="line"/>
      <point x="109" y="195" type="line"/>
      <point x="109" y="0" type="line"/>
      <point x="129" y="0" type="line"/>
      <point x="129" y="195" type="line"/>
    </contour>
    <contour>
      <point x="390" y="20" type="line"/>
      <point x="120" y="20" type="line"/>
      <point x="116" y="4" type="line"/>
      <point x="120" y="0" type="line"/>
      <point x="389" y="0" type="line"/>
      <point x="393" y="16" type="line"/>
    </contour>
    <contour>
      <point x="352" y="579" type="line"/>
      <point x="335" y="577" type="line"/>
      <point x="323" y="433" type="line"/>
      <point x="326" y="429" type="line"/>
      <point x="343" y="431" type="line"/>
      <point x="355" y="575" type="line"/>
    </contour>
  </outline>
</glyph>
<glyph name="lcaron" format="2">
  <advance width="250"/>
  <unicode hex="013E"/>
  <anchor x="115" y="0" name="bottom"/>
  <anchor x="115" y="680" name="top"/>
  <anchor x="210" y="452" name="topright"/>
  <outline>
    <contour>
      <point x="150" y="182" type="move"/>
    </contour>
    <contour>
      <point x="125" y="702" type="line"/>
      <point x="105" y="698" type="line"/>
      <point x="105" y="195" type="line"/>
      <point x="105" y="0" type="line"/>
      <point x="125" y="0" type="line"/>
      <point x="125" y="195" type="line"/>
    </contour>
    <contour>
      <point x="240" y="645" type="line"/>
      <point x="223" y="643" type="line"/>
      <point x="211" y="499" type="line"/>
      <point x="214" y="495" type="line"/>
      <point x="231" y="497" type="line"/>
      <point x="243" y="641" type="line"/>
    </contour>
  </outline>
</glyph>
<glyph name="lslash" format="2">
  <advance width="230"/>
  <unicode hex="0142"/>
  <anchor x="115" y="0" name="bottom"/>
  <anchor x="115" y="680" name="top"/>
  <anchor x="210" y="452" name="topright"/>
  <outline>
    <contour>
      <point x="221" y="459" type="line"/>
      <point x="121" y="407" type="line"/>
      <point x="110" y="402" type="line"/>
      <point x="2" y="346" type="line"/>
      <point x="7" y="331" type="line"/>
      <point x="12" y="328" type="line"/>
      <point x="110" y="379" type="line"/>
      <point x="121" y="384" type="line"/>
      <point x="231" y="442" type="line"/>
      <point x="226" y="457" type="line"/>
    </contour>
    <contour>
      <point x="125" y="702" type="line"/>
      <point x="105" y="698" type="line"/>
      <point x="105" y="195" type="line"/>
      <point x="105" y="0" type="line"/>
      <point x="125" y="0" type="line"/>
      <point x="125" y="195" type="line"/>
    </contour>
  </outline>
</glyph>
<glyph name="Eng" format="2">
  <advance width="670"/>
  <unicode hex="014A"/>
  <outline>
    <contour>
      <point x="560" y="638" type="line"/>
      <point x="540" y="636" type="line"/>
      <point x="538" y="42" type="line"/>
      <point x="534" y="42" type="line"/>
      <point x="130" y="637" type="line"/>
      <point x="111" y="637" type="line"/>
      <point x="110" y="190" type="line"/>
      <point x="110" y="0" type="line"/>
      <point x="130" y="0" type="line"/>
      <point x="130" y="199" type="line"/>
      <point x="131" y="595" type="line"/>
      <point x="135" y="595" type="line"/>
      <point x="535.474" y="5.193" type="line"/>
      <point x="526.508" y="-47"/>
      <point x="492.663" y="-83"/>
      <point x="418" y="-127" type="curve"/>
      <point x="418" y="-133" type="line"/>
      <point x="429" y="-144" type="line"/>
      <point x="524" y="-88"/>
      <point x="558" y="-40"/>
      <point x="558" y="39" type="curve" smooth="yes"/>
      <point x="559" y="176" type="line"/>
    </contour>
  </outline>
</glyph>
<glyph name="eng" format="2">
  <advance width="505"/>
  <unicode hex="014B"/>
  <outline>
    <contour>
      <point x="280" y="457" type="curve" smooth="yes"/>
      <point x="230" y="457"/>
      <point x="173" y="427"/>
      <point x="124" y="374" type="curve"/>
      <point x="118" y="374" type="line"/>
      <point x="119" y="340" type="line"/>
      <point x="169" y="401"/>
      <point x="228" y="437"/>
      <point x="280" y="437" type="curve" smooth="yes"/>
      <point x="350" y="437"/>
      <point x="391" y="394"/>
      <point x="391" y="320" type="curve" smooth="yes"/>
      <point x="391" y="8" type="line" smooth="yes"/>
      <point x="391" y="-83"/>
      <point x="372" y="-125"/>
      <point x="310" y="-175" type="curve"/>
      <point x="310" y="-181" type="line"/>
      <point x="321" y="-192" type="line"/>
      <point x="390" y="-138"/>
      <point x="411" y="-92"/>
      <point x="411" y="12" type="curve" smooth="yes"/>
      <point x="411" y="196" type="line"/>
      <point x="411" y="321" type="line" smooth="yes"/>
      <point x="411" y="407"/>
      <point x="364" y="457"/>
    </contour>
    <contour>
      <point x="120" y="453" type="line"/>
      <point x="100" y="449" type="line"/>
      <point x="100" y="196" type="line"/>
      <point x="100" y="0" type="line"/>
      <point x="120" y="0" type="line"/>
      <point x="120" y="196" type="line"/>
    </contour>
  </outline>
</glyph>
<glyph name="oe" format="2">
  <advance width="780"/>
  <unicode hex="0153"/>
  <anchor x="458" y="452" name="top"/>
  <outline>
    <contour>
      <point x="239" y="457" type="curve" smooth="yes"/>
      <point x="121" y="457"/>
      <point x="49" y="368"/>
      <point x="49" y="222" type="curve" smooth="yes"/>
      <point x="49" y="81"/>
      <point x="118" y="-5"/>
      <point x="232" y="-5" type="curve" smooth="yes"/>
      <point x="350" y="-5"/>
      <point x="421" y="84"/>
      <point x="421" y="230" type="curve" smooth="yes"/>
      <point x="421" y="371"/>
      <point x="353" y="457"/>
    </contour>
    <contour>
      <point x="239" y="437" type="curve" smooth="yes"/>
      <point x="340" y="437"/>
      <point x="402" y="359"/>
      <point x="402" y="230" type="curve" smooth="yes"/>
      <point x="402" y="96"/>
      <point x="338" y="15"/>
      <point x="232" y="15" type="curve" smooth="yes"/>
      <point x="131" y="15"/>
      <point x="69" y="93"/>
      <point x="69" y="222" type="curve" smooth="yes"/>
      <point x="69" y="356"/>
      <point x="133" y="437"/>
    </contour>
    <contour>
      <point x="588" y="457" type="curve" smooth="yes"/>
      <point x="475" y="457"/>
      <point x="403" y="365"/>
      <point x="403" y="221" type="curve" smooth="yes"/>
      <point x="403" y="84"/>
      <point x="470" y="-5"/>
      <point x="582" y="-5" type="curve" smooth="yes"/>
      <point x="631" y="-5"/>
      <point x="675" y="12"/>
      <point x="710" y="39" type="curve"/>
      <point x="713" y="59" type="line"/>
      <point x="707" y="61" type="line"/>
      <point x="675" y="31"/>
      <point x="629" y="15"/>
      <point x="584" y="15" type="curve" smooth="yes"/>
      <point x="482" y="15"/>
      <point x="422" y="97"/>
      <point x="422" y="221" type="curve" smooth="yes"/>
      <point x="422" y="353"/>
      <point x="487" y="437"/>
      <point x="587" y="437" type="curve" smooth="yes"/>
      <point x="666" y="437"/>
      <point x="715" y="384"/>
      <point x="715" y="296" type="curve"/>
      <point x="714" y="282" type="line"/>
      <point x="411" y="272" type="line"/>
      <point x="411" y="252" type="line"/>
      <point x="727" y="262" type="line"/>
      <point x="733" y="269" type="line"/>
      <point x="734" y="277"/>
      <point x="735" y="290"/>
      <point x="735" y="296" type="curve" smooth="yes"/>
      <point x="735" y="396"/>
      <point x="679" y="457"/>
    </contour>
  </outline>
</glyph>
<glyph name="Tcedilla" format="2">
  <advance width="475"/>
  <unicode hex="0162"/>
  <anchor x="234" y="-178" name="bottom"/>
  <anchor x="242" y="319" name="center"/>
  <anchor x="242" y="637" name="top"/>
  <outline>
    <contour>
      <point x="248" y="627" type="line"/>
      <point x="228" y="627" type="line"/>
      <point x="228" y="195" type="line"/>
      <point x="228" y="0" type="line"/>
      <point x="248" y="0" type="line"/>
      <point x="248" y="195" type="line"/>
    </contour>
    <contour>
      <point x="444" y="637" type="line"/>
      <point x="32" y="637" type="line"/>
      <point x="28" y="621" type="line"/>
      <point x="31" y="617" type="line"/>
      <point x="135" y="617" type="line"/>
      <point x="342" y="617" type="line"/>
      <point x="443" y="617" type="line"/>
      <point x="447" y="633" type="line"/>
    </contour>
    <contour>
      <point x="248" y="0" type="line"/>
      <point x="228" y="0" type="line"/>
      <point x="205" y="-64" type="line"/>
      <point x="249" y="-92" type="line" smooth="yes"/>
      <point x="264" y="-102"/>
      <point x="273" y="-109"/>
      <point x="273" y="-125" type="curve" smooth="yes"/>
      <point x="273" y="-146"/>
      <point x="257" y="-158"/>
      <point x="233" y="-158" type="curve" smooth="yes"/>
      <point x="208" y="-158"/>
      <point x="196" y="-145"/>
      <point x="184" y="-127" type="curve"/>
      <point x="180" y="-127" type="line"/>
      <point x="174" y="-145" type="line"/>
      <point x="184" y="-160"/>
      <point x="203" y="-178"/>
      <point x="233" y="-178" type="curve" smooth="yes"/>
      <point x="265" y="-178"/>
      <point x="293" y="-158"/>
      <point x="293" y="-125" type="curve" smooth="yes"/>
      <point x="293" y="-103"/>
      <point x="282" y="-89"/>
      <point x="260" y="-75" type="curve" smooth="yes"/>
      <point x="229" y="-55" type="line"/>
    </contour>
  </outline>
</glyph>
<glyph name="longs" format="2">
  <advance width="243"/>
  <unicode hex="017F"/>
  <outline>
    <contour>
      <point x="239" y="704" type="curve" smooth="yes"/>
      <point x="160" y="704"/>
      <point x="117" y="653"/>
      <point x="117" y="560" type="curve" smooth="yes"/>
      <point x="117" y="190" type="line"/>
      <point x="117" y="0" type="line"/>
      <point x="137" y="0" type="line"/>
      <point x="137" y="192" type="line"/>
      <point x="137" y="560" type="line" smooth="yes"/>
      <point x="137" y="640"/>
      <point x="173" y="684"/>
      <point x="239" y="684" type="curve" smooth="yes"/>
      <point x="263" y="684"/>
      <point x="282" y="681"/>
      <point x="302" y="674" type="curve"/>
      <point x="305" y="676" type="line"/>
      <point x="307" y="695" type="line"/>
      <point x="282" y="701"/>
      <point x="260" y="704"/>
    </contour>
    <contour>
      <point x="127" y="432" type="line"/>
      <point x="127" y="452" type="line"/>
      <point x="49" y="452" type="line"/>
      <point x="46" y="436" type="line"/>
      <point x="50" y="432" type="line"/>
    </contour>
  </outline>
</glyph>
<glyph name="Schwa" format="2">
  <advance width="615"/>
  <unicode hex="018F"/>
  <anchor x="238" y="451" name="bottom"/>
  <anchor x="85" y="441" name="ogonek"/>
  <anchor x="243" y="0" name="top"/>
  <outline>
    <contour>
      <point x="302" y="641" type="curve" smooth="yes"/>
      <point x="232" y="641"/>
      <point x="159" y="620"/>
      <point x="101" y="583" type="curve"/>
      <point x="99" y="564" type="line"/>
      <point x="106" y="562" type="line"/>
      <point x="154" y="598"/>
      <point x="229" y="621"/>
      <point x="301" y="621" type="curve" smooth="yes"/>
      <point x="457" y="621"/>
      <point x="547" y="514"/>
      <point x="547" y="324" type="curve" smooth="yes"/>
      <point x="547" y="135"/>
      <point x="453" y="16"/>
      <point x="304" y="16" type="curve" smooth="yes"/>
      <point x="173" y="16"/>
      <point x="85" y="99"/>
      <point x="85" y="220" type="curve"/>
      <point x="86" y="252" type="line"/>
      <point x="552" y="257" type="line"/>
      <point x="552" y="278" type="line"/>
      <point x="76" y="272" type="line"/>
      <point x="69" y="263" type="line"/>
      <point x="67" y="250"/>
      <point x="66" y="235"/>
      <point x="66" y="221" type="curve" smooth="yes"/>
      <point x="66" y="86"/>
      <point x="162" y="-5"/>
      <point x="304" y="-5" type="curve" smooth="yes"/>
      <point x="465" y="-5"/>
      <point x="567" y="123"/>
      <point x="567" y="324" type="curve" smooth="yes"/>
      <point x="567" y="525"/>
      <point x="470" y="641"/>
    </contour>
  </outline>
</glyph>
<glyph name="gstroke" format="2">
  <advance width="507"/>
  <unicode hex="01E5"/>
  <anchor x="251" y="442" name="top"/>
  <outline>
    <contour>
      <point x="230" y="-192" type="curve" smooth="yes"/>
      <point x="337" y="-192"/>
      <point x="429" y="-128"/>
      <point x="429" y="-55" type="curve" smooth="yes"/>
      <point x="429" y="83"/>
      <point x="110" y="26"/>
      <point x="110" y="107" type="curve" smooth="yes"/>
      <point x="110" y="122"/>
      <point x="122" y="137"/>
      <point x="171" y="168" type="curve"/>
      <point x="146" y="179" type="line"/>
      <point x="146" y="171" type="line"/>
      <point x="115" y="150"/>
      <point x="93" y="130"/>
      <point x="89" y="111" type="curve"/>
      <point x="88" y="-3"/>
      <point x="409" y="67"/>
      <point x="409" y="-55" type="curve" smooth="yes"/>
      <point x="409" y="-114"/>
      <point x="328" y="-172"/>
      <point x="230" y="-172" type="curve" smooth="yes"/>
      <point x="143" y="-172"/>
      <point x="94" y="-128"/>
      <point x="94" y="-82" type="curve" smooth="yes"/>
      <point x="94" y="-32"/>
      <point x="149" y="6"/>
      <point x="218" y="40" type="curve"/>
      <point x="176" y="47" type="line"/>
      <point x="176" y="38" type="line"/>
      <point x="113" y="2"/>
      <point x="81" y="-30"/>
      <point x="74" y="-77" type="curve"/>
      <point x="74" y="-143"/>
      <point x="134" y="-192"/>
    </contour>
    <contour>
      <point x="29" y="-80" type="line"/>
      <point x="481" y="-80" type="line"/>
      <point x="482" y="-63" type="line"/>
      <point x="480" y="-60" type="line"/>
      <point x="28" y="-60" type="line"/>
      <point x="26" y="-77" type="line"/>
    </contour>
    <contour>
      <point x="240" y="150" type="curve" smooth="yes"/>
      <point x="337" y="150"/>
      <point x="397" y="209"/>
      <point x="397" y="304" type="curve" smooth="yes"/>
      <point x="397" y="398"/>
      <point x="339" y="456"/>
      <point x="243" y="456" type="curve" smooth="yes"/>
      <point x="144" y="456"/>
      <point x="85" y="398"/>
      <point x="85" y="301" type="curve" smooth="yes"/>
      <point x="85" y="208"/>
      <point x="142" y="150"/>
    </contour>
    <contour>
      <point x="240" y="170" type="curve" smooth="yes"/>
      <point x="155" y="170"/>
      <point x="104" y="219"/>
      <point x="104" y="301" type="curve" smooth="yes"/>
      <point x="104" y="386"/>
      <point x="157" y="436"/>
      <point x="243" y="436" type="curve" smooth="yes"/>
      <point x="326" y="436"/>
      <point x="378" y="387"/>
      <point x="378" y="304" type="curve" smooth="yes"/>
      <point x="378" y="219"/>
      <point x="324" y="170"/>
    </contour>
    <contour>
      <point x="354" y="403" type="line"/>
      <point x="360" y="416" type="line"/>
      <point x="394" y="422"/>
      <point x="430" y="429"/>
      <point x="469" y="439" type="curve"/>
      <point x="469" y="457" type="line"/>
      <point x="465" y="460" type="line"/>
      <point x="430" y="450"/>
      <point x="372" y="437"/>
      <point x="327" y="429" type="curve"/>
    </contour>
  </outline>
</glyph>
<glyph name="jdotless" format="2">
  <advance width="222"/>
  <unicode hex="0237"/>
  <anchor x="103" y="452" name="top"/>
  <outline>
    <contour>
      <point x="126" y="453" type="line"/>
      <point x="106" y="452" type="line"/>
      <point x="23" y="452" type="line"/>
      <point x="20" y="436" type="line"/>
      <point x="24" y="432" type="line"/>
      <point x="108" y="432" type="line"/>
      <point x="108" y="196" type="line"/>
      <point x="108" y="8" type="line"/>
      <point x="108" y="-83"/>
      <point x="89" y="-126"/>
      <point x="25" y="-176" type="curve"/>
      <point x="25" y="-182" type="line"/>
      <point x="35" y="-192" type="line"/>
      <point x="106" y="-138"/>
      <point x="128" y="-92"/>
      <point x="128" y="12" type="curve"/>
      <point x="128" y="196" type="line"/>
      <point x="128" y="451" type="line"/>
    </contour>
  </outline>
</glyph>
<glyph name="ezh" format="2">
  <advance width="369"/>
  <unicode hex="0292"/>
  <anchor x="185" y="0" name="bottom"/>
  <anchor x="163" y="452" name="top"/>
  <outline>
    <contour>
      <point x="94" y="-191" type="curve" smooth="yes"/>
      <point x="229" y="-191"/>
      <point x="319" y="-116"/>
      <point x="319" y="-2" type="curve" smooth="yes"/>
      <point x="319" y="80"/>
      <point x="262" y="132"/>
      <point x="141" y="158" type="curve" smooth="yes"/>
      <point x="95" y="168" type="line"/>
      <point x="92" y="166" type="line"/>
      <point x="90" y="151" type="line"/>
      <point x="92" y="148" type="line"/>
      <point x="134" y="138" type="line" smooth="yes"/>
      <point x="247" y="112"/>
      <point x="299" y="68"/>
      <point x="299" y="-1" type="curve" smooth="yes"/>
      <point x="299" y="-104"/>
      <point x="218" y="-171"/>
      <point x="95" y="-171" type="curve" smooth="yes"/>
      <point x="75" y="-171"/>
      <point x="49" y="-169"/>
      <point x="20" y="-164" type="curve"/>
      <point x="17" y="-167" type="line"/>
      <point x="21" y="-184" type="line"/>
      <point x="48" y="-189"/>
      <point x="74" y="-191"/>
    </contour>
    <contour>
      <point x="112" y="158" type="line"/>
      <point x="314" y="436" type="line"/>
      <point x="313" y="453" type="line"/>
      <point x="288" y="452" type="line"/>
      <point x="62" y="452" type="line"/>
      <point x="10" y="453" type="line"/>
      <point x="6" y="435" type="line"/>
      <point x="10" y="431" type="line"/>
      <point x="56" y="432" type="line"/>
      <point x="286" y="432" type="line"/>
      <point x="92" y="166" type="line"/>
    </contour>
  </outline>
</glyph>
<glyph name="ringhalfright" format="2">
  <advance width="249"/>
  <unicode hex="02BE"/>
  <outline>
    <contour>
      <point x="84" y="489" type="line"/>
      <point x="128" y="489"/>
      <point x="159" y="518"/>
      <point x="159" y="558" type="curve" smooth="yes"/>
      <point x="159" y="600"/>
      <point x="129" y="628"/>
      <point x="84" y="628" type="curve"/>
      <point x="84" y="608" type="line"/>
      <point x="119" y="608"/>
      <point x="139" y="589"/>
      <point x="139" y="558" type="curve" smooth="yes"/>
      <point x="139" y="528"/>
      <point x="118" y="509"/>
      <point x="84" y="509" type="curve"/>
    </contour>
  </outline>
</glyph>
<glyph name="verticallinemod" format="2">
  <advance width="265"/>
  <unicode hex="02C8"/>
  <outline>
    <contour>
      <point x="102" y="464" type="line"/>
      <point x="122" y="464" type="line"/>
      <point x="122" y="633" type="line"/>
      <point x="102" y="633" type="line"/>
    </contour>
  </outline>
</glyph>
<glyph name="verticallinelowmod" format="2">
  <advance width="224"/>
  <unicode hex="02CC"/>
  <outline>
    <contour>
      <point x="102" y="-230" type="line"/>
      <point x="122" y="-230" type="line"/>
      <point x="122" y="-61" type="line"/>
      <point x="102" y="-61" type="line"/>
    </contour>
  </outline>
</glyph>
<glyph name="tilde" format="2">
  <advance width="390"/>
  <unicode hex="02DC"/>
  <anchor x="195" y="452" name="top"/>
  <outline>
    <contour>
      <point x="325" y="631" type="line"/>
      <point x="321" y="631" type="line"/>
      <point x="294" y="607"/>
      <point x="281" y="590"/>
      <point x="270" y="590" type="curve"/>
      <point x="245" y="590"/>
      <point x="151" y="624"/>
      <point x="114" y="628" type="curve"/>
      <point x="108" y="626" type="line"/>
      <point x="56" y="579" type="line"/>
      <point x="56" y="575" type="line"/>
      <point x="65" y="564" type="line"/>
      <point x="69" y="564" type="line"/>
      <point x="96" y="588"/>
      <point x="109" y="605"/>
      <point x="120" y="605" type="curve"/>
      <point x="145" y="605"/>
      <point x="239" y="571"/>
      <point x="276" y="567" type="curve"/>
      <point x="282" y="569" type="line"/>
      <point x="334" y="616" type="line"/>
      <point x="334" y="620" type="line"/>
    </contour>
  </outline>
</glyph>
<glyph name="acutecomb" format="2">
  <unicode hex="0301"/>
  <anchor x="164" y="452" name="_top"/>
  <anchor x="196" y="669" name="top"/>
  <outline>
    <contour>
      <point x="261" y="669" type="line"/>
      <point x="207" y="614"/>
      <point x="161" y="571"/>
      <point x="115" y="532" type="curve"/>
      <point x="126" y="519" type="line"/>
      <point x="131" y="518" type="line"/>
      <point x="181" y="562"/>
      <point x="227" y="605"/>
      <point x="275" y="653" type="curve"/>
      <point x="276" y="658" type="line"/>
      <point x="266" y="668" type="line"/>
    </contour>
  </outline>
</glyph>
<glyph name="tildecomb" format="2">
  <unicode hex="0303"/>
  <anchor x="194" y="452" name="_top"/>
  <anchor x="194" y="599" name="top"/>
  <outline>
    <contour>
      <point x="324" y="630" type="line"/>
      <point x="320" y="630" type="line"/>
      <point x="293" y="606"/>
      <point x="280" y="589"/>
      <point x="270" y="589" type="curve"/>
      <point x="245" y="589"/>
      <point x="151" y="624"/>
      <point x="115" y="628" type="curve"/>
      <point x="109" y="626" type="line"/>
      <point x="56" y="579" type="line"/>
      <point x="56" y="575" type="line"/>
      <point x="64" y="564" type="line"/>
      <point x="68" y="564" type="line"/>
      <point x="95" y="588"/>
      <point x="108" y="605"/>
      <point x="119" y="605" type="curve"/>
      <point x="144" y="605"/>
      <point x="237" y="570"/>
      <point x="274" y="566" type="curve"/>
      <point x="280" y="568" type="line"/>
      <point x="333" y="615" type="line"/>
      <point x="333" y="619" type="line"/>
    </contour>
  </outline>
</glyph>
<glyph name="hungarumlautcomb" format="2">
  <unicode hex="030B"/>
  <anchor x="169" y="452" name="_top"/>
  <anchor x="195" y="667" name="top"/>
  <outline>
    <contour>
      <point x="179" y="530" type="curve"/>
      <point x="190" y="517" type="line"/>
      <point x="195" y="516" type="line"/>
      <point x="244" y="560"/>
      <point x="292" y="605"/>
      <point x="339" y="651" type="curve"/>
      <point x="340" y="656" type="line"/>
      <point x="330" y="666" type="line"/>
      <point x="325" y="667" type="line"/>
      <point x="278" y="620"/>
      <point x="230" y="575"/>
    </contour>
    <contour>
      <point x="49" y="530" type="curve"/>
      <point x="60" y="517" type="line"/>
      <point x="65" y="516" type="line"/>
      <point x="114" y="560"/>
      <point x="162" y="605"/>
      <point x="209" y="651" type="curve"/>
      <point x="210" y="656" type="line"/>
      <point x="200" y="666" type="line"/>
      <point x="195" y="667" type="line"/>
      <point x="148" y="620"/>
      <point x="100" y="575"/>
    </contour>
  </outline>
</glyph>
<glyph name="dblgravecomb" format="2">
  <unicode hex="030F"/>
  <anchor x="216" y="452" name="_top"/>
  <anchor x="195" y="667" name="top"/>
  <outline>
    <contour>
      <point x="211" y="530" type="curve"/>
      <point x="200" y="517" type="line"/>
      <point x="195" y="516" type="line"/>
      <point x="146" y="560"/>
      <point x="98" y="605"/>
      <point x="51" y="651" type="curve"/>
      <point x="50" y="656" type="line"/>
      <point x="60" y="666" type="line"/>
      <point x="65" y="667" type="line"/>
      <point x="112" y="620"/>
      <point x="160" y="575"/>
    </contour>
    <contour>
      <point x="341" y="530" type="curve"/>
      <point x="330" y="517" type="line"/>
      <point x="325" y="516" type="line"/>
      <point x="276" y="560"/>
      <point x="228" y="605"/>
      <point x="181" y="651" type="curve"/>
      <point x="180" y="656" type="line"/>
      <point x="190" y="666" type="line"/>
      <point x="195" y="667" type="line"/>
      <point x="242" y="620"/>
      <point x="290" y="575"/>
    </contour>
  </outline>
</glyph>
<glyph name="commaaccentcomb" format="2">
  <unicode hex="0326"/>
  <anchor x="111" y="0" name="_bottom"/>
  <anchor x="111" y="-211" name="bottom"/>
  <outline>
    <contour>
      <point x="111" y="-70" type="curve"/>
      <point x="105" y="-73"/>
      <point x="101" y="-77"/>
      <point x="98" y="-81" type="curve"/>
      <point x="98" y="-85" type="line"/>
      <point x="117" y="-94"/>
      <point x="128" y="-106"/>
      <point x="128" y="-119" type="curve"/>
      <point x="128" y="-143"/>
      <point x="109" y="-171"/>
      <point x="74" y="-197" type="curve"/>
      <point x="73" y="-200" type="line"/>
      <point x="83" y="-211" type="line"/>
      <point x="126" y="-178"/>
      <point x="149" y="-145"/>
      <point x="149" y="-118" type="curve"/>
      <point x="149" y="-98"/>
      <point x="135" y="-81"/>
    </contour>
  </outline>
</glyph>
<glyph name="ogonekcomb" format="2">
  <unicode hex="0328"/>
  <anchor x="192" y="21" name="_ogonek"/>
  <outline>
    <contour>
      <point x="133" y="-197" type="curve" smooth="yes"/>
      <point x="169" y="-197"/>
      <point x="199" y="-175"/>
      <point x="225" y="-140" type="curve"/>
      <point x="214" y="-124" type="line"/>
      <point x="212" y="-124" type="line"/>
      <point x="189" y="-157"/>
      <point x="163" y="-176"/>
      <point x="135" y="-176" type="curve" smooth="yes"/>
      <point x="107" y="-176"/>
      <point x="92" y="-163"/>
      <point x="92" y="-136" type="curve" smooth="yes"/>
      <point x="92" y="-106"/>
      <point x="108" y="-86"/>
      <point x="192" y="21" type="curve"/>
      <point x="168" y="21" type="line"/>
      <point x="88" y="-83"/>
      <point x="71" y="-103"/>
      <point x="71" y="-139" type="curve" smooth="yes"/>
      <point x="71" y="-176"/>
      <point x="96" y="-197"/>
    </contour>
  </outline>
</glyph>
<glyph name="macronbelowcomb" format="2">
  <unicode hex="0331"/>
  <anchor x="165" y="0" name="_bottom"/>
  <anchor x="165" y="-148" name="bottom"/>
  <outline>
    <contour>
      <point x="278" y="-128" type="line"/>
      <point x="51" y="-128" type="line"/>
      <point x="49" y="-145" type="line"/>
      <point x="52" y="-148" type="line"/>
      <point x="279" y="-148" type="line"/>
      <point x="281" y="-131" type="line"/>
    </contour>
  </outline>
</glyph>
<glyph name="dieresistonos" format="2">
  <advance width="292"/>
  <unicode hex="0385"/>
  <anchor x="141" y="452" name="top"/>
  <outline>
    <contour>
      <point x="131" y="540" type="line"/>
      <point x="136" y="541" type="line"/>
      <point x="182" y="650" type="line"/>
      <point x="180" y="656" type="line"/>
      <point x="167" y="660" type="line"/>
      <point x="162" y="659" type="line"/>
      <point x="146" y="615"/>
      <point x="132" y="579"/>
      <point x="117" y="546" type="curve"/>
    </contour>
    <contour>
      <point x="71" y="554" type="curve" smooth="yes"/>
      <point x="83" y="554"/>
      <point x="91" y="562"/>
      <point x="91" y="574" type="curve" smooth="yes"/>
      <point x="91" y="586"/>
      <point x="83" y="594"/>
      <point x="71" y="594" type="curve" smooth="yes"/>
      <point x="59" y="594"/>
      <point x="51" y="586"/>
      <point x="51" y="574" type="curve" smooth="yes"/>
      <point x="51" y="562"/>
      <point x="59" y="554"/>
    </contour>
    <contour>
      <point x="211" y="554" type="curve" smooth="yes"/>
      <point x="223" y="554"/>
      <point x="231" y="562"/>
      <point x="231" y="574" type="curve" smooth="yes"/>
      <point x="231" y="586"/>
      <point x="223" y="594"/>
      <point x="211" y="594" type="curve" smooth="yes"/>
      <point x="199" y="594"/>
      <point x="191" y="586"/>
      <point x="191" y="574" type="curve" smooth="yes"/>
      <point x="191" y="562"/>
      <point x="199" y="554"/>
    </contour>
  </outline>
</glyph>
<glyph name="Delta" format="2">
  <advance width="554"/>
  <unicode hex="0394"/>
  <outline>
    <contour>
      <point x="27" y="0" type="line"/>
      <point x="521" y="0" type="line"/>
      <point x="521" y="17" type="line"/>
      <point x="294" y="637" type="line"/>
      <point x="274" y="637" type="line"/>
      <point x="27" y="17" type="line"/>
    </contour>
    <contour>
      <point x="48" y="20" type="line"/>
      <point x="281" y="603" type="line"/>
      <point x="286" y="603" type="line"/>
      <point x="499" y="20" type="line"/>
    </contour>
  </outline>
</glyph>
<glyph name="Xi" format="2">
  <advance width="544"/>
  <unicode hex="039E"/>
  <outline>
    <contour>
      <point x="79" y="0" type="line"/>
      <point x="466" y="0" type="line"/>
      <point x="471" y="18" type="line"/>
      <point x="467" y="22" type="line"/>
      <point x="266" y="22" type="line"/>
      <point x="78" y="22" type="line"/>
      <point x="75" y="18" type="line"/>
    </contour>
    <contour>
      <point x="117" y="319" type="line"/>
      <point x="253" y="320" type="line"/>
      <point x="423" y="319" type="line"/>
      <point x="427" y="337" type="line"/>
      <point x="424" y="341" type="line"/>
      <point x="266" y="341" type="line"/>
      <point x="118" y="341" type="line"/>
      <point x="114" y="323" type="line"/>
    </contour>
    <contour>
      <point x="82" y="615" type="line"/>
      <point x="262" y="615" type="line"/>
      <point x="463" y="615" type="line"/>
      <point x="467" y="633" type="line"/>
      <point x="464" y="637" type="line"/>
      <point x="83" y="637" type="line"/>
      <point x="79" y="619" type="line"/>
    </contour>
  </outline>
</glyph>
<glyph name="Sigma" format="2">
  <advance width="495"/>
  <unicode hex="03A3"/>
  <outline>
    <contour>
      <point x="452" y="638" type="line"/>
      <point x="391" y="637" type="line"/>
      <point x="133" y="637" type="line"/>
      <point x="61" y="637" type="line"/>
      <point x="61" y="619" type="line"/>
      <point x="267" y="328" type="line"/>
      <point x="52" y="18" type="line"/>
      <point x="52" y="0" type="line"/>
      <point x="118" y="0" type="line"/>
      <point x="371" y="0" type="line"/>
      <point x="445" y="0" type="line"/>
      <point x="448" y="16" type="line"/>
      <point x="444" y="21" type="line"/>
      <point x="375" y="20" type="line"/>
      <point x="78" y="20" type="line"/>
      <point x="289" y="325" type="line"/>
      <point x="289" y="332" type="line"/>
      <point x="87" y="617" type="line"/>
      <point x="391" y="617" type="line"/>
      <point x="453" y="616" type="line"/>
      <point x="456" y="633" type="line"/>
    </contour>
  </outline>
</glyph>
<glyph name="Psi" format="2">
  <advance width="675"/>
  <unicode hex="03A8"/>
  <outline>
    <contour>
      <point x="347" y="637" type="line"/>
      <point x="328" y="637" type="line"/>
      <point x="328" y="195" type="line"/>
      <point x="328" y="0" type="line"/>
      <point x="347" y="0" type="line"/>
      <point x="347" y="195" type="line"/>
    </contour>
    <contour>
      <point x="591" y="637" type="line"/>
      <point x="571" y="637" type="line"/>
      <point x="571" y="359" type="line" smooth="yes"/>
      <point x="571" y="222"/>
      <point x="488" y="151"/>
      <point x="338" y="151" type="curve" smooth="yes"/>
      <point x="186" y="151"/>
      <point x="104" y="222"/>
      <point x="104" y="359" type="curve" smooth="yes"/>
      <point x="104" y="637" type="line"/>
      <point x="84" y="637" type="line"/>
      <point x="84" y="452" type="line"/>
      <point x="84" y="359" type="line" smooth="yes"/>
      <point x="84" y="209"/>
      <point x="173" y="131"/>
      <point x="338" y="131" type="curve" smooth="yes"/>
      <point x="501" y="131"/>
      <point x="595" y="212"/>
      <point x="591" y="359" type="curve"/>
      <point x="591" y="442" type="line"/>
    </contour>
  </outline>
</glyph>
<glyph name="alpha" format="2">
  <advance width="508"/>
  <unicode hex="03B1"/>
  <anchor x="247" y="0" name="bottom"/>
  <anchor x="254" y="452" name="top"/>
  <outline>
    <contour>
      <point x="226" y="-5" type="curve" smooth="yes"/>
      <point x="281" y="-5"/>
      <point x="326" y="17"/>
      <point x="366" y="64" type="curve"/>
      <point x="377" y="64" type="line"/>
      <point x="374" y="104" type="line"/>
      <point x="334" y="44"/>
      <point x="286" y="15"/>
      <point x="228" y="15" type="curve" smooth="yes"/>
      <point x="133" y="15"/>
      <point x="74" y="92"/>
      <point x="74" y="216" type="curve" smooth="yes"/>
      <point x="74" y="350"/>
      <point x="143" y="437"/>
      <point x="251" y="437" type="curve" smooth="yes"/>
      <point x="294" y="437"/>
      <point x="332" y="423"/>
      <point x="375" y="391" type="curve"/>
      <point x="373" y="421" type="line"/>
      <point x="365" y="420" type="line"/>
      <point x="334" y="441"/>
      <point x="300" y="454"/>
      <point x="262" y="458" type="curve"/>
      <point x="132" y="458"/>
      <point x="54" y="368"/>
      <point x="54" y="217" type="curve" smooth="yes"/>
      <point x="54" y="79"/>
      <point x="119" y="-5"/>
    </contour>
    <contour>
      <point x="421" y="-3" type="curve"/>
      <point x="437" y="-3"/>
      <point x="453" y="2"/>
      <point x="466" y="11" type="curve"/>
      <point x="470" y="29" type="line"/>
      <point x="464" y="32" type="line"/>
      <point x="453" y="23"/>
      <point x="437" y="17"/>
      <point x="423" y="17" type="curve" smooth="yes"/>
      <point x="399" y="17"/>
      <point x="389" y="34"/>
      <point x="389" y="74" type="curve" smooth="yes"/>
      <point x="389" y="453" type="line"/>
      <point x="369" y="449" type="line"/>
      <point x="369" y="246" type="line"/>
      <point x="369" y="75" type="line" smooth="yes"/>
      <point x="369" y="21"/>
      <point x="385" y="-3"/>
    </contour>
  </outline>
</glyph>
<glyph name="delta" format="2">
  <advance width="467"/>
  <unicode hex="03B4"/>
  <outline>
    <contour>
      <point x="233" y="-5" type="curve" smooth="yes"/>
      <point x="345" y="-5"/>
      <point x="420" y="79"/>
      <point x="420" y="205" type="curve" smooth="yes"/>
      <point x="420" y="449"/>
      <point x="136" y="461"/>
      <point x="136" y="593" type="curve" smooth="yes"/>
      <point x="136" y="650"/>
      <point x="192" y="685"/>
      <point x="267" y="685" type="curve" smooth="yes"/>
      <point x="299" y="685"/>
      <point x="333" y="679"/>
      <point x="369" y="666" type="curve"/>
      <point x="375" y="667" type="line"/>
      <point x="380" y="686" type="line"/>
      <point x="340" y="699"/>
      <point x="301" y="705"/>
      <point x="267" y="705" type="curve" smooth="yes"/>
      <point x="178" y="705"/>
      <point x="116" y="664"/>
      <point x="116" y="596" type="curve" smooth="yes"/>
      <point x="116" y="442"/>
      <point x="400" y="436"/>
      <point x="400" y="205" type="curve" smooth="yes"/>
      <point x="400" y="91"/>
      <point x="333" y="15"/>
      <point x="233" y="15" type="curve" smooth="yes"/>
      <point x="133" y="15"/>
      <point x="70" y="90"/>
      <point x="70" y="207" type="curve" smooth="yes"/>
      <point x="70" y="314"/>
      <point x="122" y="384"/>
      <point x="250" y="448" type="curve"/>
      <point x="224" y="467" type="line"/>
      <point x="219" y="452" type="line"/>
      <point x="101" y="391"/>
      <point x="50" y="316"/>
      <point x="50" y="207" type="curve" smooth="yes"/>
      <point x="50" y="78"/>
      <point x="121" y="-5"/>
    </contour>
  </outline>
</glyph>
<glyph name="eta" format="2">
  <advance width="506"/>
  <unicode hex="03B7"/>
  <anchor x="111" y="0" name="bottom"/>
  <anchor x="253" y="452" name="top"/>
  <outline>
    <contour>
      <point x="281" y="457" type="curve" smooth="yes"/>
      <point x="231" y="457"/>
      <point x="174" y="427"/>
      <point x="125" y="374" type="curve"/>
      <point x="119" y="374" type="line"/>
      <point x="120" y="340" type="line"/>
      <point x="170" y="401"/>
      <point x="229" y="437"/>
      <point x="281" y="437" type="curve" smooth="yes"/>
      <point x="351" y="437"/>
      <point x="392" y="394"/>
      <point x="392" y="320" type="curve" smooth="yes"/>
      <point x="390" y="-185" type="line"/>
      <point x="412" y="-185" type="line"/>
      <point x="412" y="194" type="line"/>
      <point x="412" y="321" type="line" smooth="yes"/>
      <point x="412" y="407"/>
      <point x="365" y="457"/>
    </contour>
    <contour>
      <point x="121" y="453" type="line"/>
      <point x="101" y="449" type="line"/>
      <point x="101" y="196" type="line"/>
      <point x="101" y="0" type="line"/>
      <point x="121" y="0" type="line"/>
      <point x="121" y="196" type="line"/>
    </contour>
  </outline>
</glyph>
<glyph name="theta" format="2">
  <advance width="495"/>
  <unicode hex="03B8"/>
  <outline>
    <contour>
      <point x="245" y="-8" type="curve" smooth="yes"/>
      <point x="354" y="-8"/>
      <point x="422" y="131"/>
      <point x="422" y="356" type="curve" smooth="yes"/>
      <point x="422" y="573"/>
      <point x="357" y="707"/>
      <point x="252" y="707" type="curve" smooth="yes"/>
      <point x="143" y="707"/>
      <point x="74" y="568"/>
      <point x="74" y="344" type="curve" smooth="yes"/>
      <point x="74" y="126"/>
      <point x="140" y="-8"/>
    </contour>
    <contour>
      <point x="245" y="12" type="curve" smooth="yes"/>
      <point x="153" y="12"/>
      <point x="94" y="140"/>
      <point x="94" y="342" type="curve" smooth="yes"/>
      <point x="94" y="553"/>
      <point x="156" y="687"/>
      <point x="252" y="687" type="curve" smooth="yes"/>
      <point x="343" y="687"/>
      <point x="402" y="558"/>
      <point x="402" y="358" type="curve" smooth="yes"/>
      <point x="402" y="146"/>
      <point x="341" y="12"/>
    </contour>
    <contour>
      <point x="85" y="332" type="line"/>
      <point x="411" y="343" type="line"/>
      <point x="410" y="363" type="line"/>
      <point x="84" y="352" type="line"/>
    </contour>
  </outline>
</glyph>
<glyph name="mu" format="2">
  <advance width="527"/>
  <unicode hex="03BC"/>
  <outline>
    <contour>
      <point x="105" y="-185" type="line"/>
      <point x="125" y="-185" type="line"/>
      <point x="123" y="76" type="line"/>
      <point x="125" y="133" type="line"/>
      <point x="125" y="453" type="line"/>
      <point x="105" y="449" type="line"/>
      <point x="105" y="196" type="line"/>
    </contour>
    <contour>
      <point x="223" y="-4" type="curve" smooth="yes"/>
      <point x="278" y="-4"/>
      <point x="333" y="25"/>
      <point x="383" y="79" type="curve"/>
      <point x="394" y="79" type="line"/>
      <point x="393" y="115" type="line"/>
      <point x="339" y="50"/>
      <point x="281" y="16"/>
      <point x="226" y="16" type="curve" smooth="yes"/>
      <point x="161" y="16"/>
      <point x="125" y="58"/>
      <point x="125" y="133" type="curve"/>
      <point x="105" y="132" type="line"/>
      <point x="105" y="45"/>
      <point x="147" y="-4"/>
    </contour>
    <contour>
      <point x="441" y="-3" type="curve" smooth="yes"/>
      <point x="457" y="-3"/>
      <point x="473" y="2"/>
      <point x="486" y="11" type="curve"/>
      <point x="490" y="29" type="line"/>
      <point x="484" y="32" type="line"/>
      <point x="473" y="23"/>
      <point x="457" y="17"/>
      <point x="443" y="17" type="curve" smooth="yes"/>
      <point x="418" y="17"/>
      <point x="407" y="36"/>
      <point x="407" y="79" type="curve" smooth="yes"/>
      <point x="407" y="453" type="line"/>
      <point x="387" y="449" type="line"/>
      <point x="387" y="80" type="line" smooth="yes"/>
      <point x="387" y="23"/>
      <point x="404" y="-3"/>
    </contour>
  </outline>
</glyph>
<glyph name="omicron" format="2">
  <advance width="483"/>
  <unicode hex="03BF"/>
  <anchor x="242" y="452" name="top"/>
  <outline>
    <contour>
      <point x="245" y="457" type="curve" smooth="yes"/>
      <point x="127" y="457"/>
      <point x="55" y="368"/>
      <point x="55" y="222" type="curve" smooth="yes"/>
      <point x="55" y="81"/>
      <point x="124" y="-5"/>
      <point x="238" y="-5" type="curve" smooth="yes"/>
      <point x="356" y="-5"/>
      <point x="428" y="84"/>
      <point x="428" y="230" type="curve" smooth="yes"/>
      <point x="428" y="371"/>
      <point x="359" y="457"/>
    </contour>
    <contour>
      <point x="245" y="437" type="curve" smooth="yes"/>
      <point x="346" y="437"/>
      <point x="408" y="359"/>
      <point x="408" y="230" type="curve" smooth="yes"/>
      <point x="408" y="96"/>
      <point x="344" y="15"/>
      <point x="238" y="15" type="curve" smooth="yes"/>
      <point x="137" y="15"/>
      <point x="75" y="93"/>
      <point x="75" y="222" type="curve" smooth="yes"/>
      <point x="75" y="356"/>
      <point x="139" y="437"/>
    </contour>
  </outline>
</glyph>
<glyph name="pi" format="2">
  <advance width="564"/>
  <unicode hex="03C0"/>
  <outline>
    <contour>
      <point x="453" y="-4" type="curve" smooth="yes"/>
      <point x="472" y="-4"/>
      <point x="483" y="1"/>
      <point x="508" y="12" type="curve"/>
      <point x="512" y="30" type="line"/>
      <point x="506" y="33" type="line"/>
      <point x="478" y="20"/>
      <point x="468" y="17"/>
      <point x="454" y="17" type="curve" smooth="yes"/>
      <point x="423" y="17"/>
      <point x="412" y="33"/>
      <point x="412" y="77" type="curve" smooth="yes"/>
      <point x="412" y="449" type="line"/>
      <point x="392" y="449" type="line"/>
      <point x="392" y="222" type="line"/>
      <point x="392" y="75" type="line" smooth="yes"/>
      <point x="392" y="19"/>
      <point x="410" y="-4"/>
    </contour>
    <contour>
      <point x="136" y="0" type="line"/>
      <point x="156" y="0" type="line"/>
      <point x="156" y="449" type="line"/>
      <point x="136" y="449" type="line"/>
      <point x="136" y="196" type="line"/>
    </contour>
    <contour>
      <point x="20" y="398" type="line"/>
      <point x="55" y="421"/>
      <point x="90" y="432"/>
      <point x="129" y="432" type="curve" smooth="yes"/>
      <point x="525" y="432" type="line"/>
      <point x="529" y="448" type="line"/>
      <point x="526" y="452" type="line"/>
      <point x="129" y="452" type="line" smooth="yes"/>
      <point x="83" y="452"/>
      <point x="46" y="440"/>
      <point x="10" y="414" type="curve"/>
      <point x="9" y="410" type="line"/>
      <point x="16" y="399" type="line"/>
    </contour>
  </outline>
</glyph>
<glyph name="sigma" format="2">
  <advance width="511"/>
  <unicode hex="03C3"/>
  <outline>
    <contour>
      <point x="230" y="-5" type="curve" smooth="yes"/>
      <point x="348" y="-5"/>
      <point x="414" y="78"/>
      <point x="414" y="226" type="curve" smooth="yes"/>
      <point x="414" y="298"/>
      <point x="392" y="367"/>
      <point x="350" y="428" type="curve"/>
      <point x="354" y="444" type="line"/>
      <point x="322" y="437" type="line"/>
      <point x="368" y="372"/>
      <point x="394" y="297"/>
      <point x="394" y="223" type="curve" smooth="yes"/>
      <point x="394" y="92"/>
      <point x="333" y="15"/>
      <point x="229" y="15" type="curve" smooth="yes"/>
      <point x="132" y="15"/>
      <point x="75" y="93"/>
      <point x="75" y="227" type="curve" smooth="yes"/>
      <point x="75" y="363"/>
      <point x="139" y="432"/>
      <point x="261" y="432" type="curve" smooth="yes"/>
      <point x="478" y="432" type="line"/>
      <point x="482" y="448" type="line"/>
      <point x="479" y="452" type="line"/>
      <point x="266" y="452" type="line" smooth="yes"/>
      <point x="125" y="452"/>
      <point x="55" y="378"/>
      <point x="55" y="229" type="curve" smooth="yes"/>
      <point x="55" y="80"/>
      <point x="119" y="-5"/>
    </contour>
  </outline>
</glyph>
<glyph name="tau" format="2">
  <advance width="354"/>
  <unicode hex="03C4"/>
  <outline>
    <contour>
      <point x="222" y="-4" type="curve" smooth="yes"/>
      <point x="244" y="-4"/>
      <point x="270" y="3"/>
      <point x="296" y="15" type="curve"/>
      <point x="300" y="33" type="line"/>
      <point x="294" y="36" type="line"/>
      <point x="268" y="22"/>
      <point x="248" y="16"/>
      <point x="225" y="16" type="curve" smooth="yes"/>
      <point x="187" y="16"/>
      <point x="172" y="35"/>
      <point x="172" y="84" type="curve" smooth="yes"/>
      <point x="172" y="449" type="line"/>
      <point x="152" y="449" type="line"/>
      <point x="152" y="222" type="line"/>
      <point x="152" y="83" type="line" smooth="yes"/>
      <point x="152" y="23"/>
      <point x="174" y="-4"/>
    </contour>
    <contour>
      <point x="7" y="398" type="line"/>
      <point x="42" y="421"/>
      <point x="77" y="432"/>
      <point x="116" y="432" type="curve" smooth="yes"/>
      <point x="331" y="432" type="line"/>
      <point x="335" y="448" type="line"/>
      <point x="332" y="452" type="line"/>
      <point x="116" y="452" type="line" smooth="yes"/>
      <point x="70" y="452"/>
      <point x="33" y="440"/>
      <point x="-3" y="414" type="curve"/>
      <point x="-4" y="410" type="line"/>
      <point x="3" y="399" type="line"/>
    </contour>
  </outline>
</glyph>
<glyph name="upsilon" format="2">
  <advance width="486"/>
  <unicode hex="03C5"/>
  <anchor x="243" y="452" name="top"/>
  <outline>
    <contour>
      <point x="242" y="-3" type="curve" smooth="yes"/>
      <point x="345" y="-3"/>
      <point x="404" y="68"/>
      <point x="401" y="172" type="curve"/>
      <point x="402" y="453" type="line"/>
      <point x="381" y="449" type="line"/>
      <point x="381" y="173" type="line" smooth="yes"/>
      <point x="381" y="77"/>
      <point x="332" y="16"/>
      <point x="243" y="16" type="curve" smooth="yes"/>
      <point x="152" y="16"/>
      <point x="102" y="78"/>
      <point x="103" y="173" type="curve" smooth="yes"/>
      <point x="105" y="453" type="line"/>
      <point x="84" y="449" type="line"/>
      <point x="84" y="229" type="line"/>
      <point x="83" y="172" type="line" smooth="yes"/>
      <point x="81" y="66"/>
      <point x="139" y="-3"/>
    </contour>
  </outline>
</glyph>
<glyph name="phi" format="2">
  <advance width="596"/>
  <unicode hex="03C6"/>
  <outline>
    <contour>
      <point x="281" y="329" type="curve" smooth="yes"/>
      <point x="280" y="-185" type="line"/>
      <point x="300" y="-185" type="line"/>
      <point x="301" y="325" type="line" smooth="yes"/>
      <point x="301" y="393"/>
      <point x="328" y="437"/>
      <point x="387" y="437" type="curve" smooth="yes"/>
      <point x="469" y="437"/>
      <point x="521" y="367"/>
      <point x="521" y="246" type="curve" smooth="yes"/>
      <point x="521" y="91"/>
      <point x="435" y="15"/>
      <point x="291" y="15" type="curve" smooth="yes"/>
      <point x="144" y="15"/>
      <point x="70" y="85"/>
      <point x="70" y="226" type="curve" smooth="yes"/>
      <point x="70" y="327"/>
      <point x="108" y="388"/>
      <point x="202" y="436" type="curve"/>
      <point x="202" y="439" type="line"/>
      <point x="192" y="453" type="line"/>
      <point x="93" y="404"/>
      <point x="50" y="335"/>
      <point x="50" y="225" type="curve" smooth="yes"/>
      <point x="50" y="73"/>
      <point x="133" y="-5"/>
      <point x="292" y="-5" type="curve" smooth="yes"/>
      <point x="448" y="-5"/>
      <point x="541" y="80"/>
      <point x="541" y="248" type="curve" smooth="yes"/>
      <point x="541" y="382"/>
      <point x="483" y="457"/>
      <point x="388" y="457" type="curve" smooth="yes"/>
      <point x="316" y="457"/>
      <point x="281" y="406"/>
    </contour>
  </outline>
</glyph>
<glyph name="psi" format="2">
  <advance width="603"/>
  <unicode hex="03C8"/>
  <outline>
    <contour>
      <point x="298" y="0" type="curve"/>
      <point x="299" y="19" type="line"/>
      <point x="171" y="19"/>
      <point x="96" y="83"/>
      <point x="97" y="188" type="curve" smooth="yes"/>
      <point x="99" y="453" type="line"/>
      <point x="78" y="449" type="line"/>
      <point x="78" y="229" type="line"/>
      <point x="77" y="187" type="line" smooth="yes"/>
      <point x="74" y="72"/>
      <point x="158" y="0"/>
    </contour>
    <contour>
      <point x="290" y="-185" type="line"/>
      <point x="310" y="-185" type="line"/>
      <point x="311" y="196" type="line"/>
      <point x="311" y="543" type="line"/>
      <point x="291" y="539" type="line"/>
      <point x="291" y="196" type="line"/>
    </contour>
    <contour>
      <point x="307" y="0" type="line"/>
      <point x="442" y="0"/>
      <point x="527" y="73"/>
      <point x="524" y="187" type="curve"/>
      <point x="524" y="453" type="line"/>
      <point x="504" y="449" type="line"/>
      <point x="504" y="188" type="line" smooth="yes"/>
      <point x="504" y="83"/>
      <point x="430" y="19"/>
      <point x="308" y="19" type="curve"/>
    </contour>
  </outline>
</glyph>
<glyph name="KaiSymbol" format="2">
  <advance width="551"/>
  <unicode hex="03CF"/>
  <outline>
    <contour>
      <point x="496" y="-2" type="line"/>
      <point x="518" y="1" type="line"/>
      <point x="518" y="5" type="line"/>
      <point x="410" y="108"/>
      <point x="301" y="225"/>
      <point x="206" y="340" type="curve"/>
      <point x="502" y="637" type="line"/>
      <point x="471" y="637" type="line"/>
      <point x="428" y="590" type="line"/>
      <point x="179" y="341" type="line"/>
      <point x="179" y="338" type="line"/>
      <point x="276" y="221"/>
      <point x="384" y="106"/>
      <point x="492" y="-1" type="curve"/>
    </contour>
    <contour>
      <point x="272" y="-199" type="curve"/>
      <point x="392" y="-227"/>
      <point x="457" y="-174"/>
      <point x="518" y="1" type="curve"/>
      <point x="496" y="-2" type="line"/>
      <point x="436" y="-163"/>
      <point x="380" y="-206"/>
      <point x="269" y="-176" type="curve"/>
      <point x="267" y="-178" type="line"/>
      <point x="267" y="-186"/>
      <point x="269" y="-193"/>
    </contour>
    <contour>
      <point x="130" y="0" type="line"/>
      <point x="150" y="0" type="line"/>
      <point x="150" y="195" type="line"/>
      <point x="150" y="637" type="line"/>
      <point x="130" y="637" type="line"/>
      <point x="130" y="195" type="line"/>
    </contour>
  </outline>
</glyph>
<glyph name="kaiSymbol" format="2">
  <advance width="424"/>
  <unicode hex="03D7"/>
  <outline>
    <contour>
      <point x="200" y="-154" type="curve"/>
      <point x="299" y="-175"/>
      <point x="353" y="-133"/>
      <point x="403" y="1" type="curve"/>
      <point x="382" y="0" type="line"/>
      <point x="334" y="-122"/>
      <point x="288" y="-155"/>
      <point x="196" y="-132" type="curve"/>
      <point x="194" y="-134" type="line"/>
      <point x="195" y="-142"/>
      <point x="197" y="-149"/>
    </contour>
    <contour>
      <point x="382" y="0" type="line"/>
      <point x="403" y="1" type="line"/>
      <point x="403" y="5" type="line"/>
      <point x="326" y="73"/>
      <point x="216" y="169"/>
      <point x="144" y="241" type="curve"/>
      <point x="387" y="452" type="line"/>
      <point x="355" y="452" type="line"/>
      <point x="321" y="418" type="line"/>
      <point x="120" y="243" type="line"/>
      <point x="120" y="238" type="line"/>
      <point x="195" y="161"/>
      <point x="300" y="73"/>
      <point x="378" y="1" type="curve"/>
    </contour>
    <contour>
      <point x="101" y="0" type="line"/>
      <point x="121" y="0" type="line"/>
      <point x="121" y="196" type="line"/>
      <point x="121" y="453" type="line"/>
      <point x="101" y="449" type="line"/>
      <point x="101" y="196" type="line"/>
    </contour>
  </outline>
</glyph>
<glyph name="Dje-cy" format="2">
  <advance width="622"/>
  <unicode hex="0402"/>
  <outline>
    <contour>
      <point x="182" y="0" type="line"/>
      <point x="202" y="0" type="line"/>
      <point x="202" y="195" type="line"/>
      <point x="202" y="637" type="line"/>
      <point x="182" y="637" type="line"/>
      <point x="182" y="195" type="line"/>
    </contour>
    <contour>
      <point x="395" y="414" type="curve" smooth="yes"/>
      <point x="325" y="414"/>
      <point x="265" y="389"/>
      <point x="206" y="335" type="curve"/>
      <point x="192" y="335" type="line"/>
      <point x="192" y="298" type="line"/>
      <point x="256" y="363"/>
      <point x="321" y="394"/>
      <point x="393" y="394" type="curve" smooth="yes"/>
      <point x="492" y="394"/>
      <point x="526" y="336"/>
      <point x="526" y="169" type="curve" smooth="yes"/>
      <point x="526" y="1"/>
      <point x="492" y="-101"/>
      <point x="412" y="-176" type="curve"/>
      <point x="412" y="-182" type="line"/>
      <point x="423" y="-189" type="line"/>
      <point x="509" y="-115"/>
      <point x="546" y="-8"/>
      <point x="546" y="168" type="curve" smooth="yes"/>
      <point x="546" y="350"/>
      <point x="507" y="414"/>
    </contour>
    <contour>
      <point x="15" y="617" type="line"/>
      <point x="119" y="617" type="line"/>
      <point x="320" y="617" type="line"/>
      <point x="431" y="617" type="line"/>
      <point x="435" y="633" type="line"/>
      <point x="432" y="637" type="line"/>
      <point x="16" y="637" type="line"/>
      <point x="12" y="621" type="line"/>
    </contour>
  </outline>
</glyph>
<glyph name="Tshe-cy" format="2">
  <advance width="623"/>
  <unicode hex="040B"/>
  <outline>
    <contour>
      <point x="525" y="0" type="line"/>
      <point x="546" y="0" type="line"/>
      <point x="546" y="220" type="line" smooth="yes"/>
      <point x="546" y="352"/>
      <point x="496" y="414"/>
      <point x="388" y="414" type="curve"/>
      <point x="324" y="414"/>
      <point x="264" y="388"/>
      <point x="206" y="335" type="curve"/>
      <point x="192" y="335" type="line"/>
      <point x="192" y="298" type="line"/>
      <point x="258" y="365"/>
      <point x="319" y="394"/>
      <point x="391" y="394" type="curve" smooth="yes"/>
      <point x="481" y="394"/>
      <point x="525" y="335"/>
      <point x="525" y="217" type="curve" smooth="yes"/>
    </contour>
    <contour>
      <point x="182" y="0" type="line"/>
      <point x="202" y="0" type="line"/>
      <point x="202" y="195" type="line"/>
      <point x="202" y="637" type="line"/>
      <point x="182" y="637" type="line"/>
      <point x="182" y="195" type="line"/>
    </contour>
    <contour>
      <point x="15" y="617" type="line"/>
      <point x="119" y="617" type="line"/>
      <point x="320" y="617" type="line"/>
      <point x="431" y="617" type="line"/>
      <point x="435" y="633" type="line"/>
      <point x="432" y="637" type="line"/>
      <point x="16" y="637" type="line"/>
      <point x="12" y="621" type="line"/>
    </contour>
  </outline>
</glyph>
<glyph name="Be-cy" format="2">
  <advance width="544"/>
  <unicode hex="0411"/>
  <outline>
    <contour>
      <point x="141" y="0" type="line"/>
      <point x="244" y="0" type="line"/>
      <point x="396" y="0"/>
      <point x="478" y="65"/>
      <point x="478" y="186" type="curve" smooth="yes"/>
      <point x="478" y="292"/>
      <point x="415" y="351"/>
      <point x="295" y="351" type="curve" smooth="yes"/>
      <point x="141" y="351" type="line"/>
      <point x="141" y="331" type="line"/>
      <point x="292" y="331" type="line" smooth="yes"/>
      <point x="402" y="331"/>
      <point x="458" y="279"/>
      <point x="458" y="185" type="curve" smooth="yes"/>
      <point x="458" y="86"/>
      <point x="395" y="29"/>
      <point x="275" y="20" type="curve"/>
      <point x="141" y="20" type="line"/>
    </contour>
    <contour>
      <point x="131" y="0" type="line"/>
      <point x="151" y="0" type="line"/>
      <point x="151" y="195" type="line"/>
      <point x="151" y="637" type="line"/>
      <point x="131" y="637" type="line"/>
      <point x="131" y="195" type="line"/>
    </contour>
    <contour>
      <point x="143" y="617" type="line"/>
      <point x="302" y="617" type="line"/>
      <point x="452" y="617" type="line"/>
      <point x="456" y="633" type="line"/>
      <point x="453" y="637" type="line"/>
      <point x="143" y="637" type="line"/>
    </contour>
  </outline>
</glyph>
<glyph name="De-cy" format="2">
  <advance width="610"/>
  <unicode hex="0414"/>
  <anchor x="481" y="0" name="bottomright"/>
  <outline>
    <contour>
      <point x="88" y="11" type="line"/>
      <point x="164" y="62"/>
      <point x="199" y="199"/>
      <point x="222" y="546" type="curve" smooth="yes"/>
      <point x="228" y="637" type="line"/>
      <point x="208" y="637" type="line"/>
      <point x="202" y="548" type="line" smooth="yes"/>
      <point x="178" y="205"/>
      <point x="148" y="75"/>
      <point x="73" y="20" type="curve"/>
    </contour>
    <contour>
      <point x="17" y="-115" type="line"/>
      <point x="37" y="-111" type="line"/>
      <point x="37" y="20" type="line"/>
      <point x="17" y="20" type="line"/>
    </contour>
    <contour>
      <point x="17" y="0" type="line"/>
      <point x="127" y="0" type="line"/>
      <point x="127" y="20" type="line"/>
      <point x="17" y="20" type="line"/>
    </contour>
    <contour>
      <point x="73" y="0" type="line"/>
      <point x="451" y="0" type="line"/>
      <point x="451" y="20" type="line"/>
      <point x="73" y="20" type="line"/>
    </contour>
    <contour>
      <point x="529" y="-115" type="line"/>
      <point x="549" y="-111" type="line"/>
      <point x="549" y="20" type="line"/>
      <point x="529" y="20" type="line"/>
    </contour>
    <contour>
      <point x="443" y="0" type="line"/>
      <point x="549" y="0" type="line"/>
      <point x="549" y="20" type="line"/>
      <point x="443" y="20" type="line"/>
    </contour>
    <contour>
      <point x="441" y="0" type="line"/>
      <point x="461" y="0" type="line"/>
      <point x="461" y="195" type="line"/>
      <point x="461" y="637" type="line"/>
      <point x="441" y="637" type="line"/>
      <point x="441" y="195" type="line"/>
    </contour>
    <contour>
      <point x="215" y="617" type="line"/>
      <point x="450" y="617" type="line"/>
      <point x="450" y="637" type="line"/>
      <point x="208" y="637" type="line"/>
    </contour>
  </outline>
</glyph>
<glyph name="Zhe-cy" format="2">
  <advance width="772"/>
  <unicode hex="0416"/>
  <anchor x="721" y="-6" name="bottomright"/>
  <anchor x="386" y="637" name="top"/>
  <outline>
    <contour>
      <point x="725" y="-7" type="line"/>
      <point x="730" y="-5"/>
      <point x="736" y="-3"/>
      <point x="739" y="1" type="curve"/>
      <point x="739" y="5" type="line"/>
      <point x="639" y="108"/>
      <point x="537" y="225"/>
      <point x="449" y="340" type="curve"/>
      <point x="724" y="637" type="line"/>
      <point x="694" y="637" type="line"/>
      <point x="654" y="590" type="line"/>
      <point x="423" y="341" type="line"/>
      <point x="423" y="338" type="line"/>
      <point x="514" y="219"/>
      <point x="617" y="102"/>
      <point x="721" y="-6" type="curve"/>
    </contour>
    <contour>
      <point x="47" y="-7" type="curve"/>
      <point x="51" y="-6" type="line"/>
      <point x="155" y="102"/>
      <point x="258" y="219"/>
      <point x="349" y="338" type="curve"/>
      <point x="349" y="341" type="line"/>
      <point x="118" y="590" type="line"/>
      <point x="78" y="637" type="line"/>
      <point x="48" y="637" type="line"/>
      <point x="323" y="340" type="line"/>
      <point x="235" y="225"/>
      <point x="133" y="108"/>
      <point x="33" y="5" type="curve"/>
      <point x="33" y="1" type="line"/>
      <point x="36" y="-3"/>
      <point x="42" y="-5"/>
    </contour>
    <contour>
      <point x="376" y="0" type="line"/>
      <point x="396" y="0" type="line"/>
      <point x="396" y="195" type="line"/>
      <point x="396" y="637" type="line"/>
      <point x="376" y="637" type="line"/>
      <point x="376" y="195" type="line"/>
    </contour>
  </outline>
</glyph>
<glyph name="Ii-cy" format="2">
  <advance width="708"/>
  <unicode hex="0418"/>
  <anchor x="667" y="0" name="bottomright"/>
  <anchor x="354" y="637" name="top"/>
  <outline>
    <contour>
      <point x="131" y="0" type="line"/>
      <point x="150" y="0" type="line"/>
      <point x="552" y="595" type="line"/>
      <point x="557" y="595" type="line"/>
      <point x="557" y="195" type="line"/>
      <point x="557" y="0" type="line"/>
      <point x="577" y="0" type="line"/>
      <point x="577" y="195" type="line"/>
      <point x="577" y="637" type="line"/>
      <point x="558" y="637" type="line"/>
      <point x="156" y="42" type="line"/>
      <point x="151" y="42" type="line"/>
      <point x="151" y="638" type="line"/>
      <point x="131" y="636" type="line"/>
      <point x="131" y="195" type="line"/>
    </contour>
  </outline>
</glyph>
<glyph name="U-cy" format="2">
  <advance width="541"/>
  <unicode hex="0423"/>
  <anchor x="271" y="637" name="top"/>
  <outline>
    <contour>
      <point x="97" y="10" type="line"/>
      <point x="98" y="3"/>
      <point x="99" y="0"/>
      <point x="101" y="-6" type="curve"/>
      <point x="107" y="-6" type="line"/>
      <point x="219" y="13"/>
      <point x="242" y="35"/>
      <point x="309" y="183" type="curve" smooth="yes"/>
      <point x="513" y="636" type="line"/>
      <point x="489" y="636" type="line"/>
      <point x="471" y="593" type="line"/>
      <point x="290" y="189" type="line" smooth="yes"/>
      <point x="228" y="52"/>
      <point x="208" y="34"/>
      <point x="99" y="13" type="curve"/>
    </contour>
    <contour>
      <point x="287" y="154" type="line"/>
      <point x="301" y="197" type="line"/>
      <point x="288" y="197" type="line"/>
      <point x="80" y="593" type="line"/>
      <point x="61" y="637" type="line"/>
      <point x="36" y="636" type="line"/>
    </contour>
  </outline>
</glyph>
<glyph name="Softsign-cy" format="2">
  <advance width="510"/>
  <unicode hex="042C"/>
  <outline>
    <contour>
      <point x="141" y="0" type="line"/>
      <point x="240" y="0" type="line"/>
      <point x="386" y="0"/>
      <point x="465" y="65"/>
      <point x="465" y="186" type="curve" smooth="yes"/>
      <point x="465" y="292"/>
      <point x="404" y="351"/>
      <point x="289" y="351" type="curve" smooth="yes"/>
      <point x="141" y="351" type="line"/>
      <point x="141" y="331" type="line"/>
      <point x="286" y="331" type="line" smooth="yes"/>
      <point x="391" y="331"/>
      <point x="445" y="279"/>
      <point x="445" y="185" type="curve" smooth="yes"/>
      <point x="445" y="86"/>
      <point x="385" y="29"/>
      <point x="270" y="20" type="curve"/>
      <point x="141" y="20" type="line"/>
    </contour>
    <contour>
      <point x="131" y="0" type="line"/>
      <point x="151" y="0" type="line"/>
      <point x="151" y="195" type="line"/>
      <point x="151" y="637" type="line"/>
      <point x="131" y="637" type="line"/>
      <point x="131" y="195" type="line"/>
    </contour>
  </outline>
</glyph>
<glyph name="Ereversed-cy" format="2">
  <advance width="579"/>
  <unicode hex="042D"/>
  <outline>
    <contour>
      <point x="235" y="-5" type="curve" smooth="yes"/>
      <point x="408" y="-5"/>
      <point x="502" y="117"/>
      <point x="502" y="325" type="curve" smooth="yes"/>
      <point x="502" y="532"/>
      <point x="412" y="641"/>
      <point x="247" y="641" type="curve" smooth="yes"/>
      <point x="184" y="641"/>
      <point x="114" y="617"/>
      <point x="58" y="574" type="curve"/>
      <point x="56" y="556" type="line"/>
      <point x="63" y="554" type="line"/>
      <point x="116" y="597"/>
      <point x="184" y="621"/>
      <point x="247" y="621" type="curve" smooth="yes"/>
      <point x="399" y="621"/>
      <point x="482" y="520"/>
      <point x="482" y="326" type="curve" smooth="yes"/>
      <point x="482" y="130"/>
      <point x="396" y="15"/>
      <point x="235" y="15" type="curve" smooth="yes"/>
      <point x="175" y="15"/>
      <point x="117" y="35"/>
      <point x="73" y="71" type="curve"/>
      <point x="65" y="71" type="line"/>
      <point x="58" y="54" type="line"/>
      <point x="107" y="16"/>
      <point x="172" y="-5"/>
    </contour>
    <contour>
      <point x="138" y="322" type="line"/>
      <point x="345" y="322" type="line"/>
      <point x="489" y="322" type="line"/>
      <point x="492" y="338" type="line"/>
      <point x="486" y="342" type="line"/>
      <point x="346" y="342" type="line"/>
      <point x="135" y="342" type="line"/>
      <point x="133" y="326" type="line"/>
    </contour>
  </outline>
</glyph>
<glyph name="ve-cy" format="2">
  <advance width="441"/>
  <unicode hex="0432"/>
  <outline>
    <contour>
      <point x="208" y="453" type="curve"/>
      <point x="101" y="452" type="line"/>
      <point x="109" y="433" type="line"/>
      <point x="143" y="433"/>
      <point x="180" y="433"/>
      <point x="214" y="433" type="curve" smooth="yes"/>
      <point x="289" y="433"/>
      <point x="335" y="401"/>
      <point x="335" y="347" type="curve" smooth="yes"/>
      <point x="335" y="291"/>
      <point x="298" y="254"/>
      <point x="230" y="243" type="curve"/>
      <point x="111" y="245" type="line"/>
      <point x="111" y="224" type="line"/>
      <point x="238" y="224" type="line"/>
      <point x="321" y="218"/>
      <point x="364" y="184"/>
      <point x="364" y="126" type="curve" smooth="yes"/>
      <point x="364" y="55"/>
      <point x="304" y="17"/>
      <point x="193" y="17" type="curve" smooth="yes"/>
      <point x="159" y="17"/>
      <point x="129" y="18"/>
      <point x="110" y="20" type="curve"/>
      <point x="101" y="0" type="line"/>
      <point x="139" y="-1"/>
      <point x="167" y="-2"/>
      <point x="196" y="-2" type="curve" smooth="yes"/>
      <point x="320" y="-2"/>
      <point x="385" y="42"/>
      <point x="385" y="125" type="curve" smooth="yes"/>
      <point x="385" y="186"/>
      <point x="346" y="225"/>
      <point x="273" y="238" type="curve"/>
      <point x="328" y="257"/>
      <point x="357" y="296"/>
      <point x="357" y="348" type="curve" smooth="yes"/>
      <point x="357" y="416"/>
      <point x="304" y="453"/>
    </contour>
    <contour>
      <point x="101" y="0" type="line"/>
      <point x="121" y="0" type="line"/>
      <point x="121" y="196" type="line"/>
      <point x="121" y="452" type="line"/>
      <point x="101" y="452" type="line"/>
      <point x="101" y="196" type="line"/>
    </contour>
  </outline>
</glyph>
<glyph name="de-cy" format="2">
  <advance width="467"/>
  <unicode hex="0434"/>
  <anchor x="362" y="0" name="_bottomright"/>
  <outline>
    <contour>
      <point x="66" y="11" type="line"/>
      <point x="124" y="47"/>
      <point x="152" y="140"/>
      <point x="170" y="384" type="curve" smooth="yes"/>
      <point x="175" y="452" type="line"/>
      <point x="155" y="452" type="line"/>
      <point x="150" y="387" type="line" smooth="yes"/>
      <point x="131" y="148"/>
      <point x="110" y="59"/>
      <point x="51" y="20" type="curve"/>
    </contour>
    <contour>
      <point x="51" y="0" type="line"/>
      <point x="335" y="0" type="line"/>
      <point x="335" y="20" type="line"/>
      <point x="51" y="20" type="line"/>
    </contour>
    <contour>
      <point x="163" y="433" type="line"/>
      <point x="336" y="433" type="line"/>
      <point x="336" y="452" type="line"/>
      <point x="156" y="452" type="line"/>
    </contour>
    <contour>
      <point x="326" y="0" type="line"/>
      <point x="346" y="0" type="line"/>
      <point x="346" y="196" type="line"/>
      <point x="346" y="452" type="line"/>
      <point x="326" y="452" type="line"/>
      <point x="326" y="196" type="line"/>
    </contour>
    <contour>
      <point x="401" y="-101" type="line"/>
      <point x="421" y="-97" type="line"/>
      <point x="421" y="20" type="line"/>
      <point x="401" y="20" type="line"/>
    </contour>
    <contour>
      <point x="329" y="0" type="line"/>
      <point x="421" y="0" type="line"/>
      <point x="421" y="20" type="line"/>
      <point x="329" y="20" type="line"/>
    </contour>
    <contour>
      <point x="104" y="0" type="line"/>
      <point x="104" y="20" type="line"/>
      <point x="12" y="20" type="line"/>
      <point x="12" y="0" type="line"/>
    </contour>
    <contour>
      <point x="12" y="-101" type="line"/>
      <point x="32" y="-97" type="line"/>
      <point x="32" y="20" type="line"/>
      <point x="12" y="20" type="line"/>
    </contour>
  </outline>
</glyph>
<glyph name="zhe-cy" format="2">
  <advance width="578"/>
  <unicode hex="0436"/>
  <anchor x="560" y="0" name="bottomright"/>
  <anchor x="290" y="452" name="top"/>
  <outline>
    <contour>
      <point x="545" y="-7" type="line"/>
      <point x="550" y="-5"/>
      <point x="556" y="-3"/>
      <point x="559" y="1" type="curve"/>
      <point x="559" y="5" type="line"/>
      <point x="484" y="78"/>
      <point x="406" y="163"/>
      <point x="336" y="241" type="curve"/>
      <point x="543" y="452" type="line"/>
      <point x="513" y="452" type="line"/>
      <point x="484" y="418" type="line"/>
      <point x="310" y="243" type="line"/>
      <point x="310" y="238" type="line"/>
      <point x="384" y="154"/>
      <point x="463" y="72"/>
      <point x="541" y="-6" type="curve"/>
    </contour>
    <contour>
      <point x="33" y="-7" type="curve"/>
      <point x="37" y="-6" type="line"/>
      <point x="115" y="72"/>
      <point x="194" y="154"/>
      <point x="268" y="238" type="curve"/>
      <point x="268" y="243" type="line"/>
      <point x="94" y="418" type="line"/>
      <point x="65" y="452" type="line"/>
      <point x="35" y="452" type="line"/>
      <point x="242" y="241" type="line"/>
      <point x="172" y="163"/>
      <point x="94" y="78"/>
      <point x="19" y="5" type="curve"/>
      <point x="19" y="1" type="line"/>
      <point x="22" y="-3"/>
      <point x="28" y="-5"/>
    </contour>
    <contour>
      <point x="279" y="0" type="line"/>
      <point x="299" y="0" type="line"/>
      <point x="299" y="196" type="line"/>
      <point x="299" y="452" type="line"/>
      <point x="279" y="452" type="line"/>
      <point x="279" y="196" type="line"/>
    </contour>
  </outline>
</glyph>
<glyph name="ze-cy" format="2">
  <advance width="380"/>
  <unicode hex="0437"/>
  <anchor x="183" y="0" name="bottom"/>
  <anchor x="194" y="452" name="top"/>
  <outline>
    <contour>
      <point x="171" y="-5" type="curve" smooth="yes"/>
      <point x="259" y="-5"/>
      <point x="322" y="48"/>
      <point x="322" y="125" type="curve" smooth="yes"/>
      <point x="322" y="191"/>
      <point x="277" y="232"/>
      <point x="202" y="241" type="curve"/>
      <point x="203" y="231" type="line"/>
      <point x="260" y="248"/>
      <point x="295" y="298"/>
      <point x="295" y="352" type="curve" smooth="yes"/>
      <point x="295" y="414"/>
      <point x="247" y="455"/>
      <point x="176" y="455" type="curve" smooth="yes"/>
      <point x="134" y="455"/>
      <point x="90" y="439"/>
      <point x="53" y="411" type="curve"/>
      <point x="52" y="392" type="line"/>
      <point x="57" y="391" type="line"/>
      <point x="89" y="418"/>
      <point x="130" y="435"/>
      <point x="174" y="435" type="curve" smooth="yes"/>
      <point x="234" y="435"/>
      <point x="274" y="403"/>
      <point x="274" y="350" type="curve" smooth="yes"/>
      <point x="274" y="302"/>
      <point x="242" y="260"/>
      <point x="197" y="245" type="curve"/>
      <point x="110" y="245" type="line"/>
      <point x="108" y="229" type="line"/>
      <point x="112" y="226" type="line"/>
      <point x="198" y="226" type="line"/>
      <point x="262" y="217"/>
      <point x="301" y="180"/>
      <point x="301" y="125" type="curve" smooth="yes"/>
      <point x="301" y="60"/>
      <point x="246" y="15"/>
      <point x="171" y="15" type="curve" smooth="yes"/>
      <point x="128" y="15"/>
      <point x="89" y="29"/>
      <point x="61" y="56" type="curve"/>
      <point x="57" y="55" type="line"/>
      <point x="51" y="38" type="line"/>
      <point x="80" y="11"/>
      <point x="124" y="-5"/>
    </contour>
  </outline>
</glyph>
<glyph name="ii-cy" format="2">
  <advance width="510"/>
  <unicode hex="0438"/>
  <anchor x="493" y="0" name="bottomright"/>
  <anchor x="257" y="452" name="top"/>
  <outline>
    <contour>
      <point x="101" y="0" type="line"/>
      <point x="122" y="0" type="line"/>
      <point x="385" y="410" type="line"/>
      <point x="389" y="410" type="line"/>
      <point x="389" y="195" type="line"/>
      <point x="389" y="0" type="line"/>
      <point x="409" y="0" type="line"/>
      <point x="409" y="196" type="line"/>
      <point x="409" y="452" type="line"/>
      <point x="388" y="452" type="line"/>
      <point x="125" y="42" type="line"/>
      <point x="121" y="42" type="line"/>
      <point x="121" y="453" type="line"/>
      <point x="101" y="451" type="line"/>
      <point x="101" y="196" type="line"/>
    </contour>
  </outline>
</glyph>
<glyph name="el-cy" format="2">
  <advance width="441"/>
  <unicode hex="043B"/>
  <outline>
    <contour>
      <point x="22" y="-9" type="line"/>
      <point x="31" y="-5" type="line" smooth="yes"/>
      <point x="103" y="27"/>
      <point x="138" y="112"/>
      <point x="158" y="384" type="curve" smooth="yes"/>
      <point x="163" y="452" type="line"/>
      <point x="144" y="452" type="line"/>
      <point x="139" y="387" type="line" smooth="yes"/>
      <point x="118" y="118"/>
      <point x="92" y="38"/>
      <point x="16" y="8" type="curve"/>
    </contour>
    <contour>
      <point x="151" y="433" type="line"/>
      <point x="330" y="433" type="line"/>
      <point x="330" y="452" type="line"/>
      <point x="144" y="452" type="line"/>
    </contour>
    <contour>
      <point x="320" y="0" type="line"/>
      <point x="340" y="0" type="line"/>
      <point x="340" y="196" type="line"/>
      <point x="340" y="452" type="line"/>
      <point x="320" y="452" type="line"/>
      <point x="320" y="196" type="line"/>
    </contour>
  </outline>
</glyph>
<glyph name="em-cy" format="2">
  <advance width="602"/>
  <unicode hex="043C"/>
  <outline>
    <contour>
      <point x="77" y="0" type="line"/>
      <point x="97" y="0" type="line"/>
      <point x="114" y="156" type="line"/>
      <point x="142" y="409" type="line"/>
      <point x="145" y="409" type="line"/>
      <point x="287" y="57" type="line"/>
      <point x="310" y="57" type="line"/>
      <point x="458" y="409" type="line"/>
      <point x="461" y="409" type="line"/>
      <point x="488" y="145" type="line"/>
      <point x="504" y="0" type="line"/>
      <point x="524" y="0" type="line"/>
      <point x="477" y="452" type="line"/>
      <point x="455" y="452" type="line"/>
      <point x="428" y="387" type="line"/>
      <point x="301" y="86" type="line"/>
      <point x="297" y="86" type="line"/>
      <point x="178" y="380" type="line"/>
      <point x="149" y="452" type="line"/>
      <point x="127" y="452" type="line"/>
    </contour>
  </outline>
</glyph>
<glyph name="pe-cy" format="2">
  <advance width="504"/>
  <unicode hex="043F"/>
  <anchor x="382" y="0" name="bottomright"/>
  <outline>
    <contour>
      <point x="382" y="0" type="line"/>
      <point x="403" y="0" type="line"/>
      <point x="403" y="139" type="line"/>
      <point x="403" y="452" type="line"/>
      <point x="382" y="452" type="line"/>
      <point x="383" y="138" type="line"/>
    </contour>
    <contour>
      <point x="101" y="0" type="line"/>
      <point x="122" y="0" type="line"/>
      <point x="122" y="139" type="line"/>
      <point x="122" y="452" type="line"/>
      <point x="101" y="452" type="line"/>
      <point x="101" y="138" type="line"/>
    </contour>
    <contour>
      <point x="110" y="432" type="line"/>
      <point x="394" y="432" type="line"/>
      <point x="394" y="452" type="line"/>
      <point x="110" y="452" type="line"/>
    </contour>
  </outline>
</glyph>
<glyph name="te-cy" format="2">
  <advance width="327"/>
  <unicode hex="0442"/>
  <anchor x="298" y="0" name="bottomright"/>
  <outline>
    <contour>
      <point x="330" y="452" type="line"/>
      <point x="-2" y="452" type="line"/>
      <point x="-5" y="436" type="line"/>
      <point x="-3" y="432" type="line"/>
      <point x="75" y="433" type="line"/>
      <point x="254" y="433" type="line"/>
      <point x="330" y="432" type="line"/>
      <point x="333" y="449" type="line"/>
    </contour>
    <contour>
      <point x="154" y="0" type="line"/>
      <point x="174" y="0" type="line"/>
      <point x="174" y="196" type="line"/>
      <point x="174" y="452" type="line"/>
      <point x="154" y="452" type="line"/>
      <point x="154" y="196" type="line"/>
    </contour>
  </outline>
</glyph>
<glyph name="ef-cy" format="2">
  <advance width="554"/>
  <unicode hex="0444"/>
  <outline>
    <contour>
      <point x="273" y="-5" type="curve" smooth="yes"/>
      <point x="421" y="-5"/>
      <point x="503" y="80"/>
      <point x="503" y="230" type="curve" smooth="yes"/>
      <point x="503" y="376"/>
      <point x="424" y="457"/>
      <point x="281" y="457" type="curve" smooth="yes"/>
      <point x="133" y="457"/>
      <point x="51" y="372"/>
      <point x="51" y="222" type="curve" smooth="yes"/>
      <point x="51" y="76"/>
      <point x="130" y="-5"/>
    </contour>
    <contour>
      <point x="267" y="-185" type="line"/>
      <point x="287" y="-185" type="line"/>
      <point x="287" y="196" type="line"/>
      <point x="287" y="637" type="line"/>
      <point x="267" y="633" type="line"/>
      <point x="267" y="196" type="line"/>
    </contour>
    <contour>
      <point x="272" y="15" type="curve" smooth="yes"/>
      <point x="142" y="15"/>
      <point x="71" y="89"/>
      <point x="71" y="222" type="curve" smooth="yes"/>
      <point x="71" y="361"/>
      <point x="145" y="437"/>
      <point x="282" y="437" type="curve" smooth="yes"/>
      <point x="412" y="437"/>
      <point x="483" y="363"/>
      <point x="483" y="230" type="curve" smooth="yes"/>
      <point x="483" y="91"/>
      <point x="409" y="15"/>
    </contour>
  </outline>
</glyph>
<glyph name="tse-cy" format="2">
  <advance width="519"/>
  <unicode hex="0446"/>
  <anchor x="377" y="0" name="bottomright"/>
  <outline>
    <contour>
      <point x="112" y="21" type="line"/>
      <point x="112" y="0" type="line"/>
      <point x="387" y="0" type="line"/>
      <point x="387" y="20" type="line"/>
    </contour>
    <contour>
      <point x="101" y="0" type="line"/>
      <point x="121" y="0" type="line"/>
      <point x="121" y="196" type="line"/>
      <point x="121" y="452" type="line"/>
      <point x="101" y="452" type="line"/>
      <point x="101" y="196" type="line"/>
    </contour>
    <contour>
      <point x="377" y="0" type="line"/>
      <point x="397" y="0" type="line"/>
      <point x="397" y="196" type="line"/>
      <point x="397" y="452" type="line"/>
      <point x="377" y="452" type="line"/>
      <point x="377" y="196" type="line"/>
    </contour>
    <component base="descender-cy" xOffset="322"/>
  </outline>
</glyph>
<glyph name="ia-cy" format="2">
  <advance width="427"/>
  <unicode hex="044F"/>
  <outline>
    <contour>
      <point x="196" y="184" type="curve"/>
      <point x="317" y="184" type="line"/>
      <point x="317" y="203" type="line"/>
      <point x="198" y="203" type="line"/>
      <point x="130" y="214"/>
      <point x="94" y="256"/>
      <point x="94" y="318" type="curve" smooth="yes"/>
      <point x="94" y="388"/>
      <point x="142" y="433"/>
      <point x="217" y="433" type="curve"/>
      <point x="318" y="432" type="line"/>
      <point x="326" y="452" type="line"/>
      <point x="220" y="453" type="line"/>
      <point x="129" y="453"/>
      <point x="73" y="401"/>
      <point x="73" y="318" type="curve" smooth="yes"/>
      <point x="73" y="247"/>
      <point x="116" y="198"/>
    </contour>
    <contour>
      <point x="59" y="-5" type="curve"/>
      <point x="65" y="-3" type="line"/>
      <point x="123" y="67"/>
      <point x="172" y="133"/>
      <point x="212" y="197" type="curve"/>
      <point x="189" y="197" type="line"/>
      <point x="154" y="139"/>
      <point x="106" y="77"/>
      <point x="45" y="5" type="curve"/>
      <point x="45" y="2" type="line"/>
      <point x="50" y="-2"/>
      <point x="53" y="-4"/>
    </contour>
    <contour>
      <point x="306" y="0" type="line"/>
      <point x="326" y="0" type="line"/>
      <point x="326" y="196" type="line"/>
      <point x="326" y="452" type="line"/>
      <point x="306" y="452" type="line"/>
      <point x="306" y="196" type="line"/>
    </contour>
  </outline>
</glyph>
<glyph name="Yat-cy" format="2">
  <advance width="570"/>
  <unicode hex="0462"/>
  <outline>
    <contour>
      <point x="196" y="0" type="line"/>
      <point x="295" y="0" type="line"/>
      <point x="441" y="0"/>
      <point x="520" y="55"/>
      <point x="520" y="176" type="curve" smooth="yes"/>
      <point x="520" y="282"/>
      <point x="459" y="331"/>
      <point x="344" y="331" type="curve" smooth="yes"/>
      <point x="196" y="331" type="line"/>
      <point x="196" y="311" type="line"/>
      <point x="341" y="311" type="line" smooth="yes"/>
      <point x="446" y="311"/>
      <point x="500" y="269"/>
      <point x="500" y="175" type="curve" smooth="yes"/>
      <point x="500" y="76"/>
      <point x="440" y="29"/>
      <point x="325" y="20" type="curve"/>
      <point x="196" y="20" type="line"/>
    </contour>
    <contour>
      <point x="186" y="0" type="line"/>
      <point x="206" y="0" type="line"/>
      <point x="206" y="195" type="line"/>
      <point x="206" y="700" type="line"/>
      <point x="186" y="700" type="line"/>
      <point x="186" y="195" type="line"/>
    </contour>
    <contour>
      <point x="432" y="585" type="line"/>
      <point x="20" y="585" type="line"/>
      <point x="16" y="569" type="line"/>
      <point x="19" y="565" type="line"/>
      <point x="123" y="565" type="line"/>
      <point x="330" y="565" type="line"/>
      <point x="431" y="565" type="line"/>
      <point x="435" y="581" type="line"/>
    </contour>
  </outline>
</glyph>
<glyph name="yat-cy" format="2">
  <advance width="440"/>
  <unicode hex="0463"/>
  <outline>
    <contour>
      <point x="139" y="0" type="line"/>
      <point x="159" y="0" type="line"/>
      <point x="159" y="195" type="line"/>
      <point x="159" y="702" type="line"/>
      <point x="139" y="698" type="line"/>
      <point x="139" y="195" type="line"/>
    </contour>
    <contour>
      <point x="7" y="432" type="line"/>
      <point x="85" y="433" type="line"/>
      <point x="254" y="433" type="line"/>
      <point x="330" y="432" type="line"/>
      <point x="333" y="449" type="line"/>
      <point x="330" y="452" type="line"/>
      <point x="8" y="452" type="line"/>
      <point x="5" y="436" type="line"/>
    </contour>
    <contour>
      <point x="149" y="0" type="line"/>
      <point x="227" y="0" type="line"/>
      <point x="341" y="0"/>
      <point x="403" y="47"/>
      <point x="403" y="134" type="curve" smooth="yes"/>
      <point x="403" y="210"/>
      <point x="355" y="252"/>
      <point x="267" y="252" type="curve" smooth="yes"/>
      <point x="149" y="252" type="line"/>
      <point x="149" y="233" type="line"/>
      <point x="263" y="233" type="line" smooth="yes"/>
      <point x="341" y="233"/>
      <point x="381" y="197"/>
      <point x="381" y="132" type="curve" smooth="yes"/>
      <point x="381" y="64"/>
      <point x="337" y="25"/>
      <point x="251" y="19" type="curve"/>
      <point x="149" y="19" type="line"/>
    </contour>
  </outline>
</glyph>
<glyph name="Izhitsa-cy" format="2">
  <advance width="586"/>
  <unicode hex="0474"/>
  <outline>
    <contour>
      <point x="268" y="0" type="line"/>
      <point x="288" y="0" type="line"/>
      <point x="492" y="531" type="line" smooth="yes"/>
      <point x="518" y="599"/>
      <point x="532" y="616"/>
      <point x="562" y="615" type="curve"/>
      <point x="565" y="619" type="line"/>
      <point x="563" y="637" type="line"/>
      <point x="526" y="640"/>
      <point x="506" y="617"/>
      <point x="475" y="537" type="curve" smooth="yes"/>
      <point x="280" y="34" type="line"/>
      <point x="277" y="34" type="line"/>
      <point x="72" y="594" type="line"/>
      <point x="59" y="637" type="line"/>
      <point x="36" y="637" type="line"/>
    </contour>
  </outline>
</glyph>
<glyph name="Gheupturn-cy" format="2">
  <advance width="447"/>
  <unicode hex="0490"/>
  <outline>
    <contour>
      <point x="131" y="0" type="line"/>
      <point x="151" y="0" type="line"/>
      <point x="151" y="195" type="line"/>
      <point x="151" y="637" type="line"/>
      <point x="131" y="637" type="line"/>
      <point x="131" y="195" type="line"/>
    </contour>
    <contour>
      <point x="143" y="617" type="line"/>
      <point x="287" y="617" type="line"/>
      <point x="428" y="617" type="line"/>
      <point x="426" y="637" type="line"/>
      <point x="143" y="637" type="line"/>
    </contour>
    <contour>
      <point x="428" y="617" type="line"/>
      <point x="434" y="736" type="line"/>
      <point x="415" y="735" type="line"/>
      <point x="409" y="619" type="line"/>
    </contour>
  </outline>
</glyph>
<glyph name="Ghestroke-cy" format="2">
  <advance width="458"/>
  <unicode hex="0492"/>
  <outline>
    <contour>
      <point x="162" y="637" type="line"/>
      <point x="142" y="637" type="line"/>
      <point x="142" y="195" type="line"/>
      <point x="142" y="0" type="line"/>
      <point x="162" y="0" type="line"/>
      <point x="162" y="195" type="line"/>
    </contour>
    <contour>
      <point x="430" y="637" type="line"/>
      <point x="154" y="637" type="line"/>
      <point x="150" y="621" type="line"/>
      <point x="154" y="617" type="line"/>
      <point x="298" y="617" type="line"/>
      <point x="429" y="617" type="line"/>
      <point x="433" y="633" type="line"/>
    </contour>
    <contour>
      <point x="324.9072" y="329" type="line"/>
      <point x="62.9384" y="329" type="line"/>
      <point x="61.2856" y="312" type="line"/>
      <point x="63.76480000000001" y="309" type="line"/>
      <point x="325.7336" y="309" type="line"/>
      <point x="327.38640000000004" y="326" type="line"/>
    </contour>
  </outline>
</glyph>
<glyph name="ghestroke-cy" format="2">
  <advance width="321"/>
  <unicode hex="0493"/>
  <outline>
    <contour>
      <point x="101" y="0" type="line"/>
      <point x="121" y="0" type="line"/>
      <point x="121" y="196" type="line"/>
      <point x="121" y="452" type="line"/>
      <point x="101" y="452" type="line"/>
      <point x="101" y="196" type="line"/>
    </contour>
    <contour>
      <point x="323" y="433" type="line"/>
      <point x="327" y="449" type="line"/>
      <point x="324" y="452" type="line"/>
      <point x="114" y="452" type="line"/>
      <point x="111" y="436" type="line"/>
      <point x="114" y="433" type="line"/>
      <point x="220" y="433" type="line"/>
    </contour>
    <contour>
      <point x="258.54" y="235" type="line"/>
      <point x="27.129999999999995" y="235" type="line"/>
      <point x="25.67" y="218" type="line"/>
      <point x="27.86" y="215" type="line"/>
      <point x="259.27" y="215" type="line"/>
      <point x="260.73" y="232" type="line"/>
    </contour>
  </outline>
</glyph>
<glyph name="Ghemiddlehook-cy" format="2">
  <advance width="580"/>
  <unicode hex="0494"/>
  <outline>
    <contour>
      <point x="372" y="-189" type="line"/>
      <point x="458" y="-115"/>
      <point x="495" y="-8"/>
      <point x="495" y="168" type="curve" smooth="yes"/>
      <point x="495" y="350"/>
      <point x="456" y="414"/>
      <point x="344" y="414" type="curve" smooth="yes"/>
      <point x="274" y="414"/>
      <point x="214" y="389"/>
      <point x="155" y="335" type="curve"/>
      <point x="141" y="335" type="line"/>
      <point x="141" y="298" type="line"/>
      <point x="205" y="363"/>
      <point x="270" y="394"/>
      <point x="342" y="394" type="curve" smooth="yes"/>
      <point x="441" y="394"/>
      <point x="475" y="336"/>
      <point x="475" y="169" type="curve" smooth="yes"/>
      <point x="475" y="1"/>
      <point x="441" y="-101"/>
      <point x="361" y="-176" type="curve"/>
      <point x="361" y="-182" type="line"/>
    </contour>
    <contour>
      <point x="131" y="0" type="line"/>
      <point x="151" y="0" type="line"/>
      <point x="151" y="195" type="line"/>
      <point x="151" y="637" type="line"/>
      <point x="131" y="637" type="line"/>
      <point x="131" y="195" type="line"/>
    </contour>
    <contour>
      <point x="143" y="617" type="line"/>
      <point x="285" y="617" type="line"/>
      <point x="428" y="617" type="line"/>
      <point x="432" y="633" type="line"/>
      <point x="429" y="637" type="line"/>
      <point x="143" y="637" type="line"/>
      <point x="139" y="621" type="line"/>
    </contour>
  </outline>
</glyph>
<glyph name="ghemiddlehook-cy" format="2">
  <advance width="445"/>
  <unicode hex="0495"/>
  <outline>
    <contour>
      <point x="282" y="-164" type="line"/>
      <point x="347" y="-96"/>
      <point x="375" y="-13"/>
      <point x="375" y="122" type="curve" smooth="yes"/>
      <point x="375" y="250"/>
      <point x="346" y="295"/>
      <point x="260" y="295" type="curve" smooth="yes"/>
      <point x="211" y="295"/>
      <point x="168" y="276"/>
      <point x="126" y="239" type="curve"/>
      <point x="115" y="239" type="line"/>
      <point x="115" y="207" type="line"/>
      <point x="161" y="253"/>
      <point x="208" y="275"/>
      <point x="260" y="275" type="curve" smooth="yes"/>
      <point x="331" y="275"/>
      <point x="355" y="234"/>
      <point x="355" y="120" type="curve" smooth="yes"/>
      <point x="355" y="-6"/>
      <point x="330" y="-84"/>
      <point x="272" y="-152" type="curve"/>
      <point x="272" y="-157" type="line"/>
    </contour>
    <contour>
      <point x="101" y="0" type="line"/>
      <point x="121" y="0" type="line"/>
      <point x="121" y="196" type="line"/>
      <point x="121" y="452" type="line"/>
      <point x="101" y="452" type="line"/>
      <point x="101" y="196" type="line"/>
    </contour>
    <contour>
      <point x="326" y="432" type="line"/>
      <point x="329" y="449" type="line"/>
      <point x="326" y="452" type="line"/>
      <point x="111" y="452" type="line"/>
      <point x="111" y="433" type="line"/>
      <point x="250" y="433" type="line"/>
    </contour>
  </outline>
</glyph>
<glyph name="Zhedescender-cy" format="2">
  <advance width="811"/>
  <unicode hex="0496"/>
  <anchor x="722" y="-6" name="bottomright"/>
  <anchor x="387" y="637" name="top"/>
  <outline>
    <contour>
      <point x="48" y="-7" type="curve"/>
      <point x="52" y="-6" type="line"/>
      <point x="156" y="102"/>
      <point x="259" y="219"/>
      <point x="350" y="338" type="curve"/>
      <point x="350" y="341" type="line"/>
      <point x="119" y="590" type="line"/>
      <point x="79" y="637" type="line"/>
      <point x="49" y="637" type="line"/>
      <point x="324" y="340" type="line"/>
      <point x="236" y="225"/>
      <point x="134" y="108"/>
      <point x="34" y="5" type="curve"/>
      <point x="34" y="1" type="line"/>
      <point x="37" y="-3"/>
      <point x="43" y="-5"/>
    </contour>
    <contour>
      <point x="763" y="-115" type="line"/>
      <point x="783" y="-111" type="line"/>
      <point x="783" y="20" type="line"/>
      <point x="763" y="15" type="line"/>
    </contour>
    <contour>
      <point x="726" y="0" type="line"/>
      <point x="783" y="0" type="line"/>
      <point x="783" y="20" type="line"/>
      <point x="726" y="20" type="line"/>
    </contour>
    <contour>
      <point x="726" y="0" type="line"/>
      <point x="740" y="8" type="line"/>
      <point x="740" y="12" type="line"/>
      <point x="640" y="115"/>
      <point x="538" y="225"/>
      <point x="450" y="340" type="curve"/>
      <point x="725" y="637" type="line"/>
      <point x="695" y="637" type="line"/>
      <point x="655" y="590" type="line"/>
      <point x="424" y="341" type="line"/>
      <point x="424" y="338" type="line"/>
      <point x="515" y="219"/>
      <point x="618" y="109"/>
      <point x="722" y="1" type="curve"/>
    </contour>
    <contour>
      <point x="377" y="0" type="line"/>
      <point x="397" y="0" type="line"/>
      <point x="397" y="195" type="line"/>
      <point x="397" y="637" type="line"/>
      <point x="377" y="637" type="line"/>
      <point x="377" y="195" type="line"/>
    </contour>
  </outline>
</glyph>
<glyph name="zhedescender-cy" format="2">
  <advance width="632"/>
  <unicode hex="0497"/>
  <outline>
    <contour>
      <point x="34" y="-7" type="curve"/>
      <point x="38" y="-6" type="line"/>
      <point x="116" y="72"/>
      <point x="195" y="154"/>
      <point x="269" y="238" type="curve"/>
      <point x="269" y="243" type="line"/>
      <point x="95" y="418" type="line"/>
      <point x="66" y="452" type="line"/>
      <point x="36" y="452" type="line"/>
      <point x="243" y="241" type="line"/>
      <point x="173" y="163"/>
      <point x="95" y="78"/>
      <point x="20" y="5" type="curve"/>
      <point x="20" y="1" type="line"/>
      <point x="23" y="-3"/>
      <point x="29" y="-5"/>
    </contour>
    <contour>
      <point x="280" y="0" type="line"/>
      <point x="300" y="0" type="line"/>
      <point x="300" y="196" type="line"/>
      <point x="300" y="452" type="line"/>
      <point x="280" y="452" type="line"/>
      <point x="280" y="196" type="line"/>
    </contour>
    <contour>
      <point x="597" y="-100" type="line"/>
      <point x="616" y="-97" type="line"/>
      <point x="616" y="19" type="line"/>
      <point x="595" y="16" type="line"/>
    </contour>
    <contour>
      <point x="559" y="0" type="line"/>
      <point x="616" y="0" type="line"/>
      <point x="616" y="19" type="line"/>
      <point x="563" y="19" type="line"/>
    </contour>
    <contour>
      <point x="559" y="0" type="line"/>
      <point x="579" y="5" type="line"/>
      <point x="579" y="9" type="line"/>
      <point x="501" y="82"/>
      <point x="426" y="160"/>
      <point x="357" y="241" type="curve"/>
      <point x="571" y="452" type="line"/>
      <point x="542" y="452" type="line"/>
      <point x="511" y="418" type="line"/>
      <point x="331" y="242" type="line"/>
      <point x="331" y="239" type="line"/>
      <point x="403" y="155"/>
      <point x="477" y="78"/>
      <point x="557" y="1" type="curve"/>
    </contour>
  </outline>
</glyph>
<glyph name="kadescender-cy" format="2">
  <advance width="453"/>
  <unicode hex="049B"/>
  <outline>
    <contour>
      <point x="178" y="241" type="curve"/>
      <point x="392" y="452" type="line"/>
      <point x="363" y="452" type="line"/>
      <point x="332" y="418" type="line"/>
      <point x="152" y="242" type="line"/>
      <point x="152" y="239" type="line"/>
      <point x="224" y="155"/>
      <point x="298" y="78"/>
      <point x="378" y="1" type="curve"/>
      <point x="380" y="0" type="line"/>
      <point x="400" y="5" type="line"/>
      <point x="400" y="9" type="line"/>
      <point x="322" y="82"/>
      <point x="247" y="160"/>
    </contour>
    <contour>
      <point x="101" y="0" type="line"/>
      <point x="121" y="0" type="line"/>
      <point x="121" y="196" type="line"/>
      <point x="121" y="453" type="line"/>
      <point x="101" y="449" type="line"/>
      <point x="101" y="196" type="line"/>
    </contour>
    <contour>
      <point x="418" y="-100" type="line"/>
      <point x="437" y="-97" type="line"/>
      <point x="437" y="19" type="line"/>
      <point x="416" y="16" type="line"/>
    </contour>
    <contour>
      <point x="380" y="0" type="line"/>
      <point x="437" y="0" type="line"/>
      <point x="437" y="19" type="line"/>
      <point x="384" y="19" type="line"/>
    </contour>
  </outline>
</glyph>
<glyph name="Kaverticalstroke-cy" format="2">
  <advance width="573"/>
  <unicode hex="049C"/>
  <anchor x="258" y="184" name="center"/>
  <outline>
    <contour>
      <point x="523" y="-7" type="line"/>
      <point x="527" y="-5"/>
      <point x="533" y="-3"/>
      <point x="536" y="1" type="curve"/>
      <point x="536" y="5" type="line"/>
      <point x="446" y="108"/>
      <point x="356" y="226"/>
      <point x="277" y="341" type="curve"/>
      <point x="521" y="637" type="line"/>
      <point x="492" y="637" type="line"/>
      <point x="458" y="590" type="line"/>
      <point x="251" y="341" type="line"/>
      <point x="251" y="338" type="line"/>
      <point x="334" y="219"/>
      <point x="426" y="102"/>
      <point x="519" y="-6" type="curve"/>
    </contour>
    <contour>
      <point x="130" y="0" type="line"/>
      <point x="150" y="0" type="line"/>
      <point x="150" y="195" type="line"/>
      <point x="150" y="637" type="line"/>
      <point x="130" y="637" type="line"/>
      <point x="130" y="195" type="line"/>
    </contour>
    <contour>
      <point x="140" y="329" type="line"/>
      <point x="269" y="329" type="line"/>
      <point x="269" y="349" type="line"/>
      <point x="140" y="349" type="line"/>
    </contour>
    <contour>
      <point x="209" y="173" type="line"/>
      <point x="226" y="175" type="line"/>
      <point x="226" y="492" type="line"/>
      <point x="223" y="495" type="line"/>
      <point x="206" y="493" type="line"/>
      <point x="206" y="176" type="line"/>
    </contour>
  </outline>
</glyph>
<glyph name="kaverticalstroke-cy" format="2">
  <advance width="439"/>
  <unicode hex="049D"/>
  <outline>
    <contour>
      <point x="399" y="-7" type="line"/>
      <point x="404" y="-5"/>
      <point x="410" y="-3"/>
      <point x="413" y="1" type="curve"/>
      <point x="413" y="5" type="line"/>
      <point x="350" y="78"/>
      <point x="283" y="162"/>
      <point x="224" y="244" type="curve"/>
      <point x="397" y="452" type="line"/>
      <point x="367" y="452" type="line"/>
      <point x="344" y="418" type="line"/>
      <point x="200" y="243" type="line"/>
      <point x="200" y="238" type="line"/>
      <point x="263" y="154"/>
      <point x="329" y="72"/>
      <point x="395" y="-6" type="curve"/>
    </contour>
    <contour>
      <point x="101" y="0" type="line"/>
      <point x="121" y="0" type="line"/>
      <point x="121" y="196" type="line"/>
      <point x="121" y="453" type="line"/>
      <point x="101" y="449" type="line"/>
      <point x="101" y="196" type="line"/>
    </contour>
    <contour>
      <point x="112" y="231" type="line"/>
      <point x="213" y="231" type="line"/>
      <point x="213" y="250" type="line"/>
      <point x="112" y="250" type="line"/>
    </contour>
    <contour>
      <point x="165" y="121" type="line"/>
      <point x="180" y="122" type="line"/>
      <point x="180" y="351" type="line"/>
      <point x="177" y="353" type="line"/>
      <point x="162" y="352" type="line"/>
      <point x="162" y="123" type="line"/>
    </contour>
  </outline>
</glyph>
<glyph name="Ustraitstroke-cy" format="2">
  <advance width="495"/>
  <unicode hex="04B0"/>
  <outline>
    <contour>
      <point x="466" y="637" type="line"/>
      <point x="440" y="637" type="line"/>
      <point x="429" y="611" type="line"/>
      <point x="241" y="277" type="line"/>
      <point x="236" y="277" type="line"/>
      <point x="63" y="611" type="line"/>
      <point x="52" y="637" type="line"/>
      <point x="26" y="637" type="line"/>
      <point x="234" y="234" type="line"/>
      <point x="242" y="234" type="line"/>
    </contour>
    <contour>
      <point x="248" y="267" type="line"/>
      <point x="228" y="267" type="line"/>
      <point x="228" y="195" type="line"/>
      <point x="228" y="0" type="line"/>
      <point x="248" y="0" type="line"/>
      <point x="248" y="195" type="line"/>
    </contour>
    <contour>
      <point x="372.3" y="194" type="line"/>
      <point x="102.85" y="194" type="line"/>
      <point x="101.14999999999999" y="177" type="line"/>
      <point x="103.7" y="174" type="line"/>
      <point x="373.15" y="174" type="line"/>
      <point x="374.84999999999997" y="191" type="line"/>
    </contour>
  </outline>
</glyph>
<glyph name="ustraitstroke-cy" format="2">
  <advance width="443"/>
  <unicode hex="04B1"/>
  <outline>
    <contour>
      <point x="206" y="-5" type="line"/>
      <point x="221" y="-5" type="line"/>
      <point x="407" y="452" type="line"/>
      <point x="383" y="452" type="line"/>
      <point x="368" y="409" type="line"/>
      <point x="217" y="35" type="line"/>
      <point x="213" y="35" type="line"/>
      <point x="83" y="409" type="line"/>
      <point x="70" y="454" type="line"/>
      <point x="49" y="450" type="line"/>
    </contour>
    <contour>
      <point x="204" y="-185" type="line"/>
      <point x="224" y="-185" type="line"/>
      <point x="224" y="27" type="line"/>
      <point x="204" y="27" type="line"/>
    </contour>
    <contour>
      <point x="348.32" y="-3" type="line"/>
      <point x="82.03999999999999" y="-3" type="line"/>
      <point x="80.36" y="-20" type="line"/>
      <point x="82.88" y="-23" type="line"/>
      <point x="349.15999999999997" y="-23" type="line"/>
      <point x="350.84" y="-6" type="line"/>
    </contour>
  </outline>
</glyph>
<glyph name="Hadescender-cy" format="2">
  <advance width="594"/>
  <unicode hex="04B2"/>
  <anchor x="502" y="0" name="bottomright"/>
  <outline>
    <contour>
      <point x="510" y="637" type="line"/>
      <point x="483" y="637" type="line"/>
      <point x="459" y="597" type="line"/>
      <point x="285" y="346" type="line"/>
      <point x="107" y="602" type="line"/>
      <point x="85" y="637" type="line"/>
      <point x="57" y="637" type="line"/>
      <point x="272" y="330" type="line"/>
      <point x="43" y="0" type="line"/>
      <point x="70" y="0" type="line"/>
      <point x="92" y="36" type="line"/>
      <point x="285" y="314" type="line"/>
      <point x="478" y="38" type="line"/>
      <point x="502" y="0" type="line"/>
      <point x="529" y="0" type="line"/>
      <point x="298" y="330" type="line"/>
    </contour>
    <contour>
      <point x="543" y="-115" type="line"/>
      <point x="563" y="-111" type="line"/>
      <point x="563" y="20" type="line"/>
      <point x="543" y="20" type="line"/>
    </contour>
    <contour>
      <point x="502" y="0" type="line"/>
      <point x="563" y="0" type="line"/>
      <point x="563" y="20" type="line"/>
      <point x="502" y="20" type="line"/>
    </contour>
  </outline>
</glyph>
<glyph name="Cheverticalstroke-cy" format="2">
  <advance width="581"/>
  <unicode hex="04B8"/>
  <outline>
    <contour>
      <point x="450" y="637" type="line"/>
      <point x="429" y="637" type="line"/>
      <point x="429" y="195" type="line"/>
      <point x="429" y="0" type="line"/>
      <point x="450" y="0" type="line"/>
      <point x="449" y="195" type="line"/>
    </contour>
    <contour>
      <point x="440" y="346" type="line"/>
      <point x="376" y="277"/>
      <point x="313" y="246"/>
      <point x="238" y="246" type="curve" smooth="yes"/>
      <point x="143" y="246"/>
      <point x="95" y="290"/>
      <point x="95" y="383" type="curve" smooth="yes"/>
      <point x="95" y="637" type="line"/>
      <point x="75" y="637" type="line"/>
      <point x="75" y="380" type="line" smooth="yes"/>
      <point x="75" y="274"/>
      <point x="128" y="226"/>
      <point x="242" y="226" type="curve"/>
      <point x="310" y="226"/>
      <point x="371" y="253"/>
      <point x="425" y="305" type="curve"/>
      <point x="440" y="305" type="line"/>
    </contour>
    <contour>
      <point x="254" y="135" type="line"/>
      <point x="271" y="137" type="line"/>
      <point x="271" y="454" type="line"/>
      <point x="268" y="457" type="line"/>
      <point x="251" y="455" type="line"/>
      <point x="251" y="138" type="line"/>
    </contour>
  </outline>
</glyph>
<glyph name="cheverticalstroke-cy" format="2">
  <advance width="448"/>
  <unicode hex="04B9"/>
  <outline>
    <contour>
      <point x="181" y="158" type="curve"/>
      <point x="235" y="160"/>
      <point x="282" y="179"/>
      <point x="323" y="214" type="curve"/>
      <point x="336" y="214" type="line"/>
      <point x="336" y="249" type="line"/>
      <point x="286" y="201"/>
      <point x="236" y="178"/>
      <point x="178" y="178" type="curve" smooth="yes"/>
      <point x="103" y="178"/>
      <point x="70" y="212"/>
      <point x="70" y="284" type="curve" smooth="yes"/>
      <point x="70" y="452" type="line"/>
      <point x="50" y="452" type="line"/>
      <point x="50" y="280" type="line" smooth="yes"/>
      <point x="50" y="195"/>
      <point x="88" y="158"/>
    </contour>
    <contour>
      <point x="189" y="100" type="line"/>
      <point x="207" y="102" type="line"/>
      <point x="207" y="330" type="line"/>
      <point x="205" y="332" type="line"/>
      <point x="187" y="331" type="line"/>
      <point x="187" y="102" type="line"/>
    </contour>
    <contour>
      <point x="327" y="0" type="line"/>
      <point x="347" y="0" type="line"/>
      <point x="347" y="196" type="line"/>
      <point x="347" y="452" type="line"/>
      <point x="327" y="452" type="line"/>
      <point x="327" y="196" type="line"/>
    </contour>
  </outline>
</glyph>
<glyph name="chekhakassian-cy" format="2">
  <advance width="437"/>
  <unicode hex="04CC"/>
  <anchor x="316" y="0" name="bottomright"/>
  <anchor x="192" y="452" name="top"/>
  <outline>
    <contour>
      <point x="177" y="158" type="curve"/>
      <point x="228" y="160"/>
      <point x="273" y="179"/>
      <point x="312" y="214" type="curve"/>
      <point x="324" y="214" type="line"/>
      <point x="324" y="249" type="line"/>
      <point x="277" y="201"/>
      <point x="229" y="178"/>
      <point x="174" y="178" type="curve" smooth="yes"/>
      <point x="102" y="178"/>
      <point x="71" y="212"/>
      <point x="71" y="284" type="curve" smooth="yes"/>
      <point x="71" y="452" type="line"/>
      <point x="51" y="452" type="line"/>
      <point x="51" y="280" type="line" smooth="yes"/>
      <point x="51" y="195"/>
      <point x="87" y="158"/>
    </contour>
    <contour>
      <point x="230" y="-101" type="line"/>
      <point x="250" y="-97" type="line"/>
      <point x="250" y="20" type="line"/>
      <point x="230" y="20" type="line"/>
    </contour>
    <contour>
      <point x="230" y="0" type="line"/>
      <point x="336" y="0" type="line"/>
      <point x="336" y="20" type="line"/>
      <point x="230" y="20" type="line"/>
    </contour>
    <contour>
      <point x="316" y="0" type="line"/>
      <point x="336" y="0" type="line"/>
      <point x="336" y="196" type="line"/>
      <point x="336" y="452" type="line"/>
      <point x="316" y="452" type="line"/>
      <point x="316" y="196" type="line"/>
    </contour>
  </outline>
</glyph>
<glyph name="Obarred-cy" format="2">
  <advance width="685"/>
  <unicode hex="04E8"/>
  <outline>
    <contour>
      <point x="90" y="303" type="line"/>
      <point x="597" y="313" type="line"/>
      <point x="599" y="330" type="line"/>
      <point x="596" y="333" type="line"/>
      <point x="89" y="323" type="line"/>
      <point x="87" y="306" type="line"/>
    </contour>
    <contour>
      <point x="347" y="642" type="curve"/>
      <point x="173" y="642"/>
      <point x="77" y="526"/>
      <point x="77" y="317" type="curve" smooth="yes"/>
      <point x="77" y="110"/>
      <point x="170" y="-5"/>
      <point x="337" y="-5" type="curve" smooth="yes"/>
      <point x="511" y="-5"/>
      <point x="608" y="114"/>
      <point x="608" y="329" type="curve" smooth="yes"/>
      <point x="608" y="530"/>
      <point x="515" y="642"/>
    </contour>
    <contour>
      <point x="347" y="622" type="curve" smooth="yes"/>
      <point x="502" y="622"/>
      <point x="588" y="517"/>
      <point x="588" y="329" type="curve" smooth="yes"/>
      <point x="588" y="127"/>
      <point x="498" y="15"/>
      <point x="337" y="15" type="curve" smooth="yes"/>
      <point x="183" y="15"/>
      <point x="97" y="123"/>
      <point x="97" y="317" type="curve" smooth="yes"/>
      <point x="97" y="513"/>
      <point x="186" y="622"/>
    </contour>
  </outline>
</glyph>
<glyph name="ohorngrave" format="2">
  <advance width="487"/>
  <unicode hex="1EDD"/>
  <anchor x="243" y="452" name="top"/>
  <outline>
    <contour>
      <point x="146" y="669" type="curve"/>
      <point x="141" y="668" type="line"/>
      <point x="131" y="658" type="line"/>
      <point x="132" y="653" type="line"/>
      <point x="180" y="605"/>
      <point x="226" y="562"/>
      <point x="276" y="518" type="curve"/>
      <point x="281" y="519" type="line"/>
      <point x="292" y="532" type="line"/>
      <point x="246" y="571"/>
      <point x="200" y="614"/>
    </contour>
    <contour>
      <point x="451" y="568" type="curve" smooth="yes"/>
      <point x="448" y="568"/>
      <point x="444" y="567"/>
      <point x="438" y="563" type="curve"/>
      <point x="436" y="558" type="line"/>
      <point x="458" y="535"/>
      <point x="470" y="510"/>
      <point x="470" y="487" type="curve" smooth="yes"/>
      <point x="470" y="448"/>
      <point x="438" y="422"/>
      <point x="390" y="422" type="curve" smooth="yes"/>
      <point x="337" y="422"/>
      <point x="319" y="457"/>
      <point x="246" y="457" type="curve" smooth="yes"/>
      <point x="129" y="457"/>
      <point x="56" y="368"/>
      <point x="56" y="222" type="curve" smooth="yes"/>
      <point x="56" y="81"/>
      <point x="124" y="-5"/>
      <point x="240" y="-5" type="curve" smooth="yes"/>
      <point x="357" y="-5"/>
      <point x="429" y="84"/>
      <point x="429" y="229" type="curve"/>
      <point x="429" y="308"/>
      <point x="410" y="364"/>
      <point x="369" y="406" type="curve"/>
      <point x="442" y="398"/>
      <point x="490" y="432"/>
      <point x="490" y="492" type="curve" smooth="yes"/>
      <point x="490" y="535"/>
      <point x="463" y="568"/>
    </contour>
    <contour>
      <point x="245" y="437" type="curve" smooth="yes"/>
      <point x="348" y="437"/>
      <point x="409" y="359"/>
      <point x="409" y="230" type="curve" smooth="yes"/>
      <point x="409" y="96"/>
      <point x="344" y="15"/>
      <point x="240" y="15" type="curve" smooth="yes"/>
      <point x="137" y="15"/>
      <point x="76" y="93"/>
      <point x="76" y="222" type="curve" smooth="yes"/>
      <point x="76" y="356"/>
      <point x="141" y="437"/>
    </contour>
  </outline>
</glyph>
<glyph name="psiliperispomeni" format="2">
  <advance width="287"/>
  <unicode hex="1FCF"/>
  <anchor x="149" y="657" name="top"/>
  <outline>
    <contour>
      <point x="124" y="501" type="line"/>
      <point x="186" y="540"/>
      <point x="186" y="587"/>
      <point x="126" y="592" type="curve"/>
      <point x="122" y="587"/>
      <point x="120" y="583"/>
      <point x="119" y="581" type="curve"/>
      <point x="119" y="577" type="line"/>
      <point x="166" y="571"/>
      <point x="163" y="546"/>
      <point x="115" y="513" type="curve"/>
      <point x="115" y="510" type="line"/>
    </contour>
    <contour>
      <point x="244.468" y="656.824" type="line"/>
      <point x="241.874" y="656.824" type="line"/>
      <point x="221.983" y="636.069"/>
      <point x="212.47" y="621.367"/>
      <point x="203.822" y="621.367" type="curve"/>
      <point x="185.662" y="621.367"/>
      <point x="117.342" y="650.77"/>
      <point x="89.669" y="654.23" type="curve"/>
      <point x="85.345" y="652.5" type="line"/>
      <point x="46.429" y="612.719" type="line"/>
      <point x="46.429" y="609.26" type="line"/>
      <point x="54.212" y="599.747" type="line"/>
      <point x="56.806" y="599.747" type="line"/>
      <point x="76.697" y="620.502"/>
      <point x="86.21" y="635.204"/>
      <point x="94.858" y="635.204" type="curve"/>
      <point x="113.018" y="635.204"/>
      <point x="181.338" y="605.801"/>
      <point x="209.011" y="602.342" type="curve"/>
      <point x="212.47" y="604.071" type="line"/>
      <point x="251.386" y="644.717" type="line"/>
      <point x="251.386" y="648.176" type="line"/>
    </contour>
  </outline>
</glyph>
<glyph name="dasiavaria" format="2">
  <advance width="288"/>
  <unicode hex="1FDD"/>
  <anchor x="145" y="452" name="_top"/>
  <anchor x="212" y="660" name="_topleft"/>
  <anchor x="145" y="674" name="top"/>
  <outline>
    <contour>
      <point x="114" y="664" type="curve"/>
      <point x="80" y="657"/>
      <point x="65" y="638"/>
      <point x="65" y="611" type="curve" smooth="yes"/>
      <point x="65" y="582"/>
      <point x="81" y="548"/>
      <point x="117" y="511" type="curve"/>
      <point x="129" y="521" type="line"/>
      <point x="129" y="525" type="line"/>
      <point x="100" y="557"/>
      <point x="86" y="584"/>
      <point x="86" y="607" type="curve" smooth="yes"/>
      <point x="86" y="625"/>
      <point x="98" y="639"/>
      <point x="123" y="645" type="curve"/>
      <point x="123" y="649" type="line"/>
      <point x="122" y="653"/>
      <point x="119" y="658"/>
    </contour>
    <contour>
      <point x="212" y="519" type="line"/>
      <point x="225" y="525" type="line"/>
      <point x="206" y="568"/>
      <point x="188" y="615"/>
      <point x="167" y="673" type="curve"/>
      <point x="162" y="674" type="line"/>
      <point x="149" y="670" type="line"/>
      <point x="147" y="664" type="line"/>
      <point x="167" y="614"/>
      <point x="186" y="569"/>
      <point x="207" y="520" type="curve"/>
    </contour>
  </outline>
</glyph>
<glyph name="dasiaoxia" format="2">
  <advance width="290"/>
  <unicode hex="1FDE"/>
  <anchor x="142" y="452" name="_top"/>
  <anchor x="204" y="658" name="_topleft"/>
  <anchor x="142" y="676" name="top"/>
  <outline>
    <contour>
      <point x="114" y="664" type="curve"/>
      <point x="80" y="657"/>
      <point x="65" y="638"/>
      <point x="65" y="611" type="curve" smooth="yes"/>
      <point x="65" y="582"/>
      <point x="81" y="548"/>
      <point x="117" y="511" type="curve"/>
      <point x="129" y="521" type="line"/>
      <point x="129" y="525" type="line"/>
      <point x="100" y="557"/>
      <point x="86" y="584"/>
      <point x="86" y="607" type="curve" smooth="yes"/>
      <point x="86" y="625"/>
      <point x="98" y="639"/>
      <point x="123" y="645" type="curve"/>
      <point x="123" y="649" type="line"/>
      <point x="122" y="653"/>
      <point x="119" y="658"/>
    </contour>
    <contour>
      <point x="198.83550000000002" y="674.1915" type="line"/>
      <point x="184.012" y="614.316"/>
      <point x="171.0225" y="565.6935"/>
      <point x="156.6205" y="520.9445" type="curve"/>
      <point x="170.17600000000002" y="516.336" type="line"/>
      <point x="175.044" y="517.853" type="line"/>
      <point x="190.808" y="568.778"/>
      <point x="205.00100000000003" y="615.5160000000001"/>
      <point x="219.666" y="667.3310000000001" type="curve"/>
      <point x="217.05" y="673.089" type="line"/>
      <point x="203.70350000000002" y="675.7085000000001" type="line"/>
    </contour>
  </outline>
</glyph>
<glyph name="dasiaperispomeni" format="2">
  <advance width="285"/>
  <unicode hex="1FDF"/>
  <anchor x="141" y="657" name="top"/>
  <outline>
    <contour>
      <point x="154" y="503" type="curve"/>
      <point x="163" y="512" type="line"/>
      <point x="163" y="515" type="line"/>
      <point x="115" y="548"/>
      <point x="112" y="573"/>
      <point x="159" y="579" type="curve"/>
      <point x="159" y="583" type="line"/>
      <point x="158" y="585"/>
      <point x="156" y="589"/>
      <point x="152" y="594" type="curve"/>
      <point x="92" y="589"/>
      <point x="92" y="542"/>
    </contour>
    <contour>
      <point x="236.468" y="656.824" type="line"/>
      <point x="233.874" y="656.824" type="line"/>
      <point x="213.983" y="636.069"/>
      <point x="204.47" y="621.367"/>
      <point x="195.822" y="621.367" type="curve"/>
      <point x="177.662" y="621.367"/>
      <point x="109.342" y="650.77"/>
      <point x="81.669" y="654.23" type="curve"/>
      <point x="77.345" y="652.5" type="line"/>
      <point x="38.429" y="612.719" type="line"/>
      <point x="38.429" y="609.26" type="line"/>
      <point x="46.212" y="599.747" type="line"/>
      <point x="48.806" y="599.747" type="line"/>
      <point x="68.697" y="620.502"/>
      <point x="78.21" y="635.204"/>
      <point x="86.858" y="635.204" type="curve"/>
      <point x="105.018" y="635.204"/>
      <point x="173.338" y="605.801"/>
      <point x="201.011" y="602.342" type="curve"/>
      <point x="204.47" y="604.071" type="line"/>
      <point x="243.386" y="644.717" type="line"/>
      <point x="243.386" y="648.176" type="line"/>
    </contour>
  </outline>
</glyph>
<glyph name="bullet" format="2">
  <advance width="230"/>
  <unicode hex="2022"/>
  <outline>
    <contour>
      <point x="115" y="258" type="curve" smooth="yes"/>
      <point x="103" y="258"/>
      <point x="95" y="250"/>
      <point x="95" y="238" type="curve" smooth="yes"/>
      <point x="95" y="226"/>
      <point x="103" y="218"/>
      <point x="115" y="218" type="curve" smooth="yes"/>
      <point x="127" y="218"/>
      <point x="135" y="226"/>
      <point x="135" y="238" type="curve" smooth="yes"/>
      <point x="135" y="250"/>
      <point x="127" y="258"/>
    </contour>
  </outline>
</glyph>
<glyph name="minute" format="2">
  <advance width="125"/>
  <unicode hex="2032"/>
  <outline>
    <contour>
      <point x="76" y="635" type="line"/>
      <point x="59" y="633" type="line"/>
      <point x="47" y="489" type="line"/>
      <point x="50" y="485" type="line"/>
      <point x="67" y="487" type="line"/>
      <point x="79" y="631" type="line"/>
    </contour>
  </outline>
</glyph>
<glyph name="second" format="2">
  <advance width="213"/>
  <unicode hex="2033"/>
  <outline>
    <contour>
      <point x="164" y="635" type="line"/>
      <point x="147" y="633" type="line"/>
      <point x="135" y="489" type="line"/>
      <point x="138" y="485" type="line"/>
      <point x="155" y="487" type="line"/>
      <point x="167" y="631" type="line"/>
    </contour>
    <contour>
      <point x="76" y="635" type="line"/>
      <point x="59" y="633" type="line"/>
      <point x="47" y="489" type="line"/>
      <point x="50" y="485" type="line"/>
      <point x="67" y="487" type="line"/>
      <point x="79" y="631" type="line"/>
    </contour>
  </outline>
</glyph>
<glyph name="lira" format="2">
  <advance width="384"/>
  <unicode hex="20A4"/>
  <outline>
    <contour>
      <point x="229" y="591" type="curve" smooth="yes"/>
      <point x="147" y="591"/>
      <point x="105" y="540"/>
      <point x="105" y="447" type="curve" smooth="yes"/>
      <point x="105" y="130" type="line" smooth="yes"/>
      <point x="105" y="64"/>
      <point x="80" y="24"/>
      <point x="35" y="18" type="curve"/>
      <point x="32" y="4" type="line"/>
      <point x="36" y="0" type="line"/>
      <point x="271" y="0" type="line"/>
      <point x="343" y="0" type="line"/>
      <point x="346" y="16" type="line"/>
      <point x="342" y="21" type="line"/>
      <point x="273" y="20" type="line"/>
      <point x="85" y="20" type="line"/>
      <point x="85" y="22" type="line"/>
      <point x="112" y="45"/>
      <point x="125" y="79"/>
      <point x="125" y="130" type="curve" smooth="yes"/>
      <point x="125" y="447" type="line" smooth="yes"/>
      <point x="125" y="527"/>
      <point x="158" y="571"/>
      <point x="232" y="571" type="curve" smooth="yes"/>
      <point x="260" y="571"/>
      <point x="294" y="565"/>
      <point x="323" y="551" type="curve"/>
      <point x="326" y="553" type="line"/>
      <point x="328" y="572" type="line"/>
      <point x="291" y="585"/>
      <point x="257" y="591"/>
    </contour>
    <contour>
      <point x="261" y="362" type="line"/>
      <point x="37" y="362" type="line"/>
      <point x="34" y="346" type="line"/>
      <point x="38" y="342" type="line"/>
      <point x="261" y="342" type="line"/>
      <point x="264" y="358" type="line"/>
    </contour>
    <contour>
      <point x="261" y="246" type="line"/>
      <point x="37" y="246" type="line"/>
      <point x="34" y="230" type="line"/>
      <point x="38" y="226" type="line"/>
      <point x="261" y="226" type="line"/>
      <point x="264" y="242" type="line"/>
    </contour>
  </outline>
</glyph>
<glyph name="naira" format="2">
  <advance width="656"/>
  <unicode hex="20A6"/>
  <anchor x="325" y="0" name="bottom"/>
  <anchor x="326" y="491" name="top"/>
  <outline>
    <contour>
      <point x="51" y="294" type="line"/>
      <point x="607" y="294" type="line"/>
      <point x="609" y="311" type="line"/>
      <point x="606" y="314" type="line"/>
      <point x="50" y="314" type="line"/>
      <point x="48" y="297" type="line"/>
    </contour>
    <contour>
      <point x="51" y="175" type="line"/>
      <point x="607" y="175" type="line"/>
      <point x="609" y="192" type="line"/>
      <point x="606" y="195" type="line"/>
      <point x="50" y="195" type="line"/>
      <point x="48" y="178" type="line"/>
    </contour>
    <contour>
      <point x="514" y="492" type="line"/>
      <point x="494" y="490" type="line"/>
      <point x="493" y="40" type="line"/>
      <point x="489" y="40" type="line"/>
      <point x="163" y="491" type="line"/>
      <point x="143" y="491" type="line"/>
      <point x="142" y="146" type="line"/>
      <point x="142" y="0" type="line"/>
      <point x="162" y="0" type="line"/>
      <point x="162" y="154" type="line"/>
      <point x="163" y="451" type="line"/>
      <point x="166" y="451" type="line"/>
      <point x="492" y="0" type="line"/>
      <point x="512" y="0" type="line"/>
      <point x="513" y="137" type="line"/>
    </contour>
  </outline>
</glyph>
<glyph name="dong" format="2">
  <advance width="480"/>
  <unicode hex="20AB"/>
  <anchor x="221.624" y="42" name="bottom"/>
  <anchor x="221.624" y="255.208" name="center"/>
  <anchor x="221.624" y="468.417" name="top"/>
  <anchor x="441.436" y="468.417" name="topright"/>
  <outline>
    <contour>
      <point x="440" y="596" type="line"/>
      <point x="231" y="596" type="line"/>
      <point x="229" y="579" type="line"/>
      <point x="232" y="576" type="line"/>
      <point x="441" y="576" type="line"/>
      <point x="443" y="593" type="line"/>
    </contour>
    <contour>
      <point x="360" y="-53" type="line"/>
      <point x="91" y="-53" type="line"/>
      <point x="89" y="-70" type="line"/>
      <point x="92" y="-73" type="line"/>
      <point x="361" y="-73" type="line"/>
      <point x="363" y="-56" type="line"/>
    </contour>
    <contour>
      <point x="355.586" y="704.267" type="line"/>
      <point x="336.718" y="700.493" type="line"/>
      <point x="336.718" y="457.096" type="line"/>
      <point x="301.813" y="467.473"/>
      <point x="266.907" y="473.134"/>
      <point x="234.831" y="473.134" type="curve" smooth="yes"/>
      <point x="107.472" y="473.134"/>
      <point x="34.83" y="391.058"/>
      <point x="34.83" y="246.718" type="curve" smooth="yes"/>
      <point x="34.83" y="114.642"/>
      <point x="100.868" y="37.283"/>
      <point x="198.039" y="37.283" type="curve" smooth="yes"/>
      <point x="252.756" y="37.283"/>
      <point x="295.209" y="61.811"/>
      <point x="333.888" y="107.095" type="curve"/>
      <point x="336.718" y="107.095" type="line"/>
      <point x="337.662" y="58.981"/>
      <point x="354.643" y="39.17"/>
      <point x="387.662" y="39.17" type="curve" smooth="yes"/>
      <point x="402.756" y="39.17"/>
      <point x="416.907" y="43.887"/>
      <point x="429.172" y="52.377" type="curve"/>
      <point x="432.945" y="69.359" type="line"/>
      <point x="427.285" y="72.189" type="line"/>
      <point x="415.964" y="62.755"/>
      <point x="400.87" y="58.038"/>
      <point x="388.605" y="58.038" type="curve" smooth="yes"/>
      <point x="365.02" y="58.038"/>
      <point x="355.586" y="75.019"/>
      <point x="355.586" y="112.755" type="curve" smooth="yes"/>
      <point x="355.586" y="225.963" type="line"/>
    </contour>
    <contour>
      <point x="234.831" y="454.266" type="curve" smooth="yes"/>
      <point x="268.794" y="454.266"/>
      <point x="303.699" y="447.662"/>
      <point x="336.718" y="436.341" type="curve"/>
      <point x="336.718" y="225.02" type="line"/>
      <point x="336.718" y="137.283" type="line"/>
      <point x="298.039" y="83.51"/>
      <point x="252.756" y="56.151"/>
      <point x="198.982" y="56.151" type="curve" smooth="yes"/>
      <point x="113.133" y="56.151"/>
      <point x="53.698" y="125.963"/>
      <point x="53.698" y="246.718" type="curve" smooth="yes"/>
      <point x="53.698" y="378.794"/>
      <point x="119.736" y="454.266"/>
    </contour>
  </outline>
</glyph>
<glyph name="kip" format="2">
  <advance width="439"/>
  <unicode hex="20AD"/>
  <anchor x="229" y="0" name="bottom"/>
  <anchor x="213" y="491" name="top"/>
  <outline>
    <contour>
      <point x="318" y="270" type="line"/>
      <point x="51" y="270" type="line"/>
      <point x="49" y="253" type="line"/>
      <point x="52" y="250" type="line"/>
      <point x="319" y="250" type="line"/>
      <point x="321" y="267" type="line"/>
    </contour>
    <contour>
      <point x="421" y="491" type="line"/>
      <point x="392" y="491" type="line"/>
      <point x="357" y="454" type="line"/>
      <point x="155" y="263" type="line"/>
      <point x="155" y="260" type="line"/>
      <point x="235" y="169"/>
      <point x="325" y="79"/>
      <point x="415" y="-4" type="curve"/>
      <point x="419" y="-6" type="line"/>
      <point x="424" y="-4"/>
      <point x="431" y="-2"/>
      <point x="434" y="1" type="curve"/>
      <point x="435" y="5" type="line"/>
      <point x="347" y="84"/>
      <point x="258" y="174"/>
      <point x="181" y="262" type="curve"/>
    </contour>
    <contour>
      <point x="132" y="491" type="line"/>
      <point x="112" y="491" type="line"/>
      <point x="112" y="150" type="line"/>
      <point x="112" y="0" type="line"/>
      <point x="132" y="0" type="line"/>
      <point x="132" y="151" type="line"/>
    </contour>
  </outline>
</glyph>
<glyph name="hryvnia" format="2">
  <advance width="574"/>
  <unicode hex="20B4"/>
  <outline>
    <contour>
      <point x="293" y="-3" type="curve" smooth="yes"/>
      <point x="341" y="-3"/>
      <point x="394" y="11"/>
      <point x="429" y="33" type="curve"/>
      <point x="428" y="52" type="line"/>
      <point x="423" y="53" type="line"/>
      <point x="390" y="31"/>
      <point x="338" y="16"/>
      <point x="292" y="16" type="curve" smooth="yes"/>
      <point x="218" y="16"/>
      <point x="169" y="56"/>
      <point x="169" y="115" type="curve" smooth="yes"/>
      <point x="169" y="240"/>
      <point x="417" y="238"/>
      <point x="417" y="374" type="curve" smooth="yes"/>
      <point x="417" y="446"/>
      <point x="364" y="493"/>
      <point x="280" y="493" type="curve" smooth="yes"/>
      <point x="243" y="493"/>
      <point x="198" y="484"/>
      <point x="166" y="471" type="curve"/>
      <point x="170" y="453" type="line"/>
      <point x="176" y="452" type="line"/>
      <point x="205" y="464"/>
      <point x="248" y="474"/>
      <point x="282" y="474" type="curve" smooth="yes"/>
      <point x="351" y="474"/>
      <point x="397" y="432"/>
      <point x="397" y="372" type="curve" smooth="yes"/>
      <point x="397" y="255"/>
      <point x="149" y="257"/>
      <point x="149" y="116" type="curve" smooth="yes"/>
      <point x="149" y="45"/>
      <point x="206" y="-3"/>
    </contour>
    <contour>
      <point x="110" y="178" type="line"/>
      <point x="444" y="178" type="line"/>
      <point x="446" y="195" type="line"/>
      <point x="443" y="198" type="line"/>
      <point x="109" y="198" type="line"/>
      <point x="107" y="181" type="line"/>
    </contour>
    <contour>
      <point x="124" y="297" type="line"/>
      <point x="458" y="297" type="line"/>
      <point x="460" y="314" type="line"/>
      <point x="457" y="317" type="line"/>
      <point x="123" y="317" type="line"/>
      <point x="121" y="300" type="line"/>
    </contour>
  </outline>
</glyph>
<glyph name="cedi" format="2">
  <advance width="417"/>
  <unicode hex="20B5"/>
  <anchor x="236" y="0" name="bottom"/>
  <anchor x="232" y="491" name="top"/>
  <outline>
    <contour>
      <point x="264" y="482" type="line"/>
      <point x="243" y="482" type="line"/>
      <point x="203" y="7" type="line"/>
      <point x="223" y="7" type="line"/>
    </contour>
    <contour>
      <point x="223" y="7" type="line"/>
      <point x="203" y="7" type="line"/>
      <point x="192" y="-120" type="line"/>
      <point x="196" y="-124" type="line"/>
      <point x="211" y="-124" type="line"/>
    </contour>
    <contour>
      <point x="273" y="640" type="line"/>
      <point x="257" y="640" type="line"/>
      <point x="243" y="482" type="line"/>
      <point x="264" y="482" type="line"/>
      <point x="277" y="635" type="line"/>
    </contour>
    <contour>
      <point x="252" y="494" type="curve" smooth="yes"/>
      <point x="111" y="494"/>
      <point x="33" y="404"/>
      <point x="33" y="244" type="curve" smooth="yes"/>
      <point x="33" y="85"/>
      <point x="107" y="-4"/>
      <point x="243" y="-4" type="curve" smooth="yes"/>
      <point x="294" y="-4"/>
      <point x="349" y="14"/>
      <point x="395" y="46" type="curve"/>
      <point x="397" y="64" type="line"/>
      <point x="391" y="66" type="line"/>
      <point x="348" y="34"/>
      <point x="294" y="15"/>
      <point x="242" y="15" type="curve" smooth="yes"/>
      <point x="121" y="15"/>
      <point x="54" y="96"/>
      <point x="54" y="244" type="curve" smooth="yes"/>
      <point x="54" y="393"/>
      <point x="123" y="475"/>
      <point x="252" y="475" type="curve" smooth="yes"/>
      <point x="300" y="475"/>
      <point x="347" y="459"/>
      <point x="384" y="432" type="curve"/>
      <point x="390" y="432" type="line"/>
      <point x="396" y="450" type="line"/>
      <point x="356" y="478"/>
      <point x="303" y="494"/>
    </contour>
  </outline>
</glyph>
<glyph name="rupeeIndian" format="2">
  <advance width="352"/>
  <unicode hex="20B9"/>
  <outline>
    <contour>
      <point x="240" y="-5" type="curve"/>
      <point x="257" y="11" type="line"/>
      <point x="257" y="14" type="line"/>
      <point x="205" y="66"/>
      <point x="158" y="131"/>
      <point x="117" y="206" type="curve"/>
      <point x="150" y="232" type="line"/>
      <point x="129" y="241"/>
      <point x="115" y="245"/>
      <point x="91" y="248" type="curve"/>
      <point x="82" y="236" type="line"/>
      <point x="122" y="146"/>
      <point x="175" y="66"/>
    </contour>
    <contour>
      <point x="109" y="193" type="line"/>
      <point x="241" y="287"/>
      <point x="273" y="350"/>
      <point x="241" y="457" type="curve"/>
      <point x="221" y="451" type="line"/>
      <point x="251" y="354"/>
      <point x="223" y="299"/>
      <point x="97" y="209" type="curve"/>
    </contour>
    <contour>
      <point x="33" y="439" type="line"/>
      <point x="328" y="439" type="line"/>
      <point x="332" y="444" type="line"/>
      <point x="327" y="460" type="line"/>
      <point x="32" y="460" type="line"/>
      <point x="28" y="455" type="line"/>
    </contour>
    <contour>
      <point x="33" y="548" type="line"/>
      <point x="328" y="548" type="line"/>
      <point x="332" y="553" type="line"/>
      <point x="327" y="569" type="line"/>
      <point x="32" y="569" type="line"/>
      <point x="28" y="564" type="line"/>
    </contour>
  </outline>
</glyph>
<glyph name="liraTurkish" format="2">
  <advance width="425"/>
  <unicode hex="20BA"/>
  <outline>
    <contour>
      <point x="143" y="0" type="line"/>
      <point x="276" y="26"/>
      <point x="357" y="98"/>
      <point x="406" y="233" type="curve"/>
      <point x="404" y="237" type="line"/>
      <point x="388" y="239" type="line"/>
      <point x="343" y="117"/>
      <point x="271" y="50"/>
      <point x="150" y="20" type="curve"/>
    </contour>
    <contour>
      <point x="56" y="141" type="line"/>
      <point x="150" y="199" type="line"/>
      <point x="161" y="204" type="line"/>
      <point x="292" y="289" type="line"/>
      <point x="286" y="303" type="line"/>
      <point x="281" y="305" type="line"/>
      <point x="159" y="227" type="line"/>
      <point x="148" y="222" type="line"/>
      <point x="45" y="158" type="line"/>
      <point x="51" y="144" type="line"/>
    </contour>
    <contour>
      <point x="143" y="0" type="line"/>
      <point x="163" y="12" type="line"/>
      <point x="163" y="151" type="line"/>
      <point x="163" y="491" type="line"/>
      <point x="143" y="491" type="line"/>
      <point x="143" y="150" type="line"/>
    </contour>
    <contour>
      <point x="56" y="281" type="line"/>
      <point x="150" y="339" type="line"/>
      <point x="161" y="344" type="line"/>
      <point x="292" y="429" type="line"/>
      <point x="286" y="443" type="line"/>
      <point x="281" y="445" type="line"/>
      <point x="159" y="367" type="line"/>
      <point x="148" y="362" type="line"/>
      <point x="45" y="298" type="line"/>
      <point x="51" y="284" type="line"/>
    </contour>
  </outline>
</glyph>
<glyph name="literSign" format="2">
  <advance width="230"/>
  <unicode hex="2113"/>
  <anchor x="115" y="0" name="bottom"/>
  <anchor x="115" y="680" name="top"/>
  <anchor x="210" y="452" name="topright"/>
  <outline>
    <contour>
      <point x="125" y="702" type="line"/>
      <point x="105" y="698" type="line"/>
      <point x="105" y="195" type="line"/>
      <point x="105" y="0" type="line"/>
      <point x="125" y="0" type="line"/>
      <point x="125" y="195" type="line"/>
    </contour>
  </outline>
</glyph>
<glyph name="numero" format="2">
  <advance width="861"/>
  <unicode hex="2116"/>
  <anchor x="291" y="0" name="bottom"/>
  <anchor x="713" y="157" name="top"/>
  <outline>
    <contour>
      <point x="480" y="492" type="line"/>
      <point x="460" y="490" type="line"/>
      <point x="459" y="40" type="line"/>
      <point x="455" y="40" type="line"/>
      <point x="129" y="491" type="line"/>
      <point x="109" y="491" type="line"/>
      <point x="108" y="146" type="line"/>
      <point x="108" y="0" type="line"/>
      <point x="128" y="0" type="line"/>
      <point x="128" y="154" type="line"/>
      <point x="129" y="451" type="line"/>
      <point x="132" y="451" type="line"/>
      <point x="458" y="0" type="line"/>
      <point x="478" y="0" type="line"/>
      <point x="479" y="137" type="line"/>
    </contour>
    <contour>
      <point x="699" y="511" type="curve" smooth="yes"/>
      <point x="619" y="511"/>
      <point x="571" y="454"/>
      <point x="571" y="359" type="curve" smooth="yes"/>
      <point x="571" y="268"/>
      <point x="617" y="213"/>
      <point x="694" y="213" type="curve" smooth="yes"/>
      <point x="774" y="213"/>
      <point x="822" y="270"/>
      <point x="822" y="365" type="curve" smooth="yes"/>
      <point x="822" y="456"/>
      <point x="776" y="511"/>
    </contour>
    <contour>
      <point x="698" y="492" type="curve" smooth="yes"/>
      <point x="762" y="492"/>
      <point x="801" y="445"/>
      <point x="801" y="364" type="curve" smooth="yes"/>
      <point x="801" y="280"/>
      <point x="761" y="232"/>
      <point x="694" y="232" type="curve" smooth="yes"/>
      <point x="630" y="232"/>
      <point x="592" y="279"/>
      <point x="592" y="360" type="curve" smooth="yes"/>
      <point x="592" y="444"/>
      <point x="632" y="492"/>
    </contour>
  </outline>
</glyph>
<glyph name="emptyset" format="2">
  <advance width="666"/>
  <unicode hex="2205"/>
  <outline>
    <contour>
      <point x="329" y="-5" type="curve" smooth="yes"/>
      <point x="503" y="-5"/>
      <point x="600" y="114"/>
      <point x="600" y="329" type="curve" smooth="yes"/>
      <point x="600" y="530"/>
      <point x="507" y="642"/>
      <point x="339" y="642" type="curve"/>
      <point x="165" y="642"/>
      <point x="69" y="526"/>
      <point x="69" y="317" type="curve" smooth="yes"/>
      <point x="69" y="110"/>
      <point x="162" y="-5"/>
    </contour>
    <contour>
      <point x="152" y="-87" type="line"/>
      <point x="516" y="701" type="line"/>
      <point x="514" y="706" type="line"/>
      <point x="498" y="709" type="line"/>
      <point x="134" y="-80" type="line"/>
      <point x="136" y="-84" type="line"/>
    </contour>
    <contour>
      <point x="329" y="15" type="curve" smooth="yes"/>
      <point x="175" y="15"/>
      <point x="89" y="123"/>
      <point x="89" y="317" type="curve" smooth="yes"/>
      <point x="89" y="513"/>
      <point x="178" y="622"/>
      <point x="339" y="622" type="curve" smooth="yes"/>
      <point x="494" y="622"/>
      <point x="580" y="517"/>
      <point x="580" y="329" type="curve" smooth="yes"/>
      <point x="580" y="127"/>
      <point x="490" y="15"/>
    </contour>
  </outline>
</glyph>
<glyph name="blackSquare" format="2">
  <advance width="420"/>
  <unicode hex="25A0"/>
  <outline>
    <contour>
      <point x="62" y="81" type="line"/>
      <point x="358" y="81" type="line"/>
      <point x="358" y="377" type="line"/>
      <point x="62" y="377" type="line"/>
    </contour>
  </outline>
</glyph>
<glyph name="whiteSquare" format="2">
  <advance width="450"/>
  <unicode hex="25A1"/>
  <outline>
    <contour>
      <point x="62" y="66" type="line"/>
      <point x="388" y="66" type="line"/>
      <point x="388" y="392" type="line"/>
      <point x="62" y="392" type="line"/>
    </contour>
    <contour>
      <point x="92" y="96" type="line"/>
      <point x="92" y="362" type="line"/>
      <point x="358" y="362" type="line"/>
      <point x="358" y="96" type="line"/>
    </contour>
  </outline>
</glyph>
<glyph name="leftanglebracket-math" format="2">
  <advance width="277"/>
  <unicode hex="27E8"/>
  <outline>
    <contour>
      <point x="196" y="-139" type="line"/>
      <point x="211" y="-133" type="line"/>
      <point x="67" y="253" type="line"/>
      <point x="211" y="639" type="line"/>
      <point x="196" y="645" type="line"/>
      <point x="192" y="643" type="line"/>
      <point x="49" y="259" type="line"/>
      <point x="49" y="247" type="line"/>
      <point x="192" y="-137" type="line"/>
    </contour>
  </outline>
</glyph>
<glyph name="rightanglebracket-math" format="2">
  <advance width="277"/>
  <unicode hex="27E9"/>
  <outline>
    <contour>
      <point x="81" y="-139" type="line"/>
      <point x="85" y="-137" type="line"/>
      <point x="228" y="247" type="line"/>
      <point x="228" y="259" type="line"/>
      <point x="85" y="643" type="line"/>
      <point x="81" y="645" type="line"/>
      <point x="66" y="639" type="line"/>
      <point x="210" y="253" type="line"/>
      <point x="66" y="-133" type="line"/>
    </contour>
  </outline>
</glyph>
<glyph name="Saltillo" format="2">
  <advance width="105"/>
  <unicode hex="A78B"/>
  <outline>
    <contour>
      <point x="49" y="153" type="move"/>
    </contour>
    <contour>
      <point x="64" y="605.98" type="line"/>
      <point x="47" y="602.884" type="line"/>
      <point x="35" y="379.972" type="line"/>
      <point x="38" y="373.78" type="line"/>
      <point x="55" y="376.876" type="line"/>
      <point x="67" y="599.788" type="line"/>
    </contour>
  </outline>
</glyph>
<glyph name="saltillo" format="2">
  <advance width="105"/>
  <unicode hex="A78C"/>
  <outline>
    <contour>
      <point x="49" y="133" type="move"/>
    </contour>
    <contour>
      <point x="64" y="535.875" type="line"/>
      <point x="47" y="532.625" type="line"/>
      <point x="35" y="298.625" type="line"/>
      <point x="38" y="292.125" type="line"/>
      <point x="55" y="295.375" type="line"/>
      <point x="67" y="529.375" type="line"/>
    </contour>
  </outline>
</glyph>
<glyph name="fi" format="2">
  <advance width="508"/>
  <unicode hex="FB01"/>
  <outline>
    <contour>
      <point x="273" y="705" type="curve" smooth="yes"/>
      <point x="165" y="705"/>
      <point x="117" y="655"/>
      <point x="117" y="541" type="curve" smooth="yes"/>
      <point x="117" y="452" type="line"/>
      <point x="50" y="452" type="line"/>
      <point x="46" y="436" type="line"/>
      <point x="50" y="432" type="line"/>
      <point x="117" y="432" type="line"/>
      <point x="117" y="184" type="line"/>
      <point x="117" y="0" type="line"/>
      <point x="137" y="0" type="line"/>
      <point x="137" y="184" type="line"/>
      <point x="137" y="432" type="line"/>
      <point x="387" y="432" type="line"/>
      <point x="387" y="184" type="line"/>
      <point x="387" y="0" type="line"/>
      <point x="407" y="0" type="line"/>
      <point x="407" y="184" type="line"/>
      <point x="407" y="452" type="line"/>
      <point x="404" y="454" type="line"/>
      <point x="391" y="452" type="line"/>
      <point x="137" y="452" type="line"/>
      <point x="137" y="541" type="line" smooth="yes"/>
      <point x="137" y="641"/>
      <point x="179" y="685"/>
      <point x="273" y="685" type="curve" smooth="yes"/>
      <point x="317" y="685"/>
      <point x="351" y="678"/>
      <point x="385" y="662" type="curve"/>
      <point x="391" y="662" type="line"/>
      <point x="397" y="682" type="line"/>
      <point x="355" y="698"/>
      <point x="317" y="705"/>
    </contour>
  </outline>
</glyph>
<glyph name="C.ss01" format="2">
  <advance width="568"/>
  <anchor x="331" y="0" name="bottom"/>
  <anchor x="342" y="637" name="top"/>
  <outline>
    <contour>
      <point x="331" y="0" type="curve" smooth="yes"/>
      <point x="394" y="0"/>
      <point x="462" y="24"/>
      <point x="518" y="67" type="curve"/>
      <point x="520" y="85" type="line"/>
      <point x="513" y="87" type="line"/>
      <point x="460" y="44"/>
      <point x="394" y="20"/>
      <point x="330" y="20" type="curve" smooth="yes"/>
      <point x="181" y="20"/>
      <point x="98" y="125"/>
      <point x="98" y="316" type="curve" smooth="yes"/>
      <point x="98" y="509"/>
      <point x="184" y="617"/>
      <point x="342" y="617" type="curve" smooth="yes"/>
      <point x="402" y="617"/>
      <point x="459" y="597"/>
      <point x="504" y="561" type="curve"/>
      <point x="511" y="561" type="line"/>
      <point x="518" y="578" type="line"/>
      <point x="469" y="616"/>
      <point x="405" y="637"/>
      <point x="342" y="637" type="curve" smooth="yes"/>
      <point x="172" y="637"/>
      <point x="78" y="522"/>
      <point x="78" y="317" type="curve" smooth="yes"/>
      <point x="78" y="113"/>
      <point x="168" y="0"/>
    </contour>
    <contour>
      <point x="-40" y="0" type="line"/>
      <point x="608" y="0" type="line"/>
      <point x="608" y="20" type="line"/>
      <point x="-40" y="20" type="line"/>
    </contour>
    <contour>
      <point x="-40" y="617" type="line"/>
      <point x="608" y="617" type="line"/>
      <point x="608" y="637" type="line"/>
      <point x="-40" y="637" type="line"/>
    </contour>
  </outline>
</glyph>
<glyph name="Chi.sups" format="2">
  <advance width="377"/>
  <outline>
    <contour>
      <point x="336" y="756" type="line"/>
      <point x="311" y="756" type="line"/>
      <point x="294" y="729" type="line"/>
      <point x="184" y="575" type="line"/>
      <point x="72" y="732" type="line"/>
      <point x="57" y="756" type="line"/>
      <point x="29" y="756" type="line"/>
      <point x="171" y="558" type="line"/>
      <point x="21" y="348" type="line"/>
      <point x="47" y="348" type="line"/>
      <point x="62" y="373" type="line"/>
      <point x="184" y="543" type="line"/>
      <point x="305" y="374" type="line"/>
      <point x="321" y="348" type="line"/>
      <point x="349" y="348" type="line"/>
      <point x="198" y="560" type="line"/>
    </contour>
  </outline>
</glyph>
<glyph name="Delta.sups" format="2">
  <advance width="368"/>
  <outline>
    <contour>
      <point x="18" y="348" type="line"/>
      <point x="347" y="348" type="line"/>
      <point x="347" y="364" type="line"/>
      <point x="201" y="756" type="line"/>
      <point x="178" y="756" type="line"/>
      <point x="18" y="364" type="line"/>
    </contour>
    <contour>
      <point x="39" y="367" type="line"/>
      <point x="187" y="728" type="line"/>
      <point x="190" y="728" type="line"/>
      <point x="325" y="367" type="line"/>
    </contour>
  </outline>
</glyph>
<glyph name="Epsilon.sups" format="2">
  <advance width="303"/>
  <anchor x="178" y="348" name="bottom"/>
  <anchor x="257" y="360" name="ogonek"/>
  <anchor x="151" y="756" name="top"/>
  <anchor x="3" y="756" name="topleft"/>
  <outline>
    <contour>
      <point x="91" y="756" type="line"/>
      <point x="70" y="756" type="line"/>
      <point x="71" y="473" type="line"/>
      <point x="70" y="348" type="line"/>
      <point x="91" y="348" type="line"/>
      <point x="91" y="473" type="line"/>
    </contour>
    <contour>
      <point x="282" y="368" type="line"/>
      <point x="178" y="367" type="line"/>
      <point x="85" y="367" type="line"/>
      <point x="82" y="351" type="line"/>
      <point x="85" y="348" type="line"/>
      <point x="282" y="348" type="line"/>
      <point x="285" y="365" type="line"/>
    </contour>
    <contour>
      <point x="247" y="569" type="line"/>
      <point x="176" y="568" type="line"/>
      <point x="85" y="569" type="line"/>
      <point x="83" y="552" type="line"/>
      <point x="85" y="549" type="line"/>
      <point x="173" y="549" type="line"/>
      <point x="246" y="549" type="line"/>
      <point x="249" y="566" type="line"/>
    </contour>
    <contour>
      <point x="280" y="756" type="line"/>
      <point x="85" y="756" type="line"/>
      <point x="82" y="740" type="line"/>
      <point x="85" y="737" type="line"/>
      <point x="182" y="737" type="line"/>
      <point x="280" y="736" type="line"/>
      <point x="283" y="753" type="line"/>
    </contour>
  </outline>
</glyph>
<glyph name="Gamma.sups" format="2">
  <advance width="274"/>
  <anchor x="109" y="551" name="center"/>
  <outline>
    <contour>
      <point x="91" y="756" type="line"/>
      <point x="70" y="756" type="line"/>
      <point x="70" y="473" type="line"/>
      <point x="70" y="348" type="line"/>
      <point x="91" y="348" type="line"/>
      <point x="91" y="473" type="line"/>
    </contour>
    <contour>
      <point x="272" y="756" type="line"/>
      <point x="84" y="756" type="line"/>
      <point x="81" y="740" type="line"/>
      <point x="84" y="737" type="line"/>
      <point x="178" y="737" type="line"/>
      <point x="271" y="737" type="line"/>
      <point x="274" y="753" type="line"/>
    </contour>
  </outline>
</glyph>
<glyph name="I.ss01" format="2">
  <advance width="282"/>
  <anchor x="151" y="0" name="ogonek"/>
  <anchor x="141" y="637" name="top"/>
  <outline>
    <contour>
      <point x="131" y="0" type="line"/>
      <point x="151" y="0" type="line"/>
      <point x="151" y="195" type="line"/>
      <point x="151" y="637" type="line"/>
      <point x="131" y="637" type="line"/>
      <point x="131" y="195" type="line"/>
    </contour>
    <contour>
      <point x="-40" y="0" type="line"/>
      <point x="322" y="0" type="line"/>
      <point x="322" y="20" type="line"/>
      <point x="-40" y="20" type="line"/>
    </contour>
    <contour>
      <point x="-40" y="617" type="line"/>
      <point x="322" y="617" type="line"/>
      <point x="322" y="637" type="line"/>
      <point x="-40" y="637" type="line"/>
    </contour>
  </outline>
</glyph>
<glyph name="Lambda.sups" format="2">
  <advance width="364"/>
  <outline>
    <contour>
      <point x="198" y="756" type="line"/>
      <point x="174" y="756" type="line"/>
      <point x="12" y="348" type="line"/>
      <point x="36" y="348" type="line"/>
      <point x="45" y="379" type="line"/>
      <point x="184" y="727" type="line"/>
      <point x="187" y="727" type="line"/>
      <point x="314" y="379" type="line"/>
      <point x="323" y="348" type="line"/>
      <point x="346" y="348" type="line"/>
    </contour>
  </outline>
</glyph>
<glyph name="Omega.sups" format="2">
  <advance width="473"/>
  <anchor x="237" y="348" name="bottom"/>
  <anchor x="237" y="756" name="top"/>
  <anchor x="30" y="756" name="topleft"/>
  <outline>
    <contour>
      <point x="57" y="347" type="line"/>
      <point x="97" y="348" type="line"/>
      <point x="167" y="348" type="line"/>
      <point x="194" y="347" type="line"/>
      <point x="195" y="349" type="line"/>
      <point x="195" y="369" type="line"/>
      <point x="115" y="422"/>
      <point x="82" y="479"/>
      <point x="82" y="565" type="curve" smooth="yes"/>
      <point x="82" y="675"/>
      <point x="139" y="740"/>
      <point x="236" y="740" type="curve" smooth="yes"/>
      <point x="333" y="740"/>
      <point x="391" y="675"/>
      <point x="391" y="566" type="curve" smooth="yes"/>
      <point x="391" y="481"/>
      <point x="356" y="419"/>
      <point x="278" y="369" type="curve"/>
      <point x="278" y="349" type="line"/>
      <point x="279" y="347" type="line"/>
      <point x="306" y="348" type="line"/>
      <point x="374" y="348" type="line"/>
      <point x="415" y="348" type="line"/>
      <point x="418" y="365" type="line"/>
      <point x="416" y="368" type="line"/>
      <point x="376" y="367" type="line"/>
      <point x="307" y="367" type="line"/>
      <point x="307" y="369" type="line"/>
      <point x="379" y="417"/>
      <point x="412" y="480"/>
      <point x="412" y="567" type="curve" smooth="yes"/>
      <point x="412" y="688"/>
      <point x="346" y="760"/>
      <point x="237" y="760" type="curve" smooth="yes"/>
      <point x="126" y="760"/>
      <point x="61" y="687"/>
      <point x="61" y="564" type="curve" smooth="yes"/>
      <point x="61" y="477"/>
      <point x="94" y="416"/>
      <point x="166" y="369" type="curve"/>
      <point x="166" y="367" type="line"/>
      <point x="100" y="367" type="line"/>
      <point x="58" y="368" type="line"/>
      <point x="55" y="350" type="line"/>
    </contour>
  </outline>
</glyph>
<glyph name="Omicron.sups" format="2">
  <advance width="414"/>
  <anchor x="207" y="348" name="bottom"/>
  <anchor x="207" y="552" name="center"/>
  <anchor x="284" y="362" name="ogonek"/>
  <anchor x="208" y="756" name="top"/>
  <anchor x="5" y="756" name="topleft"/>
  <anchor x="401" y="756" name="topright"/>
  <outline>
    <contour>
      <point x="211" y="760" type="curve"/>
      <point x="94" y="760"/>
      <point x="30" y="685"/>
      <point x="30" y="551" type="curve" smooth="yes"/>
      <point x="30" y="418"/>
      <point x="92" y="344"/>
      <point x="203" y="344" type="curve" smooth="yes"/>
      <point x="319" y="344"/>
      <point x="384" y="421"/>
      <point x="384" y="559" type="curve" smooth="yes"/>
      <point x="384" y="688"/>
      <point x="322" y="760"/>
    </contour>
    <contour>
      <point x="210" y="740" type="curve" smooth="yes"/>
      <point x="309" y="740"/>
      <point x="363" y="676"/>
      <point x="363" y="557" type="curve" smooth="yes"/>
      <point x="363" y="431"/>
      <point x="306" y="363"/>
      <point x="204" y="363" type="curve" smooth="yes"/>
      <point x="105" y="363"/>
      <point x="51" y="429"/>
      <point x="51" y="552" type="curve" smooth="yes"/>
      <point x="51" y="674"/>
      <point x="107" y="740"/>
    </contour>
  </outline>
</glyph>
<glyph name="Psi.sups" format="2">
  <advance width="451"/>
  <outline>
    <contour>
      <point x="236" y="756" type="line"/>
      <point x="216" y="756" type="line"/>
      <point x="216" y="473" type="line"/>
      <point x="216" y="348" type="line"/>
      <point x="236" y="348" type="line"/>
      <point x="235" y="473" type="line"/>
    </contour>
    <contour>
      <point x="398" y="756" type="line"/>
      <point x="378" y="756" type="line"/>
      <point x="378" y="579" type="line" smooth="yes"/>
      <point x="378" y="494"/>
      <point x="325" y="450"/>
      <point x="226" y="450" type="curve" smooth="yes"/>
      <point x="126" y="450"/>
      <point x="74" y="494"/>
      <point x="74" y="579" type="curve" smooth="yes"/>
      <point x="74" y="756" type="line"/>
      <point x="53" y="756" type="line"/>
      <point x="53" y="638" type="line"/>
      <point x="53" y="578" type="line" smooth="yes"/>
      <point x="53" y="481"/>
      <point x="113" y="431"/>
      <point x="226" y="431" type="curve" smooth="yes"/>
      <point x="337" y="431"/>
      <point x="400" y="483"/>
      <point x="398" y="578" type="curve"/>
      <point x="398" y="632" type="line"/>
    </contour>
  </outline>
</glyph>
<glyph name="Rho.sups" format="2">
  <advance width="324"/>
  <anchor x="3" y="756" name="topleft"/>
  <outline>
    <contour>
      <point x="170" y="757" type="curve"/>
      <point x="70" y="756" type="line"/>
      <point x="79" y="737" type="line"/>
      <point x="172" y="738" type="line"/>
      <point x="235" y="736"/>
      <point x="270" y="702"/>
      <point x="270" y="641" type="curve" smooth="yes"/>
      <point x="270" y="573"/>
      <point x="234" y="530"/>
      <point x="168" y="523" type="curve"/>
      <point x="79" y="524" type="line"/>
      <point x="79" y="504" type="line"/>
      <point x="148" y="504" type="line"/>
      <point x="240" y="504"/>
      <point x="292" y="554"/>
      <point x="292" y="642" type="curve" smooth="yes"/>
      <point x="292" y="716"/>
      <point x="248" y="757"/>
    </contour>
    <contour>
      <point x="91" y="756" type="line"/>
      <point x="70" y="756" type="line"/>
      <point x="71" y="473" type="line"/>
      <point x="70" y="348" type="line"/>
      <point x="91" y="348" type="line"/>
      <point x="91" y="473" type="line"/>
    </contour>
  </outline>
</glyph>
